<?xml version="1.0" encoding="utf-8"?>
<!-- Generator: Adobe Illustrator 19.0.0, SVG Export Plug-In . SVG Version: 6.00 Build 0)  -->
<svg version="1.1" id="Layer_1" xmlns="http://www.w3.org/2000/svg" xmlns:xlink="http://www.w3.org/1999/xlink" x="0px" y="0px"
	 viewBox="-34 21 890 520" style="enable-background:new -34 21 890 520;" xml:space="preserve">
<style type="text/css">
	.st0{fill:#55A7E8;stroke:#4182AD;stroke-width:4;stroke-miterlimit:10;}
	.st1{enable-background:new    ;}
	.st2{fill:#FFFFFF;}
	.st3{fill:#CEDDDD;stroke:#96A3A3;stroke-width:4;stroke-miterlimit:10;}
	.st4{fill:#333333;}
	.st5{fill:#55A7E8;stroke:#4182AD;stroke-width:3;stroke-miterlimit:10;}
	.st6{fill:none;stroke:#96A3A3;stroke-width:4;stroke-linecap:round;stroke-linejoin:round;stroke-dasharray:11.9961,11.9961;}
	.st7{fill:#96A3A3;}
	.st8{fill:none;stroke:#333333;stroke-width:4;stroke-linecap:round;stroke-linejoin:round;}
</style>
<g id="XMLID_7_">
	<path id="XMLID_9_" class="st0" d="M634,311H508c-6.6,0-12-5.4-12-12v-51c0-6.6,5.4-12,12-12h126c6.6,0,12,5.4,12,12v51
		C646,305.6,640.6,311,634,311z"/>
	<g class="st1">
		<path class="st2" d="M514.9,266.8h-3.6v-15h3.6V266.8z"/>
		<path class="st2" d="M521.3,266.8h-3.6v-10.5h2.2l0.6,1.4h0.2c0.7-1,1.7-1.7,3.3-1.7c1.6,0,2.9,0.6,3.6,1.7h0.1
			c0.7-1.1,1.6-1.8,3.2-1.8c2.7,0,4.3,1.8,4.3,4.6v6.2h-3.6v-5.9c0-1-0.6-1.7-1.6-1.7c-1,0-1.7,0.6-1.7,1.5v6.1h-3.6v-5.9
			c0-1-0.6-1.7-1.7-1.7c-1.1,0-1.7,0.7-1.7,1.7V266.8z"/>
		<path class="st2" d="M547,266.8h-2.5l-0.5-1.3H544c-0.5,0.9-1.5,1.5-3.3,1.5c-2.3,0-3.7-1.4-3.7-3.3c0-2.2,1.6-3.5,4.8-3.5
			c0.8,0,1.4,0.1,1.9,0.2v-0.3c0-1-0.8-1.3-2.3-1.3c-1.5,0-2.6,0.7-2.6,0.7l-1.1-2.5c0,0,1.5-0.9,4.5-0.9c3.1,0,4.9,1.7,4.9,4.3
			V266.8z M543.6,262.4c-0.2-0.1-0.6-0.2-1.4-0.2c-1.2,0-1.9,0.5-1.9,1.3c0,0.8,0.6,1.2,1.5,1.2c1,0,1.8-0.6,1.8-1.6V262.4z"/>
		<path class="st2" d="M558.3,259L558.3,259c0,0,0.2,0.3,0.2,1c0,1.8-1.5,3.3-4.6,3.3c-0.5,0-1,0-1.5-0.1c-0.4,0.2-0.4,0.4-0.4,0.6
			c0,0.3,0.2,0.6,2.1,0.6c4.2,0.2,5.6,1,5.6,3.2c0,1.9-1.8,3.6-5.7,3.6c-3.9,0-5.4-1.1-5.4-2.6c0-0.8,0.4-1.6,1.5-2.3
			c-0.8-0.5-1.2-1.2-1.2-2.1c0-0.7,0.5-1.4,1.5-2c-0.8-0.6-1.2-1.4-1.2-2.4c0-2.2,1.8-3.7,4.7-3.7c0.6,0,1.2,0.1,1.7,0.2h4v2.6
			H558.3z M552.6,267.1c-0.3,0.2-0.6,0.6-0.6,1.1c0,0.6,0.5,0.9,1.9,0.9c1.5,0,2.1-0.4,2.1-0.9c0-0.5-0.2-1-2-1
			C553.5,267.2,553,267.2,552.6,267.1z M552.5,259.8c0,0.8,0.5,1.4,1.4,1.4c0.9,0,1.4-0.6,1.4-1.4s-0.5-1.4-1.4-1.4
			C553,258.4,552.5,259,552.5,259.8z"/>
		<path class="st2" d="M570.4,265.9c0,0-1.3,1.3-4,1.3c-3.6,0-5.8-2.5-5.8-5.6c0-3.1,2.2-5.5,5.3-5.5c3.1,0,5,2,5,5.2c0,0.4,0,1,0,1
			H564c0.2,1.4,1,2,2.5,2c1.5,0,2.6-0.8,2.6-0.8L570.4,265.9z M564.1,260.4h3.4c0-1-0.6-1.7-1.6-1.7
			C564.9,258.7,564.3,259.2,564.1,260.4z"/>
		<path class="st2" d="M585,266.8h-7.1v-15h7c3.5,0,5.2,1.5,5.2,4.1c0,1.2-0.7,2.4-1.8,3v0.2c1.4,0.4,2.2,1.7,2.2,3.2
			C590.6,265.2,588.6,266.8,585,266.8z M584.8,255h-3.3v2.9h3.2c0.9,0,1.5-0.7,1.5-1.4C586.3,255.6,585.7,255,584.8,255z
			 M581.6,260.6v3.1h3.5c1,0,1.6-0.7,1.6-1.5c0-0.8-0.6-1.5-1.5-1.6H581.6z"/>
		<path class="st2" d="M592.5,251.7h3.6v15.1h-3.6V251.7z"/>
		<path class="st2" d="M603.5,267.1c-3.1,0-5.6-2.1-5.6-5.4c0-3.3,2.5-5.5,5.6-5.5c3,0,5.6,2.2,5.6,5.5
			C609.1,264.9,606.6,267.1,603.5,267.1z M605.6,261.6c0-1.6-0.8-2.7-2-2.7c-1.3,0-2.1,1.1-2.1,2.7c0,1.6,0.8,2.7,2.1,2.7
			C604.8,264.3,605.6,263.2,605.6,261.6z"/>
		<path class="st2" d="M610.3,261.6c0-3.1,2.2-5.5,5.7-5.5c2.2,0,3.3,0.9,3.3,0.9l-0.9,2.6c0,0-1-0.6-2.1-0.6c-1.4,0-2.4,1-2.4,2.5
			s1,2.5,2.4,2.5c1.1,0,2.1-0.6,2.1-0.6l0.9,2.5c0,0-1.1,1-3.3,1C612.6,267.1,610.3,264.7,610.3,261.6z"/>
		<path class="st2" d="M631.6,256.3l-3.4,4.6l3.6,5.9h-4.3l-2.1-3.5l-0.7,0.9v2.7h-3.6v-15.1h3.6v8.5l2.7-3.9H631.6z"/>
	</g>
	<g class="st1">
		<path class="st2" d="M544.3,290.7h-6.1v6.1h-3.6v-15h11v3.1h-7.4v2.9h6.1V290.7z"/>
		<path class="st2" d="M555.5,296.8h-2.5l-0.5-1.3h-0.1c-0.5,0.9-1.5,1.5-3.3,1.5c-2.3,0-3.7-1.4-3.7-3.3c0-2.2,1.6-3.5,4.8-3.5
			c0.8,0,1.4,0.1,1.9,0.2v-0.3c0-1-0.8-1.3-2.3-1.3c-1.5,0-2.6,0.7-2.6,0.7l-1.1-2.6c0,0,1.5-0.9,4.5-0.9c3.1,0,4.9,1.7,4.9,4.3
			V296.8z M552.1,292.4c-0.2-0.1-0.6-0.2-1.4-0.2c-1.2,0-1.9,0.5-1.9,1.3c0,0.8,0.6,1.2,1.5,1.2c1,0,1.8-0.6,1.8-1.6V292.4z"/>
		<path class="st2" d="M557.3,291.6c0-3.1,2.2-5.5,5.7-5.5c2.2,0,3.3,0.9,3.3,0.9l-0.9,2.6c0,0-1-0.6-2.1-0.6c-1.4,0-2.4,1-2.4,2.5
			c0,1.6,1,2.6,2.4,2.6c1.1,0,2.1-0.6,2.1-0.6l0.9,2.5c0,0-1.1,1-3.3,1C559.5,297.1,557.3,294.7,557.3,291.6z"/>
		<path class="st2" d="M568.9,286.3v-3.2h3.6v3.2h2.3v2.8h-2.3v4c0,0.6,0.3,0.9,0.9,0.9c0.5,0,0.9-0.3,0.9-0.3l1,2.4
			c-0.6,0.5-1.8,0.9-2.9,0.9c-2.6,0-3.5-1.7-3.5-3.8v-4.1h-1.7v-2.8H568.9z"/>
		<path class="st2" d="M581.7,297.1c-3.1,0-5.6-2.2-5.6-5.4c0-3.3,2.5-5.5,5.6-5.5c3,0,5.6,2.2,5.6,5.5
			C587.2,294.9,584.7,297.1,581.7,297.1z M583.7,291.6c0-1.6-0.8-2.7-2-2.7c-1.3,0-2.1,1.1-2.1,2.7c0,1.6,0.8,2.7,2.1,2.7
			C582.9,294.3,583.7,293.2,583.7,291.6z"/>
		<path class="st2" d="M595.4,289.4h-0.5c-1.3,0-2.2,0.9-2.2,2.4v5.1h-3.6v-10.5h2.2l0.6,1.4h0.1c0.6-1,1.5-1.4,2.9-1.4h0.5V289.4z"
			/>
		<path class="st2" d="M601.2,300.7h-3.7l2.3-4.9l-4.2-9.4h3.9l1.7,5.3c0.1,0.3,0.2,0.6,0.2,0.9h0.2c0-0.3,0.1-0.6,0.2-0.9l1.7-5.3
			h3.7L601.2,300.7z"/>
	</g>
</g>
<g id="XMLID_1_">
	<path id="XMLID_3_" class="st3" d="M634,166H508c-6.6,0-12-5.4-12-12v-51c0-6.6,5.4-12,12-12h126c6.6,0,12,5.4,12,12v51
		C646,160.6,640.6,166,634,166z"/>
	<g class="st1">
		<path class="st4" d="M543.1,119.8h-3.9l-0.9-2.7h-5.7l-0.9,2.7h-3.9l5.7-15h3.9L543.1,119.8z M533.5,114.3h3.8l-1.9-5.5
			L533.5,114.3z"/>
		<path class="st4" d="M544.1,104.7h3.6v5.6h0.1c0,0,0.6-1.2,2.6-1.2c2.7,0,4.7,2.2,4.7,5.5c0,3.4-2.1,5.5-4.8,5.5
			c-2.4,0-3.2-1.6-3.2-1.6H547l-0.5,1.4h-2.4V104.7z M549.5,117.1c1.2,0,2-1.1,2-2.6c0-1.5-0.8-2.5-2-2.5c-1.2,0-2,1-2,2.5
			S548.3,117.1,549.5,117.1z"/>
		<path class="st4" d="M557.5,116.5c0,0,1.7,1,3.3,1c0.9,0,1.2-0.3,1.2-0.6c0-1.4-5.4-0.5-5.4-4.5c0-1.9,1.5-3.3,4.3-3.3
			c3.2,0,4.8,0.9,4.8,0.9l-1,2.6c0,0-1.5-0.9-3.3-0.9c-0.7,0-1.1,0.2-1.1,0.6c0,1.3,5.6,0.3,5.6,4.5c0,1.9-1.4,3.3-4.8,3.3
			c-3.2,0-4.6-1.1-4.6-1.1L557.5,116.5z"/>
		<path class="st4" d="M568.7,109.3v-3.2h3.6v3.2h2.3v2.8h-2.3v4c0,0.6,0.3,0.9,0.9,0.9c0.5,0,0.9-0.3,0.9-0.3l1,2.4
			c-0.6,0.5-1.8,0.9-2.9,0.9c-2.6,0-3.5-1.6-3.5-3.8v-4.1h-1.7v-2.8H568.7z"/>
		<path class="st4" d="M583,112.4h-0.5c-1.3,0-2.2,0.9-2.2,2.4v5.1h-3.6v-10.5h2.2l0.6,1.4h0.2c0.6-1,1.5-1.4,2.9-1.4h0.5V112.4z"/>
		<path class="st4" d="M593.8,119.8h-2.5l-0.5-1.3h-0.1c-0.5,0.9-1.5,1.5-3.3,1.5c-2.3,0-3.7-1.4-3.7-3.3c0-2.2,1.6-3.5,4.8-3.5
			c0.8,0,1.4,0.1,1.9,0.2v-0.3c0-1-0.8-1.3-2.3-1.3c-1.5,0-2.6,0.7-2.6,0.7l-1.1-2.5c0,0,1.5-0.9,4.5-0.9c3.1,0,4.9,1.7,4.9,4.3
			V119.8z M590.3,115.4c-0.2-0.1-0.6-0.2-1.4-0.2c-1.2,0-1.9,0.5-1.9,1.3c0,0.8,0.6,1.2,1.5,1.2c1,0,1.8-0.6,1.8-1.6V115.4z"/>
		<path class="st4" d="M595.5,114.6c0-3.1,2.2-5.5,5.7-5.5c2.2,0,3.3,0.9,3.3,0.9l-0.9,2.6c0,0-1-0.6-2.1-0.6c-1.4,0-2.4,1-2.4,2.5
			s1,2.5,2.4,2.5c1.1,0,2.1-0.6,2.1-0.6l0.9,2.5c0,0-1.1,1-3.3,1C597.7,120.1,595.5,117.7,595.5,114.6z"/>
		<path class="st4" d="M607.1,109.3v-3.2h3.6v3.2h2.3v2.8h-2.3v4c0,0.6,0.3,0.9,0.9,0.9c0.5,0,0.9-0.3,0.9-0.3l1,2.4
			c-0.6,0.5-1.8,0.9-2.9,0.9c-2.6,0-3.5-1.6-3.5-3.8v-4.1h-1.7v-2.8H607.1z"/>
	</g>
	<g class="st1">
		<path class="st4" d="M511.3,149.8h-7.1v-15h7c3.5,0,5.2,1.5,5.2,4.1c0,1.2-0.7,2.4-1.8,3v0.2c1.4,0.4,2.2,1.7,2.2,3.2
			C516.9,148.2,514.9,149.8,511.3,149.8z M511.2,138h-3.3v2.9h3.2c0.9,0,1.5-0.7,1.5-1.4C512.6,138.6,512.1,138,511.2,138z
			 M507.9,143.6v3.1h3.5c1,0,1.6-0.7,1.6-1.5c0-0.8-0.6-1.5-1.5-1.6H507.9z"/>
		<path class="st4" d="M518.8,134.7h3.6v15.1h-3.6V134.7z"/>
		<path class="st4" d="M529.8,150.1c-3.1,0-5.6-2.1-5.6-5.4c0-3.3,2.5-5.5,5.6-5.5c3,0,5.6,2.2,5.6,5.5
			C535.4,147.9,532.9,150.1,529.8,150.1z M531.9,144.6c0-1.6-0.8-2.7-2-2.7c-1.3,0-2.1,1.1-2.1,2.7c0,1.6,0.8,2.7,2.1,2.7
			C531.1,147.3,531.9,146.2,531.9,144.6z"/>
		<path class="st4" d="M536.7,144.6c0-3.1,2.2-5.5,5.7-5.5c2.2,0,3.3,0.9,3.3,0.9l-0.9,2.6c0,0-1-0.6-2.1-0.6c-1.4,0-2.4,1-2.4,2.5
			s1,2.5,2.4,2.5c1.1,0,2.1-0.6,2.1-0.6l0.9,2.5c0,0-1.1,1-3.3,1C538.9,150.1,536.7,147.7,536.7,144.6z"/>
		<path class="st4" d="M558,139.3l-3.4,4.6l3.6,5.9h-4.3l-2.1-3.5l-0.7,0.9v2.7h-3.6v-15.1h3.6v8.5l2.7-3.9H558z"/>
		<path class="st4" d="M574.4,143.7h-6.1v6.1h-3.6v-15h11v3.1h-7.4v2.9h6.1V143.7z"/>
		<path class="st4" d="M585.7,149.8h-2.4l-0.5-1.3h-0.1c-0.5,0.9-1.5,1.5-3.3,1.5c-2.3,0-3.7-1.4-3.7-3.3c0-2.2,1.6-3.5,4.8-3.5
			c0.8,0,1.4,0.1,1.9,0.2v-0.3c0-1-0.8-1.3-2.3-1.3c-1.4,0-2.6,0.7-2.6,0.7l-1.1-2.5c0,0,1.5-0.9,4.5-0.9c3.1,0,4.9,1.7,4.9,4.3
			V149.8z M582.2,145.4c-0.2-0.1-0.6-0.2-1.4-0.2c-1.2,0-1.9,0.5-1.9,1.3c0,0.8,0.6,1.2,1.4,1.2c1,0,1.8-0.6,1.8-1.6V145.4z"/>
		<path class="st4" d="M587.4,144.6c0-3.1,2.2-5.5,5.7-5.5c2.2,0,3.3,0.9,3.3,0.9l-0.9,2.6c0,0-1-0.6-2.1-0.6c-1.4,0-2.4,1-2.4,2.5
			s1,2.5,2.4,2.5c1.1,0,2.1-0.6,2.1-0.6l0.9,2.5c0,0-1.1,1-3.3,1C589.6,150.1,587.4,147.7,587.4,144.6z"/>
		<path class="st4" d="M599,139.3v-3.2h3.6v3.2h2.3v2.8h-2.3v4c0,0.6,0.3,0.9,1,0.9c0.5,0,0.9-0.3,0.9-0.3l1,2.4
			c-0.7,0.5-1.8,0.9-2.9,0.9c-2.6,0-3.5-1.6-3.5-3.8v-4.1h-1.7v-2.8H599z"/>
		<path class="st4" d="M611.8,150.1c-3.1,0-5.6-2.1-5.6-5.4c0-3.3,2.5-5.5,5.6-5.5c3,0,5.6,2.2,5.6,5.5
			C617.4,147.9,614.8,150.1,611.8,150.1z M613.8,144.6c0-1.6-0.8-2.7-2-2.7c-1.3,0-2.1,1.1-2.1,2.7c0,1.6,0.8,2.7,2.1,2.7
			C613,147.3,613.8,146.2,613.8,144.6z"/>
		<path class="st4" d="M625.6,142.4H625c-1.3,0-2.2,0.9-2.2,2.4v5.1h-3.6v-10.5h2.2l0.6,1.4h0.2c0.6-1,1.5-1.4,2.9-1.4h0.5V142.4z"
			/>
		<path class="st4" d="M631.4,153.7h-3.7l2.3-4.9l-4.2-9.4h3.9l1.8,5.3c0.1,0.3,0.2,0.6,0.2,0.9h0.2c0-0.3,0.1-0.6,0.2-0.9l1.7-5.3
			h3.7L631.4,153.7z"/>
	</g>
</g>
<g id="XMLID_4_">
	<path id="XMLID_6_" class="st0" d="M474,311H348c-6.6,0-12-5.4-12-12v-51c0-6.6,5.4-12,12-12h126c6.6,0,12,5.4,12,12v51
		C486,305.6,480.6,311,474,311z"/>
	<g class="st1">
		<path class="st2" d="M358.6,251.8h12.1v3.1h-4.2v11.9h-3.6V255h-4.2V251.8z"/>
		<path class="st2" d="M379.4,265.9c0,0-1.3,1.3-4,1.3c-3.6,0-5.8-2.5-5.8-5.6c0-3.1,2.2-5.5,5.3-5.5c3.1,0,5,2,5,5.2c0,0.4,0,1,0,1
			H373c0.2,1.4,1,2,2.5,2c1.5,0,2.6-0.8,2.6-0.8L379.4,265.9z M373.1,260.4h3.4c0-1-0.6-1.7-1.6-1.7
			C374,258.7,373.3,259.2,373.1,260.4z"/>
		<path class="st2" d="M383.8,261.5l-3.2-5.2h4l1.5,3h0.1l1.5-3h4l-3.4,5.2l3.5,5.3h-4l-1.5-3.1h-0.1l-1.6,3.1h-4L383.8,261.5z"/>
		<path class="st2" d="M394.1,256.3v-3.2h3.6v3.2h2.3v2.8h-2.3v4c0,0.6,0.3,0.9,0.9,0.9c0.5,0,0.9-0.3,0.9-0.3l1,2.4
			c-0.6,0.5-1.8,0.9-2.9,0.9c-2.6,0-3.5-1.6-3.5-3.8v-4.1h-1.7v-2.8H394.1z"/>
		<path class="st2" d="M414.4,266.8h-7.1v-15h7c3.5,0,5.2,1.5,5.2,4.1c0,1.2-0.7,2.4-1.8,3v0.2c1.4,0.4,2.2,1.7,2.2,3.2
			C419.9,265.2,417.9,266.8,414.4,266.8z M414.2,255h-3.3v2.9h3.2c0.9,0,1.5-0.7,1.5-1.4C415.7,255.6,415.1,255,414.2,255z
			 M410.9,260.6v3.1h3.5c1,0,1.6-0.7,1.6-1.5c0-0.8-0.6-1.5-1.5-1.6H410.9z"/>
		<path class="st2" d="M421.8,251.7h3.6v15.1h-3.6V251.7z"/>
		<path class="st2" d="M432.9,267.1c-3.1,0-5.6-2.1-5.6-5.4c0-3.3,2.5-5.5,5.6-5.5c3,0,5.6,2.2,5.6,5.5
			C438.4,264.9,435.9,267.1,432.9,267.1z M434.9,261.6c0-1.6-0.8-2.7-2-2.7c-1.3,0-2.1,1.1-2.1,2.7c0,1.6,0.8,2.7,2.1,2.7
			C434.1,264.3,434.9,263.2,434.9,261.6z"/>
		<path class="st2" d="M439.7,261.6c0-3.1,2.2-5.5,5.7-5.5c2.2,0,3.3,0.9,3.3,0.9l-0.9,2.6c0,0-1-0.6-2.1-0.6c-1.4,0-2.4,1-2.4,2.5
			s1,2.5,2.4,2.5c1.1,0,2.1-0.6,2.1-0.6l0.9,2.5c0,0-1.1,1-3.3,1C441.9,267.1,439.7,264.7,439.7,261.6z"/>
		<path class="st2" d="M461,256.3l-3.4,4.6l3.6,5.9h-4.3l-2.1-3.5l-0.7,0.9v2.7h-3.6v-15.1h3.6v8.5l2.7-3.9H461z"/>
	</g>
	<g class="st1">
		<path class="st2" d="M384.3,290.7h-6.1v6.1h-3.6v-15h11v3.1h-7.4v2.9h6.1V290.7z"/>
		<path class="st2" d="M395.5,296.8h-2.4l-0.5-1.3h-0.1c-0.5,0.9-1.5,1.5-3.3,1.5c-2.3,0-3.7-1.4-3.7-3.3c0-2.2,1.6-3.5,4.8-3.5
			c0.8,0,1.4,0.1,1.9,0.2v-0.3c0-1-0.8-1.3-2.3-1.3c-1.4,0-2.6,0.7-2.6,0.7l-1.1-2.6c0,0,1.5-0.9,4.5-0.9c3.1,0,4.9,1.7,4.9,4.3
			V296.8z M392.1,292.4c-0.2-0.1-0.6-0.2-1.4-0.2c-1.2,0-1.9,0.5-1.9,1.3c0,0.8,0.6,1.2,1.4,1.2c1,0,1.8-0.6,1.8-1.6V292.4z"/>
		<path class="st2" d="M397.3,291.6c0-3.1,2.2-5.5,5.7-5.5c2.2,0,3.3,0.9,3.3,0.9l-0.9,2.6c0,0-1-0.6-2.1-0.6c-1.4,0-2.4,1-2.4,2.5
			c0,1.6,1,2.6,2.4,2.6c1.1,0,2.1-0.6,2.1-0.6l0.9,2.5c0,0-1.1,1-3.3,1C399.5,297.1,397.3,294.7,397.3,291.6z"/>
		<path class="st2" d="M408.9,286.3v-3.2h3.6v3.2h2.3v2.8h-2.3v4c0,0.6,0.3,0.9,1,0.9c0.5,0,0.9-0.3,0.9-0.3l1,2.4
			c-0.7,0.5-1.8,0.9-2.9,0.9c-2.6,0-3.5-1.7-3.5-3.8v-4.1h-1.7v-2.8H408.9z"/>
		<path class="st2" d="M421.7,297.1c-3.1,0-5.6-2.2-5.6-5.4c0-3.3,2.5-5.5,5.6-5.5c3,0,5.6,2.2,5.6,5.5
			C427.2,294.9,424.7,297.1,421.7,297.1z M423.7,291.6c0-1.6-0.8-2.7-2-2.7c-1.3,0-2.1,1.1-2.1,2.7c0,1.6,0.8,2.7,2.1,2.7
			C422.9,294.3,423.7,293.2,423.7,291.6z"/>
		<path class="st2" d="M435.4,289.4h-0.5c-1.3,0-2.2,0.9-2.2,2.4v5.1h-3.6v-10.5h2.2l0.6,1.4h0.2c0.6-1,1.5-1.4,2.9-1.4h0.5V289.4z"
			/>
		<path class="st2" d="M441.2,300.7h-3.7l2.3-4.9l-4.2-9.4h3.9l1.8,5.3c0.1,0.3,0.2,0.6,0.2,0.9h0.2c0-0.3,0.1-0.6,0.2-0.9l1.7-5.3
			h3.7L441.2,300.7z"/>
	</g>
</g>
<g id="XMLID_10_">
	<path id="XMLID_12_" class="st0" d="M794,311H668c-6.6,0-12-5.4-12-12v-51c0-6.6,5.4-12,12-12h126c6.6,0,12,5.4,12,12v51
		C806,305.6,800.6,311,794,311z"/>
	<g class="st1">
		<path class="st2" d="M685.1,260.7H679v6.1h-3.6v-15h11v3.1H679v2.9h6.1V260.7z"/>
		<path class="st2" d="M692.1,267.1c-3.1,0-5.6-2.1-5.6-5.4c0-3.3,2.5-5.5,5.6-5.5c3,0,5.6,2.2,5.6,5.5
			C697.6,264.9,695.1,267.1,692.1,267.1z M694.1,261.6c0-1.6-0.8-2.7-2-2.7c-1.3,0-2.1,1.1-2.1,2.7c0,1.6,0.8,2.7,2.1,2.7
			C693.3,264.3,694.1,263.2,694.1,261.6z"/>
		<path class="st2" d="M705.8,259.4h-0.5c-1.3,0-2.2,0.9-2.2,2.4v5.1h-3.6v-10.5h2.2l0.6,1.4h0.1c0.6-1,1.5-1.4,2.9-1.4h0.5V259.4z"
			/>
		<path class="st2" d="M711,266.8h-3.6v-10.5h2.2l0.6,1.4h0.2c0.7-1,1.7-1.7,3.3-1.7c1.6,0,2.9,0.6,3.6,1.7h0.1
			c0.7-1.1,1.6-1.8,3.2-1.8c2.7,0,4.3,1.8,4.3,4.6v6.2h-3.6v-5.9c0-1-0.6-1.7-1.6-1.7c-1,0-1.7,0.6-1.7,1.5v6.1h-3.6v-5.9
			c0-1-0.6-1.7-1.7-1.7c-1.1,0-1.7,0.7-1.7,1.7V266.8z"/>
		<path class="st2" d="M739.6,266.8h-7.1v-15h7c3.5,0,5.2,1.5,5.2,4.1c0,1.2-0.7,2.4-1.8,3v0.2c1.4,0.4,2.2,1.7,2.2,3.2
			C745.2,265.2,743.2,266.8,739.6,266.8z M739.5,255h-3.3v2.9h3.2c0.9,0,1.5-0.7,1.5-1.4C740.9,255.6,740.4,255,739.5,255z
			 M736.2,260.6v3.1h3.5c1,0,1.6-0.7,1.6-1.5c0-0.8-0.6-1.5-1.5-1.6H736.2z"/>
		<path class="st2" d="M747.1,251.7h3.6v15.1h-3.6V251.7z"/>
		<path class="st2" d="M758.1,267.1c-3.1,0-5.6-2.1-5.6-5.4c0-3.3,2.5-5.5,5.6-5.5c3,0,5.6,2.2,5.6,5.5
			C763.7,264.9,761.2,267.1,758.1,267.1z M760.2,261.6c0-1.6-0.8-2.7-2-2.7c-1.3,0-2.1,1.1-2.1,2.7c0,1.6,0.8,2.7,2.1,2.7
			C759.4,264.3,760.2,263.2,760.2,261.6z"/>
		<path class="st2" d="M765,261.6c0-3.1,2.2-5.5,5.7-5.5c2.2,0,3.3,0.9,3.3,0.9l-0.9,2.6c0,0-0.9-0.6-2.1-0.6c-1.4,0-2.4,1-2.4,2.5
			s1,2.5,2.4,2.5c1.2,0,2.1-0.6,2.1-0.6l0.9,2.5c0,0-1.1,1-3.3,1C767.2,267.1,765,264.7,765,261.6z"/>
		<path class="st2" d="M786.3,256.3l-3.4,4.6l3.6,5.9h-4.3l-2.1-3.5l-0.7,0.9v2.7h-3.6v-15.1h3.6v8.5l2.7-3.9H786.3z"/>
	</g>
	<g class="st1">
		<path class="st2" d="M704.3,290.7h-6.1v6.1h-3.6v-15h11v3.1h-7.4v2.9h6.1V290.7z"/>
		<path class="st2" d="M715.5,296.8h-2.4l-0.5-1.3h-0.1c-0.5,0.9-1.5,1.5-3.3,1.5c-2.3,0-3.7-1.4-3.7-3.3c0-2.2,1.6-3.5,4.8-3.5
			c0.8,0,1.4,0.1,1.9,0.2v-0.3c0-1-0.8-1.3-2.3-1.3c-1.4,0-2.6,0.7-2.6,0.7l-1.1-2.6c0,0,1.5-0.9,4.5-0.9c3.1,0,4.9,1.7,4.9,4.3
			V296.8z M712.1,292.4c-0.2-0.1-0.6-0.2-1.4-0.2c-1.2,0-1.9,0.5-1.9,1.3c0,0.8,0.6,1.2,1.4,1.2c1,0,1.8-0.6,1.8-1.6V292.4z"/>
		<path class="st2" d="M717.3,291.6c0-3.1,2.2-5.5,5.7-5.5c2.2,0,3.3,0.9,3.3,0.9l-0.9,2.6c0,0-1-0.6-2.1-0.6c-1.4,0-2.4,1-2.4,2.5
			c0,1.6,1,2.6,2.4,2.6c1.1,0,2.1-0.6,2.1-0.6l0.9,2.5c0,0-1.1,1-3.3,1C719.5,297.1,717.3,294.7,717.3,291.6z"/>
		<path class="st2" d="M728.9,286.3v-3.2h3.6v3.2h2.3v2.8h-2.3v4c0,0.6,0.3,0.9,1,0.9c0.5,0,0.9-0.3,0.9-0.3l1,2.4
			c-0.7,0.5-1.8,0.9-2.9,0.9c-2.6,0-3.5-1.7-3.5-3.8v-4.1h-1.7v-2.8H728.9z"/>
		<path class="st2" d="M741.7,297.1c-3.1,0-5.6-2.2-5.6-5.4c0-3.3,2.5-5.5,5.6-5.5c3,0,5.6,2.2,5.6,5.5
			C747.2,294.9,744.7,297.1,741.7,297.1z M743.7,291.6c0-1.6-0.8-2.7-2-2.7c-1.3,0-2.1,1.1-2.1,2.7c0,1.6,0.8,2.7,2.1,2.7
			C742.9,294.3,743.7,293.2,743.7,291.6z"/>
		<path class="st2" d="M755.4,289.4h-0.5c-1.3,0-2.2,0.9-2.2,2.4v5.1h-3.6v-10.5h2.2l0.6,1.4h0.2c0.6-1,1.5-1.4,2.9-1.4h0.5V289.4z"
			/>
		<path class="st2" d="M761.2,300.7h-3.7l2.3-4.9l-4.2-9.4h3.9l1.8,5.3c0.1,0.3,0.2,0.6,0.2,0.9h0.2c0-0.3,0.1-0.6,0.2-0.9l1.7-5.3
			h3.7L761.2,300.7z"/>
	</g>
</g>
<g id="XMLID_15_">
	<path id="XMLID_13_" class="st5" d="M444,411h-76c-6.6,0-12-5.4-12-12v-26c0-6.6,5.4-12,12-12h76c6.6,0,12,5.4,12,12v26
		C456,405.6,450.6,411,444,411z"/>
	<g id="XMLID_14_" class="st1">
		<path class="st2" d="M371.6,391h-4.9v-10.8h4.7c2.4,0,3.7,1,3.7,2.9c0,1.1-0.6,1.9-1.5,2.3v0.1c1.1,0.3,1.8,1.2,1.8,2.4
			C375.5,390,374,391,371.6,391z M371.5,381.8h-2.9v3h2.9c1.2,0,1.9-0.6,1.9-1.5C373.3,382.3,372.6,381.8,371.5,381.8z M368.5,386.3
			v3.1h3.2c1.1,0,2-0.6,2-1.6c0-0.9-0.8-1.5-1.8-1.5H368.5z"/>
		<path class="st2" d="M377.3,380.1h1.8V391h-1.8V380.1z"/>
		<path class="st2" d="M384.7,391.2c-2.1,0-3.9-1.5-3.9-3.9c0-2.4,1.7-4,3.9-4s3.9,1.6,3.9,4C388.6,389.6,386.8,391.2,384.7,391.2z
			 M386.9,387.2c0-1.6-1-2.6-2.2-2.6s-2.2,1-2.2,2.6c0,1.6,1,2.5,2.2,2.5S386.9,388.8,386.9,387.2z"/>
		<path class="st2" d="M389.8,387.2c0-2.3,1.6-4,3.9-4c1.6,0,2.3,0.7,2.3,0.7l-0.5,1.3c0,0-0.7-0.5-1.7-0.5c-1.3,0-2.2,0.9-2.2,2.5
			c0,1.6,1,2.5,2.2,2.5c1,0,1.7-0.5,1.7-0.5l0.5,1.3c0,0-0.7,0.7-2.3,0.7C391.4,391.2,389.8,389.5,389.8,387.2z"/>
		<path class="st2" d="M404.6,383.4l-3.1,3.3l3.1,4.3h-2.1l-2.3-3.2l-0.7,0.8v2.4h-1.8v-10.9h1.8v6.6l3-3.2H404.6z"/>
		<path class="st2" d="M412.7,393.8H411V390h-0.1c0,0-0.5,1.2-2.4,1.2c-2,0-3.5-1.6-3.5-4c0-2.4,1.5-4,3.5-4c2,0,2.6,1.4,2.6,1.4
			h0.1l0.3-1.2h1.2V393.8z M408.9,384.7c-1.2,0-2.1,1-2.1,2.5c0,1.5,0.9,2.5,2.1,2.5c1.2,0,2.1-0.9,2.1-2.5
			C411.1,385.7,410.1,384.7,408.9,384.7z"/>
		<path class="st2" d="M420.1,383.4h1.8v7.6h-1.2l-0.3-1h-0.1c-0.3,0.4-1,1.2-2.5,1.2c-2,0-3.1-1.4-3.1-3.4v-4.3h1.8v4.2
			c0,1.2,0.6,2.1,1.7,2.1c1.3,0,1.9-1.1,1.9-1.8V383.4z"/>
		<path class="st2" d="M427.5,391.2c-2.1,0-3.9-1.5-3.9-3.9c0-2.4,1.7-4,3.9-4s3.9,1.6,3.9,4C431.4,389.6,429.6,391.2,427.5,391.2z
			 M429.6,387.2c0-1.6-1-2.6-2.2-2.6s-2.2,1-2.2,2.6c0,1.6,1,2.5,2.2,2.5S429.6,388.8,429.6,387.2z"/>
		<path class="st2" d="M433.5,383.4v-2.3h1.8v2.3h2v1.4h-2v3.8c0,0.6,0.3,1,1,1c0.5,0,0.9-0.3,0.9-0.3l0.5,1.2
			c-0.2,0.1-0.9,0.6-1.8,0.6c-1.7,0-2.4-1-2.4-2.5v-3.9h-1.4v-1.4H433.5z"/>
		<path class="st2" d="M445.2,390.3c0,0-0.9,0.9-2.8,0.9c-2.5,0-4-1.7-4-4c0-2.3,1.5-4,3.7-4c2.2,0,3.4,1.6,3.4,3.8
			c0,0.2,0,0.5,0,0.5h-5.4c0.1,1.5,1,2.3,2.3,2.3c1.3,0,2-0.7,2-0.7L445.2,390.3z M440.2,386.3h3.5c-0.1-1.1-0.7-1.7-1.7-1.7
			C441.1,384.6,440.4,385.2,440.2,386.3z"/>
	</g>
</g>
<g id="XMLID_16_">
	<path id="XMLID_18_" class="st5" d="M454,451h-76c-6.6,0-12-5.4-12-12v-26c0-6.6,5.4-12,12-12h76c6.6,0,12,5.4,12,12v26
		C466,445.6,460.6,451,454,451z"/>
	<g id="XMLID_17_" class="st1">
		<path class="st2" d="M396.7,431h-1.8v-4.6h-5.5v4.6h-1.8v-10.8h1.8v4.7h5.5v-4.7h1.8V431z"/>
		<path class="st2" d="M405.2,430.3c0,0-0.9,0.9-2.8,0.9c-2.5,0-4-1.7-4-4c0-2.3,1.5-4,3.7-4c2.2,0,3.4,1.6,3.4,3.8
			c0,0.2,0,0.5,0,0.5h-5.4c0.1,1.5,1,2.3,2.3,2.3c1.3,0,2-0.7,2-0.7L405.2,430.3z M400.3,426.3h3.5c-0.1-1.1-0.7-1.7-1.7-1.7
			C401.1,424.6,400.5,425.2,400.3,426.3z"/>
		<path class="st2" d="M413.5,431h-1.2l-0.2-1h-0.1c-0.4,0.7-1.3,1.2-2.5,1.2c-1.8,0-2.8-1-2.8-2.4c0-1.5,1.2-2.5,3.4-2.5
			c0.7,0,1.3,0.1,1.7,0.3v-0.3c0-1.1-0.7-1.6-2-1.6c-1.1,0-2,0.6-2,0.6l-0.6-1.3c0,0,1.1-0.7,2.9-0.7c2.3,0,3.4,1.2,3.4,3.1V431z
			 M411.8,428.3v-0.6c-0.3-0.1-0.7-0.3-1.5-0.3c-1.3,0-1.9,0.5-1.9,1.3c0,0.7,0.6,1.2,1.5,1.2C410.9,429.9,411.7,429.2,411.8,428.3z
			"/>
		<path class="st2" d="M421,424.3v-4.2h1.8V431h-1.2l-0.3-1.1h-0.1c0,0-0.6,1.3-2.6,1.3c-2,0-3.5-1.5-3.5-4c0-2.4,1.5-4,3.5-4
			C420.4,423.3,420.9,424.3,421,424.3L421,424.3z M419,424.7c-1.2,0-2.1,1-2.1,2.5c0,1.5,0.9,2.5,2.1,2.5c1.2,0,2.1-1,2.1-2.5
			C421.1,425.7,420.2,424.7,419,424.7z"/>
		<path class="st2" d="M424.8,421c0-0.6,0.5-1.1,1.1-1.1c0.6,0,1.1,0.5,1.1,1.1c0,0.6-0.5,1.1-1.1,1.1
			C425.2,422.1,424.8,421.6,424.8,421z M425,423.4h1.8v7.6H425V423.4z"/>
		<path class="st2" d="M428.9,423.4h1.2l0.2,1.1h0.1c0.5-0.8,1.3-1.3,2.5-1.3c2,0,3.2,1.4,3.2,3.4v4.3h-1.8v-4.2
			c0-1.2-0.6-2.1-1.8-2.1c-1.2,0-1.8,0.9-1.8,1.7v4.5h-1.8V423.4z"/>
		<path class="st2" d="M444,424.8L444,424.8c0,0,0.3,0.3,0.3,1.2c0,1.2-1,2.5-3.1,2.5c-0.6,0-1.2-0.1-1.6-0.3
			c-0.3,0.2-0.4,0.3-0.4,0.6c0,0.4,0.3,0.7,2.3,0.8c2.8,0.1,3.7,0.8,3.7,2.3c0,1.3-1.4,2.5-3.9,2.5c-2.6,0-3.7-0.9-3.7-2.1
			c0-0.7,0.3-1.3,1.2-1.7c-0.9-0.4-1.1-0.9-1.1-1.6c0-0.6,0.3-1.1,1-1.4c-0.4-0.4-0.5-1-0.5-1.5c0-1.5,1.1-2.6,3.1-2.6
			c0.4,0,0.8,0.1,1.1,0.1h2.7v1.4H444z M440.4,430.9c-0.7,0.3-1.1,0.7-1.1,1.2c0,0.6,0.6,1,2,1c1.5,0,2.2-0.5,2.2-1.1
			c0-0.5-0.4-1-1.9-1C441.1,431,440.7,430.9,440.4,430.9z M439.8,425.9c0,0.8,0.6,1.4,1.5,1.4c1,0,1.5-0.6,1.5-1.4
			c0-0.7-0.6-1.4-1.5-1.4C440.3,424.5,439.8,425.2,439.8,425.9z"/>
	</g>
</g>
<g id="XMLID_19_">
	<path id="XMLID_21_" class="st5" d="M464,491h-76c-6.6,0-12-5.4-12-12v-26c0-6.6,5.4-12,12-12h76c6.6,0,12,5.4,12,12v26
		C476,485.6,470.6,491,464,491z"/>
	<g id="XMLID_20_" class="st1">
		<path class="st2" d="M390.8,460.2h4.4c2.5,0,4.1,1.4,4.1,3.6c0,2.4-1.7,3.7-4.2,3.7h-2.6v3.5h-1.8V460.2z M395.1,461.8h-2.6v4.2
			h2.6c1.4,0,2.4-0.6,2.4-2.1C397.5,462.4,396.6,461.8,395.1,461.8z"/>
		<path class="st2" d="M406.9,471h-1.2l-0.2-1h-0.1c-0.4,0.7-1.3,1.2-2.5,1.2c-1.8,0-2.8-1-2.8-2.4c0-1.5,1.2-2.5,3.4-2.5
			c0.7,0,1.3,0.1,1.7,0.3v-0.3c0-1.1-0.7-1.6-2-1.6c-1.1,0-2,0.6-2,0.6l-0.6-1.3c0,0,1.1-0.7,2.9-0.7c2.3,0,3.4,1.2,3.4,3.1V471z
			 M405.2,468.3v-0.6c-0.3-0.1-0.7-0.3-1.5-0.3c-1.3,0-1.9,0.5-1.9,1.3c0,0.7,0.6,1.2,1.5,1.2C404.3,469.9,405.1,469.2,405.2,468.3z
			"/>
		<path class="st2" d="M413,464.9h-0.4c-1,0-1.8,0.8-1.9,1.9v4.2h-1.8v-7.6h1.2l0.2,1.2h0.1c0.4-0.8,1.2-1.2,2.2-1.2h0.4V464.9z"/>
		<path class="st2" d="M420.5,471h-1.2l-0.2-1h-0.1c-0.4,0.7-1.3,1.2-2.5,1.2c-1.8,0-2.8-1-2.8-2.4c0-1.5,1.2-2.5,3.4-2.5
			c0.7,0,1.3,0.1,1.7,0.3v-0.3c0-1.1-0.7-1.6-2-1.6c-1.1,0-2,0.6-2,0.6l-0.6-1.3c0,0,1.1-0.7,2.9-0.7c2.3,0,3.4,1.2,3.4,3.1V471z
			 M418.8,468.3v-0.6c-0.3-0.1-0.7-0.3-1.5-0.3c-1.3,0-1.9,0.5-1.9,1.3c0,0.7,0.6,1.2,1.5,1.2C417.9,469.9,418.7,469.2,418.8,468.3z
			"/>
		<path class="st2" d="M428.4,464.8L428.4,464.8c0,0,0.3,0.3,0.3,1.2c0,1.2-1,2.5-3.1,2.5c-0.6,0-1.2-0.1-1.6-0.3
			c-0.3,0.2-0.4,0.3-0.4,0.6c0,0.4,0.3,0.7,2.3,0.8c2.8,0.1,3.7,0.8,3.7,2.3c0,1.3-1.3,2.5-3.9,2.5c-2.6,0-3.7-0.9-3.7-2.1
			c0-0.7,0.3-1.3,1.2-1.7c-0.9-0.4-1.1-0.9-1.1-1.6c0-0.6,0.3-1.1,1-1.4c-0.4-0.4-0.5-1-0.5-1.5c0-1.5,1.1-2.6,3.1-2.6
			c0.4,0,0.8,0.1,1.1,0.1h2.7v1.4H428.4z M424.7,470.9c-0.7,0.3-1.1,0.7-1.1,1.2c0,0.6,0.6,1,2,1c1.5,0,2.2-0.5,2.2-1.1
			c0-0.5-0.4-1-1.9-1C425.5,471,425.1,470.9,424.7,470.9z M424.1,465.9c0,0.8,0.6,1.4,1.5,1.4c1,0,1.5-0.6,1.5-1.4
			c0-0.7-0.6-1.4-1.5-1.4C424.7,464.5,424.1,465.2,424.1,465.9z"/>
		<path class="st2" d="M435,464.9h-0.4c-1,0-1.8,0.8-1.9,1.9v4.2H431v-7.6h1.2l0.2,1.2h0.1c0.4-0.8,1.2-1.2,2.2-1.2h0.4V464.9z"/>
		<path class="st2" d="M442.5,471h-1.2l-0.2-1H441c-0.4,0.7-1.3,1.2-2.5,1.2c-1.8,0-2.8-1-2.8-2.4c0-1.5,1.2-2.5,3.4-2.5
			c0.7,0,1.3,0.1,1.7,0.3v-0.3c0-1.1-0.7-1.6-2-1.6c-1.1,0-2,0.6-2,0.6l-0.6-1.3c0,0,1.1-0.7,2.9-0.7c2.3,0,3.4,1.2,3.4,3.1V471z
			 M440.8,468.3v-0.6c-0.3-0.1-0.7-0.3-1.5-0.3c-1.3,0-1.9,0.5-1.9,1.3c0,0.7,0.6,1.2,1.5,1.2C440,469.9,440.8,469.2,440.8,468.3z"
			/>
		<path class="st2" d="M446.3,470.1v3.7h-1.8v-10.4h1.2l0.3,1.1h0.1c0,0,0.7-1.3,2.6-1.3c2,0,3.5,1.5,3.5,4c0,2.4-1.5,4-3.5,4
			C446.9,471.2,446.4,470.1,446.3,470.1L446.3,470.1z M448.4,469.7c1.2,0,2.1-1,2.1-2.5c0-1.5-0.9-2.5-2.1-2.5c-1.2,0-2.1,1-2.1,2.5
			C446.3,468.8,447.2,469.7,448.4,469.7z"/>
		<path class="st2" d="M454,460.1h1.8v4.1h0.1c0.5-0.6,1.2-0.9,2.2-0.9c1.9,0,3.1,1.4,3.1,3.4v4.3h-1.8v-4.2c0-1.2-0.6-2.1-1.8-2.1
			c-1.2,0-1.8,1-1.8,1.9v4.4H454V460.1z"/>
	</g>
</g>
<g id="XMLID_28_">
	<path id="XMLID_30_" class="st5" d="M604,411h-76c-6.6,0-12-5.4-12-12v-26c0-6.6,5.4-12,12-12h76c6.6,0,12,5.4,12,12v26
		C616,405.6,610.6,411,604,411z"/>
	<g id="XMLID_29_" class="st1">
		<path class="st2" d="M540.4,388.6c0,0,1.3,1,3.1,1c1.5,0,2.1-0.6,2.1-1.5c0-0.8-0.5-1.2-2.4-1.8c-2.4-0.7-3.6-1.5-3.6-3.2
			c0-1.9,1.4-3.1,4-3.1c2.7,0,3.8,1.1,3.8,1.1l-1,1.5c0,0-1-0.9-2.8-0.9c-1.2,0-2,0.5-2,1.4c0,0.7,0.6,1.1,2.4,1.6
			c2.6,0.7,3.7,1.7,3.7,3.4c0,1.8-1.3,3.3-4,3.3c-2.8,0-4.1-1.4-4.1-1.4L540.4,388.6z"/>
		<path class="st2" d="M551.4,393.8h-1.8l1.5-3.3l-3.2-7.1h1.9l1.9,4.9c0.1,0.2,0.1,0.4,0.1,0.6h0.1c0-0.2,0.1-0.4,0.1-0.6l1.9-4.9
			h1.8L551.4,393.8z"/>
		<path class="st2" d="M557.1,383.4h1.2l0.2,1.1h0.1c0.6-0.8,1.3-1.3,2.5-1.3c1.2,0,2.2,0.5,2.7,1.4h0.1c0.5-0.8,1.2-1.4,2.6-1.4
			c2,0,3.1,1.4,3.1,3.4v4.3h-1.8v-4.2c0-1.2-0.6-2.1-1.8-2.1c-1.2,0-1.7,0.9-1.8,1.7v4.5h-1.8v-4.4c0-1.1-0.6-1.9-1.8-1.9
			c-1.2,0-1.7,0.9-1.8,1.7v4.5h-1.8V383.4z"/>
		<path class="st2" d="M571.6,380.1h1.8v4.3h0.1c0,0,0.5-1.2,2.4-1.2c1.9,0,3.5,1.6,3.5,4c0,2.4-1.5,4-3.5,4c-2,0-2.6-1.4-2.6-1.4
			h-0.1l-0.3,1.2h-1.2V380.1z M575.4,389.7c1.2,0,2.1-1,2.1-2.5c0-1.5-0.9-2.5-2.1-2.5s-2.1,0.9-2.1,2.5
			C573.3,388.8,574.2,389.7,575.4,389.7z"/>
		<path class="st2" d="M584.4,391.2c-2.1,0-3.9-1.5-3.9-3.9c0-2.4,1.7-4,3.9-4s3.9,1.6,3.9,4C588.3,389.6,586.6,391.2,584.4,391.2z
			 M586.6,387.2c0-1.6-1-2.6-2.2-2.6c-1.2,0-2.2,1-2.2,2.6c0,1.6,1,2.5,2.2,2.5C585.6,389.8,586.6,388.8,586.6,387.2z"/>
		<path class="st2" d="M590,380.1h1.8V391H590V380.1z"/>
	</g>
</g>
<g id="XMLID_25_">
	<path id="XMLID_27_" class="st5" d="M614,451h-76c-6.6,0-12-5.4-12-12v-26c0-6.6,5.4-12,12-12h76c6.6,0,12,5.4,12,12v26
		C626,445.6,620.6,451,614,451z"/>
	<g id="XMLID_26_" class="st1">
		<path class="st2" d="M528.8,420.2h1.9l3.4,8.8l3.5-8.8h1.9L535,431h-1.8L528.8,420.2z"/>
		<path class="st2" d="M545.7,430.3c0,0-0.9,0.9-2.8,0.9c-2.5,0-4-1.7-4-4c0-2.3,1.5-4,3.7-4c2.2,0,3.4,1.6,3.4,3.8
			c0,0.2,0,0.5,0,0.5h-5.4c0.1,1.5,1,2.3,2.3,2.3c1.3,0,2-0.7,2-0.7L545.7,430.3z M540.8,426.3h3.5c-0.1-1.1-0.7-1.7-1.7-1.7
			C541.7,424.6,541,425.2,540.8,426.3z"/>
		<path class="st2" d="M547.3,427.2c0-2.3,1.6-4,3.9-4c1.6,0,2.3,0.7,2.3,0.7l-0.5,1.3c0,0-0.7-0.5-1.7-0.5c-1.3,0-2.2,0.9-2.2,2.5
			c0,1.6,1,2.5,2.2,2.5c1,0,1.7-0.5,1.7-0.5l0.5,1.3c0,0-0.7,0.7-2.3,0.7C548.8,431.2,547.3,429.5,547.3,427.2z"/>
		<path class="st2" d="M555.6,423.4v-2.3h1.8v2.3h2v1.4h-2v3.8c0,0.6,0.3,1,1,1c0.5,0,0.9-0.3,0.9-0.3l0.5,1.2
			c-0.2,0.1-0.9,0.6-1.8,0.6c-1.7,0-2.4-1-2.4-2.5v-3.9h-1.3v-1.4H555.6z"/>
		<path class="st2" d="M564.4,431.2c-2.1,0-3.9-1.5-3.9-3.9c0-2.4,1.7-4,3.9-4s3.9,1.6,3.9,4C568.3,429.6,566.6,431.2,564.4,431.2z
			 M566.6,427.2c0-1.6-1-2.6-2.2-2.6s-2.2,1-2.2,2.6c0,1.6,1,2.5,2.2,2.5S566.6,428.8,566.6,427.2z"/>
		<path class="st2" d="M574,424.9h-0.4c-1,0-1.8,0.8-1.9,1.9v4.2H570v-7.6h1.2l0.2,1.2h0.1c0.4-0.8,1.2-1.2,2.2-1.2h0.4V424.9z"/>
		<path class="st2" d="M580.9,431h-1.8v-10.8h1.8V431z"/>
		<path class="st2" d="M583.3,423.4h1.2l0.2,1.1h0.1c0.6-0.8,1.3-1.3,2.5-1.3s2.2,0.5,2.7,1.4h0.1c0.5-0.8,1.2-1.4,2.6-1.4
			c2,0,3.1,1.4,3.1,3.4v4.3H594v-4.2c0-1.2-0.6-2.1-1.8-2.1c-1.2,0-1.7,0.9-1.8,1.7v4.5h-1.8v-4.4c0-1.1-0.6-1.9-1.8-1.9
			c-1.2,0-1.7,0.9-1.8,1.7v4.5h-1.8V423.4z"/>
		<path class="st2" d="M604.1,431h-1.2l-0.2-1h-0.1c-0.4,0.7-1.3,1.2-2.5,1.2c-1.8,0-2.8-1-2.8-2.4c0-1.5,1.2-2.5,3.4-2.5
			c0.7,0,1.3,0.1,1.7,0.3v-0.3c0-1.1-0.7-1.6-2-1.6c-1.1,0-2,0.6-2,0.6l-0.6-1.3c0,0,1.1-0.7,2.9-0.7c2.3,0,3.4,1.2,3.4,3.1V431z
			 M602.4,428.3v-0.6c-0.3-0.1-0.7-0.3-1.5-0.3c-1.3,0-1.9,0.5-1.9,1.3c0,0.7,0.6,1.2,1.5,1.2C601.5,429.9,602.4,429.2,602.4,428.3z
			"/>
		<path class="st2" d="M612,424.8L612,424.8c0,0,0.3,0.3,0.3,1.2c0,1.2-1,2.5-3.1,2.5c-0.6,0-1.2-0.1-1.6-0.3
			c-0.3,0.2-0.4,0.3-0.4,0.6c0,0.4,0.3,0.7,2.3,0.8c2.8,0.1,3.7,0.8,3.7,2.3c0,1.3-1.4,2.5-3.9,2.5c-2.6,0-3.7-0.9-3.7-2.1
			c0-0.7,0.3-1.3,1.2-1.7c-0.9-0.4-1.1-0.9-1.1-1.6c0-0.6,0.3-1.1,1-1.4c-0.4-0.4-0.5-1-0.5-1.5c0-1.5,1.1-2.6,3.1-2.6
			c0.4,0,0.8,0.1,1.1,0.1h2.7v1.4H612z M608.4,430.9c-0.7,0.3-1.1,0.7-1.1,1.2c0,0.6,0.6,1,2,1c1.5,0,2.2-0.5,2.2-1.1
			c0-0.5-0.4-1-1.9-1C609.1,431,608.7,430.9,608.4,430.9z M607.8,425.9c0,0.8,0.6,1.4,1.5,1.4c1,0,1.5-0.6,1.5-1.4
			c0-0.7-0.6-1.4-1.5-1.4C608.3,424.5,607.8,425.2,607.8,425.9z"/>
		<path class="st2" d="M620.8,430.3c0,0-0.9,0.9-2.8,0.9c-2.5,0-4-1.7-4-4c0-2.3,1.5-4,3.7-4c2.2,0,3.4,1.6,3.4,3.8
			c0,0.2,0,0.5,0,0.5h-5.4c0.1,1.5,1,2.3,2.3,2.3c1.3,0,2-0.7,2-0.7L620.8,430.3z M615.9,426.3h3.5c-0.1-1.1-0.7-1.7-1.7-1.7
			C616.7,424.6,616.1,425.2,615.9,426.3z"/>
	</g>
</g>
<g id="XMLID_22_">
	<path id="XMLID_24_" class="st5" d="M624,491h-76c-6.6,0-12-5.4-12-12v-26c0-6.6,5.4-12,12-12h76c6.6,0,12,5.4,12,12v26
		C636,485.6,630.6,491,624,491z"/>
	<g id="XMLID_23_" class="st1">
		<path class="st2" d="M546.1,460.2h4.4c2.5,0,4.1,1.4,4.1,3.6c0,2.4-1.7,3.7-4.2,3.7h-2.6v3.5h-1.8V460.2z M550.4,461.8h-2.6v4.2
			h2.6c1.4,0,2.4-0.6,2.4-2.1C552.8,462.4,551.9,461.8,550.4,461.8z"/>
		<path class="st2" d="M556,461c0-0.6,0.5-1.1,1.1-1.1c0.6,0,1.1,0.5,1.1,1.1c0,0.6-0.5,1.1-1.1,1.1C556.5,462.1,556,461.6,556,461z
			 M556.2,463.4h1.8v7.6h-1.8V463.4z"/>
		<path class="st2" d="M562,467.1l-2.5-3.7h2l1.6,2.6h0.1l1.6-2.6h2l-2.6,3.7l2.8,3.9h-2l-1.7-2.8h-0.1l-1.8,2.8h-2L562,467.1z"/>
		<path class="st2" d="M574.1,470.3c0,0-0.9,0.9-2.8,0.9c-2.5,0-4-1.7-4-4c0-2.3,1.5-4,3.7-4c2.2,0,3.4,1.6,3.4,3.8
			c0,0.2,0,0.5,0,0.5h-5.4c0.1,1.5,1,2.3,2.3,2.3c1.3,0,2-0.7,2-0.7L574.1,470.3z M569.2,466.3h3.5c-0.1-1.1-0.7-1.7-1.7-1.7
			C570.1,464.6,569.4,465.2,569.2,466.3z"/>
		<path class="st2" d="M576.2,460.1h1.8V471h-1.8V460.1z"/>
		<path class="st2" d="M586,471h-1.8v-10.8h1.8V471z"/>
		<path class="st2" d="M588.4,463.4h1.2l0.2,1.1h0.1c0.6-0.8,1.3-1.3,2.5-1.3c1.2,0,2.2,0.5,2.7,1.4h0.1c0.5-0.8,1.2-1.4,2.6-1.4
			c2,0,3.1,1.4,3.1,3.4v4.3h-1.8v-4.2c0-1.2-0.6-2.1-1.8-2.1c-1.2,0-1.7,0.9-1.8,1.7v4.5h-1.8v-4.4c0-1.1-0.6-1.9-1.8-1.9
			c-1.2,0-1.7,0.9-1.8,1.7v4.5h-1.8V463.4z"/>
		<path class="st2" d="M609.2,471H608l-0.2-1h-0.1c-0.4,0.7-1.3,1.2-2.5,1.2c-1.8,0-2.8-1-2.8-2.4c0-1.5,1.2-2.5,3.4-2.5
			c0.7,0,1.3,0.1,1.7,0.3v-0.3c0-1.1-0.7-1.6-2-1.6c-1.1,0-2,0.6-2,0.6l-0.6-1.3c0,0,1.1-0.7,2.9-0.7c2.3,0,3.4,1.2,3.4,3.1V471z
			 M607.5,468.3v-0.6c-0.3-0.1-0.7-0.3-1.5-0.3c-1.3,0-1.9,0.5-1.9,1.3c0,0.7,0.6,1.2,1.5,1.2C606.7,469.9,607.5,469.2,607.5,468.3z
			"/>
		<path class="st2" d="M617.2,464.8L617.2,464.8c0,0,0.3,0.3,0.3,1.2c0,1.2-1,2.5-3.1,2.5c-0.6,0-1.2-0.1-1.6-0.3
			c-0.3,0.2-0.4,0.3-0.4,0.6c0,0.4,0.3,0.7,2.3,0.8c2.8,0.1,3.7,0.8,3.7,2.3c0,1.3-1.4,2.5-3.9,2.5c-2.6,0-3.7-0.9-3.7-2.1
			c0-0.7,0.3-1.3,1.2-1.7c-0.9-0.4-1.1-0.9-1.1-1.6c0-0.6,0.3-1.1,1-1.4c-0.4-0.4-0.5-1-0.5-1.5c0-1.5,1.1-2.6,3.1-2.6
			c0.4,0,0.8,0.1,1.1,0.1h2.7v1.4H617.2z M613.5,470.9c-0.7,0.3-1.1,0.7-1.1,1.2c0,0.6,0.6,1,2,1c1.5,0,2.2-0.5,2.2-1.1
			c0-0.5-0.4-1-1.9-1C614.2,471,613.9,470.9,613.5,470.9z M612.9,465.9c0,0.8,0.6,1.4,1.5,1.4c1,0,1.5-0.6,1.5-1.4
			c0-0.7-0.6-1.4-1.5-1.4C613.5,464.5,612.9,465.2,612.9,465.9z"/>
		<path class="st2" d="M625.9,470.3c0,0-0.9,0.9-2.8,0.9c-2.5,0-4-1.7-4-4c0-2.3,1.5-4,3.7-4c2.2,0,3.4,1.6,3.4,3.8
			c0,0.2,0,0.5,0,0.5h-5.4c0.1,1.5,1,2.3,2.3,2.3c1.3,0,2-0.7,2-0.7L625.9,470.3z M621,466.3h3.5c-0.1-1.1-0.7-1.7-1.7-1.7
			C621.9,464.6,621.2,465.2,621,466.3z"/>
	</g>
</g>
<g id="XMLID_37_">
	<path id="XMLID_39_" class="st5" d="M764,411h-76c-6.6,0-12-5.4-12-12v-26c0-6.6,5.4-12,12-12h76c6.6,0,12,5.4,12,12v26
		C776,405.6,770.6,411,764,411z"/>
	<g id="XMLID_38_" class="st1">
		<path class="st2" d="M689.6,380.2h1.9l3.4,8.8l3.5-8.8h1.9l-4.4,10.8H694L689.6,380.2z"/>
		<path class="st2" d="M706.6,391h-1.2l-0.2-1h-0.1c-0.4,0.7-1.3,1.2-2.5,1.2c-1.8,0-2.8-1-2.8-2.4c0-1.5,1.2-2.5,3.4-2.5
			c0.7,0,1.3,0.1,1.7,0.3v-0.3c0-1.1-0.7-1.6-2-1.6c-1.1,0-2,0.6-2,0.6l-0.6-1.3c0,0,1.1-0.7,2.9-0.7c2.3,0,3.4,1.2,3.4,3.1V391z
			 M704.9,388.3v-0.6c-0.3-0.1-0.7-0.3-1.5-0.3c-1.3,0-1.9,0.5-1.9,1.3c0,0.7,0.6,1.2,1.5,1.2C704,389.9,704.9,389.2,704.9,388.3z"
			/>
		<path class="st2" d="M708.7,380.1h1.8V391h-1.8V380.1z"/>
		<path class="st2" d="M712.5,381c0-0.6,0.5-1.1,1.1-1.1c0.6,0,1.1,0.5,1.1,1.1c0,0.6-0.5,1.1-1.1,1.1
			C713,382.1,712.5,381.6,712.5,381z M712.7,383.4h1.8v7.6h-1.8V383.4z"/>
		<path class="st2" d="M722.1,384.3v-4.2h1.8V391h-1.2l-0.3-1.1h-0.1c0,0-0.6,1.3-2.6,1.3c-2,0-3.5-1.5-3.5-4c0-2.4,1.5-4,3.5-4
			C721.5,383.3,722,384.3,722.1,384.3L722.1,384.3z M720.1,384.7c-1.2,0-2.1,1-2.1,2.5c0,1.5,0.9,2.5,2.1,2.5c1.2,0,2.1-1,2.1-2.5
			C722.2,385.7,721.3,384.7,720.1,384.7z"/>
		<path class="st2" d="M732.3,391h-1.2l-0.2-1h-0.1c-0.4,0.7-1.3,1.2-2.5,1.2c-1.8,0-2.8-1-2.8-2.4c0-1.5,1.2-2.5,3.4-2.5
			c0.7,0,1.3,0.1,1.7,0.3v-0.3c0-1.1-0.7-1.6-2-1.6c-1.1,0-2,0.6-2,0.6l-0.6-1.3c0,0,1.1-0.7,2.9-0.7c2.3,0,3.4,1.2,3.4,3.1V391z
			 M730.6,388.3v-0.6c-0.3-0.1-0.7-0.3-1.5-0.3c-1.3,0-1.9,0.5-1.9,1.3c0,0.7,0.6,1.2,1.5,1.2C729.8,389.9,730.6,389.2,730.6,388.3z
			"/>
		<path class="st2" d="M734.9,383.4v-2.3h1.8v2.3h2v1.4h-2v3.8c0,0.6,0.3,1,1,1c0.5,0,0.9-0.3,0.9-0.3l0.5,1.2
			c-0.2,0.1-0.9,0.6-1.8,0.6c-1.7,0-2.4-1-2.4-2.5v-3.9h-1.4v-1.4H734.9z"/>
		<path class="st2" d="M740.1,381c0-0.6,0.5-1.1,1.1-1.1c0.6,0,1.1,0.5,1.1,1.1c0,0.6-0.5,1.1-1.1,1.1
			C740.6,382.1,740.1,381.6,740.1,381z M740.3,383.4h1.8v7.6h-1.8V383.4z"/>
		<path class="st2" d="M747.7,391.2c-2.1,0-3.9-1.5-3.9-3.9c0-2.4,1.7-4,3.9-4s3.9,1.6,3.9,4C751.6,389.6,749.9,391.2,747.7,391.2z
			 M749.9,387.2c0-1.6-1-2.6-2.2-2.6c-1.2,0-2.2,1-2.2,2.6c0,1.6,1,2.5,2.2,2.5C748.9,389.8,749.9,388.8,749.9,387.2z"/>
		<path class="st2" d="M753.3,383.4h1.2l0.2,1.1h0.1c0.5-0.8,1.3-1.3,2.5-1.3c2,0,3.2,1.4,3.2,3.4v4.3h-1.8v-4.2
			c0-1.2-0.6-2.1-1.8-2.1c-1.2,0-1.8,0.9-1.8,1.7v4.5h-1.8V383.4z"/>
	</g>
</g>
<g id="XMLID_34_">
	<path id="XMLID_36_" class="st5" d="M774,451h-76c-6.6,0-12-5.4-12-12v-26c0-6.6,5.4-12,12-12h76c6.6,0,12,5.4,12,12v26
		C786,445.6,780.6,451,774,451z"/>
	<g id="XMLID_35_" class="st1">
		<path class="st2" d="M711.4,428.6c0,0,1.3,1,3.1,1c1.5,0,2.1-0.6,2.1-1.5c0-0.8-0.5-1.2-2.4-1.8c-2.4-0.7-3.6-1.5-3.6-3.2
			c0-1.9,1.4-3.1,4-3.1c2.7,0,3.8,1.1,3.8,1.1l-1,1.5c0,0-1-0.9-2.8-0.9c-1.2,0-2,0.5-2,1.4c0,0.7,0.6,1.1,2.4,1.6
			c2.6,0.7,3.7,1.7,3.7,3.4c0,1.8-1.3,3.3-4,3.3c-2.8,0-4.1-1.4-4.1-1.4L711.4,428.6z"/>
		<path class="st2" d="M725.4,423.4h1.8v7.6H726l-0.3-1h-0.1c-0.3,0.4-1,1.2-2.5,1.2c-2,0-3.1-1.4-3.1-3.4v-4.3h1.8v4.2
			c0,1.2,0.6,2.1,1.7,2.1c1.3,0,1.9-1.1,1.9-1.8V423.4z"/>
		<path class="st2" d="M729.3,420.1h1.8v4.3h0.1c0,0,0.5-1.2,2.4-1.2c1.9,0,3.5,1.6,3.5,4c0,2.4-1.5,4-3.5,4c-2,0-2.6-1.4-2.6-1.4
			h-0.1l-0.3,1.2h-1.2V420.1z M733.1,429.7c1.2,0,2.1-1,2.1-2.5c0-1.5-0.9-2.5-2.1-2.5c-1.2,0-2.1,0.9-2.1,2.5
			C731,428.8,731.9,429.7,733.1,429.7z"/>
		<path class="st2" d="M738.7,423.4h1.2l0.2,1.1h0.1c0.6-0.8,1.3-1.3,2.5-1.3s2.2,0.5,2.7,1.4h0.1c0.5-0.8,1.2-1.4,2.6-1.4
			c2,0,3.1,1.4,3.1,3.4v4.3h-1.8v-4.2c0-1.2-0.6-2.1-1.8-2.1c-1.2,0-1.7,0.9-1.8,1.7v4.5H744v-4.4c0-1.1-0.6-1.9-1.8-1.9
			c-1.2,0-1.7,0.9-1.8,1.7v4.5h-1.8V423.4z"/>
		<path class="st2" d="M753,421c0-0.6,0.5-1.1,1.1-1.1c0.6,0,1.1,0.5,1.1,1.1c0,0.6-0.5,1.1-1.1,1.1C753.5,422.1,753,421.6,753,421z
			 M753.2,423.4h1.8v7.6h-1.8V423.4z"/>
		<path class="st2" d="M757.7,423.4v-2.3h1.8v2.3h2v1.4h-2v3.8c0,0.6,0.3,1,1,1c0.5,0,0.9-0.3,0.9-0.3l0.5,1.2
			c-0.2,0.1-0.9,0.6-1.8,0.6c-1.7,0-2.4-1-2.4-2.5v-3.9h-1.4v-1.4H757.7z"/>
	</g>
</g>
<g id="XMLID_31_">
	<path id="XMLID_33_" class="st5" d="M784,491h-76c-6.6,0-12-5.4-12-12v-26c0-6.6,5.4-12,12-12h76c6.6,0,12,5.4,12,12v26
		C796,485.6,790.6,491,784,491z"/>
	<g id="XMLID_32_" class="st1">
		<path class="st2" d="M730,471h-1.8v-10.8h1.8V471z"/>
		<path class="st2" d="M732.4,463.4h1.2l0.2,1.1h0.1c0.5-0.8,1.3-1.3,2.5-1.3c2,0,3.2,1.4,3.2,3.4v4.3h-1.8v-4.2
			c0-1.2-0.6-2.1-1.8-2.1c-1.2,0-1.8,0.9-1.8,1.7v4.5h-1.8V463.4z"/>
		<path class="st2" d="M743.4,470.1v3.7h-1.8v-10.4h1.2l0.3,1.1h0.1c0,0,0.7-1.3,2.6-1.3c2,0,3.5,1.5,3.5,4c0,2.4-1.5,4-3.5,4
			C744,471.2,743.5,470.1,743.4,470.1L743.4,470.1z M745.5,469.7c1.2,0,2.1-1,2.1-2.5c0-1.5-0.9-2.5-2.1-2.5c-1.2,0-2.1,1-2.1,2.5
			C743.3,468.8,744.3,469.7,745.5,469.7z"/>
		<path class="st2" d="M756.3,463.4h1.8v7.6h-1.2l-0.3-1h-0.1c-0.3,0.4-1,1.2-2.5,1.2c-2,0-3.1-1.4-3.1-3.4v-4.3h1.8v4.2
			c0,1.2,0.6,2.1,1.7,2.1c1.3,0,1.9-1.1,1.9-1.8V463.4z"/>
		<path class="st2" d="M760.8,463.4v-2.3h1.8v2.3h2v1.4h-2v3.8c0,0.6,0.3,1,1,1c0.5,0,0.9-0.3,0.9-0.3l0.5,1.2
			c-0.2,0.1-0.9,0.6-1.8,0.6c-1.7,0-2.4-1-2.4-2.5v-3.9h-1.3v-1.4H760.8z"/>
	</g>
</g>
<g id="XMLID_52_">
	<path id="XMLID_72_" class="st6" d="M834,51H308c-6.6,0-12,5.4-12,12v456c0,6.6,5.4,12,12,12h526c6.6,0,12-5.4,12-12V63
		C846,56.4,840.6,51,834,51z"/>
</g>
<g id="XMLID_53_" class="st1">
	<path class="st7" d="M531.2,34.6h-4.6v-2.1h7.2V34c0,4.4-2.6,7.3-6.9,7.3c-4.6,0-7.5-3.5-7.5-7.8c0-4.4,2.9-7.8,7.5-7.8
		c3.7,0,5.3,1.9,5.3,1.9l-1.5,1.9c0,0-1.4-1.5-3.9-1.5c-3,0-5,2.4-5,5.5c0,3.1,1.9,5.4,4.9,5.4C529.5,39,531.2,37.2,531.2,34.6
		L531.2,34.6z"/>
	<path class="st7" d="M543.3,30.5h2.4V41h-1.6l-0.4-1.4h-0.1c-0.4,0.5-1.3,1.7-3.4,1.7c-2.7,0-4.3-1.9-4.3-4.7v-6h2.4v5.8
		c0,1.7,0.8,2.9,2.4,2.9c1.8,0,2.6-1.5,2.6-2.5V30.5z"/>
	<path class="st7" d="M549.5,30.5v-3.2h2.4v3.2h2.8v1.9h-2.8v5.3c0,0.9,0.4,1.4,1.3,1.4c0.7,0,1.3-0.4,1.3-0.4l0.7,1.7
		c-0.2,0.2-1.2,0.8-2.5,0.8c-2.3,0-3.3-1.4-3.3-3.4v-5.4h-1.9v-1.9H549.5z"/>
	<path class="st7" d="M565.7,40c0,0-1.2,1.2-3.8,1.2c-3.4,0-5.5-2.3-5.5-5.5c0-3.2,2-5.5,5.1-5.5c3,0,4.8,2.2,4.8,5.2
		c0,0.2,0,0.6,0,0.6h-7.4c0.2,2.1,1.4,3.2,3.2,3.2c1.8,0,2.8-0.9,2.8-0.9L565.7,40z M558.8,34.5h4.9c-0.2-1.5-1-2.3-2.4-2.3
		C560,32.2,559.1,32.9,558.8,34.5z"/>
	<path class="st7" d="M568.5,30.5h1.6l0.3,1.5h0.1c0.8-1.1,1.8-1.7,3.5-1.7c2.7,0,4.4,1.9,4.4,4.7v6H576v-5.8c0-1.6-0.9-2.8-2.5-2.8
		c-1.6,0-2.5,1.3-2.5,2.4V41h-2.4V30.5z"/>
	<path class="st7" d="M581.3,25.9h2.4v6h0.1c0,0,0.7-1.6,3.3-1.6c2.7,0,4.8,2.2,4.8,5.5c0,3.3-2.1,5.5-4.9,5.5
		c-2.8,0-3.6-1.9-3.6-1.9h-0.1L583,41h-1.7V25.9z M586.6,39.2c1.7,0,2.9-1.5,2.9-3.5c0-2-1.2-3.5-2.9-3.5c-1.7,0-2.9,1.3-2.9,3.5
		C583.6,37.9,584.9,39.2,586.6,39.2z"/>
	<path class="st7" d="M603,40c0,0-1.2,1.2-3.8,1.2c-3.4,0-5.5-2.3-5.5-5.5c0-3.2,2-5.5,5.1-5.5c3,0,4.8,2.2,4.8,5.2
		c0,0.2,0,0.6,0,0.6h-7.4c0.2,2.1,1.4,3.2,3.2,3.2c1.8,0,2.8-0.9,2.8-0.9L603,40z M596.2,34.5h4.9c-0.2-1.5-1-2.3-2.4-2.3
		C597.4,32.2,596.4,32.9,596.2,34.5z"/>
	<path class="st7" d="M611.4,32.5h-0.6c-1.4,0-2.5,1-2.6,2.6V41h-2.4V30.5h1.6l0.3,1.7h0.1c0.5-1.1,1.6-1.7,3-1.7h0.6V32.5z"/>
	<path class="st7" d="M621.1,32.4L621.1,32.4c0,0,0.5,0.4,0.5,1.7c0,1.7-1.4,3.4-4.3,3.4c-0.9,0-1.6-0.2-2.2-0.4
		c-0.5,0.2-0.6,0.5-0.6,0.8c0,0.5,0.3,1,3.2,1.1c3.9,0.2,5.1,1.2,5.1,3.1c0,1.8-1.9,3.5-5.4,3.5c-3.6,0-5.1-1.2-5.1-2.9
		c0-0.9,0.4-1.8,1.7-2.4c-1.2-0.5-1.6-1.3-1.6-2.2c0-0.8,0.4-1.5,1.4-2c-0.5-0.6-0.8-1.3-0.8-2.1c0-2,1.5-3.7,4.2-3.7
		c0.6,0,1.1,0.1,1.6,0.2h3.7v1.9H621.1z M616,40.8c-1,0.4-1.5,1-1.5,1.7c0,0.8,0.8,1.4,2.7,1.4c2,0,3-0.7,3-1.6
		c0-0.7-0.6-1.4-2.7-1.4C617,41,616.5,40.9,616,40.8z M615.2,33.9c0,1.1,0.8,1.9,2.1,1.9c1.3,0,2.1-0.8,2.1-1.9c0-1-0.8-1.9-2.1-1.9
		C616,32,615.2,32.9,615.2,33.9z"/>
</g>
<g id="XMLID_55_">
	<g id="XMLID_67_">
		<line id="XMLID_70_" class="st8" x1="571" y1="226" x2="571" y2="190.4"/>
		<g id="XMLID_68_">
			<polygon id="XMLID_69_" class="st4" points="581,193.3 571,176 561,193.3 			"/>
		</g>
	</g>
</g>
<g id="XMLID_56_">
	<g id="XMLID_77_">
		<polyline id="XMLID_85_" class="st8" points="411,226 411,206 546,206 546,190.4 		"/>
		<g id="XMLID_83_">
			<polygon id="XMLID_84_" class="st4" points="556,193.3 546,176 536,193.3 			"/>
		</g>
	</g>
</g>
<g id="XMLID_54_">
	<g id="XMLID_79_">
		<polyline id="XMLID_82_" class="st8" points="731,226 731,206 596,206 596,190.4 		"/>
		<g id="XMLID_80_">
			<polygon id="XMLID_81_" class="st4" points="606,193.3 596,176 586,193.3 			"/>
		</g>
	</g>
</g>
<g id="XMLID_59_">
	<g id="XMLID_111_">
		<line id="XMLID_114_" class="st8" x1="566" y1="345.5" x2="566" y2="317"/>
		<g id="XMLID_112_">
			<polygon id="XMLID_113_" class="st4" points="574,343.2 566,357 558,343.2 			"/>
		</g>
	</g>
</g>
<g id="XMLID_60_">
	<g id="XMLID_106_">
		<line id="XMLID_109_" class="st8" x1="406" y1="345.5" x2="406" y2="317"/>
		<g id="XMLID_107_">
			<polygon id="XMLID_108_" class="st4" points="414,343.2 406,357 398,343.2 			"/>
		</g>
	</g>
</g>
<g id="XMLID_74_">
	<g id="XMLID_101_">
		<line id="XMLID_104_" class="st8" x1="726" y1="345.5" x2="726" y2="317"/>
		<g id="XMLID_102_">
			<polygon id="XMLID_103_" class="st4" points="734,343.2 726,357 718,343.2 			"/>
		</g>
	</g>
</g>
</svg>
