<?xml version="1.0" encoding="utf-8"?>
<!-- Generator: Adobe Illustrator 19.0.0, SVG Export Plug-In . SVG Version: 6.00 Build 0)  -->
<svg version="1.1" id="Layer_1" xmlns="http://www.w3.org/2000/svg" xmlns:xlink="http://www.w3.org/1999/xlink" x="0px" y="0px"
	 viewBox="0 0 726.3 351.9" style="enable-background:new 0 0 726.3 351.9;" xml:space="preserve">
<style type="text/css">
	.st0{fill:#CEDDDD;stroke:#96A3A3;stroke-width:4;stroke-miterlimit:10;}
	.st1{fill:#E37E32;}
	.st2{fill:#FFFFFF;}
	.st3{fill:none;stroke:#E37E32;stroke-width:2;stroke-miterlimit:10;stroke-dasharray:5.7067,2.8534;}
	.st4{fill:none;stroke:#333333;stroke-width:2;stroke-miterlimit:10;}
	.st5{fill:none;stroke:#333333;stroke-width:2;stroke-miterlimit:10;stroke-dasharray:6.8127,3.4063;}
	.st6{fill:#333333;}
	.st7{fill:none;stroke:#333333;stroke-width:2;stroke-miterlimit:10;stroke-dasharray:5.8643,2.9321;}
	.st8{fill:none;stroke:#333333;stroke-width:2;stroke-miterlimit:10;stroke-dasharray:6.0994,3.0497;}
	.st9{fill:none;stroke:#333333;stroke-width:2;stroke-miterlimit:10;stroke-dasharray:5.9721,2.9861;}
</style>
<path id="XMLID_1_" class="st0" d="M426.1,77h-126c-6.6,0-12-5.4-12-12V14c0-6.6,5.4-12,12-12h126c6.6,0,12,5.4,12,12v51
	C438.1,71.6,432.7,77,426.1,77z"/>
<path id="XMLID_3_" class="st0" d="M235.4,213.5h-126c-6.6,0-12-5.4-12-12v-51c0-6.6,5.4-12,12-12h126c6.6,0,12,5.4,12,12v51
	C247.4,208.1,242,213.5,235.4,213.5z"/>
<path id="XMLID_4_" class="st0" d="M616.9,213.5h-126c-6.6,0-12-5.4-12-12v-51c0-6.6,5.4-12,12-12h126c6.6,0,12,5.4,12,12v51
	C628.9,208.1,623.5,213.5,616.9,213.5z"/>
<path id="XMLID_5_" class="st0" d="M140,349.9H14c-6.6,0-12-5.4-12-12v-51c0-6.6,5.4-12,12-12h126c6.6,0,12,5.4,12,12v51
	C152,344.5,146.6,349.9,140,349.9z"/>
<path id="XMLID_6_" class="st0" d="M330.8,349.9h-126c-6.6,0-12-5.4-12-12v-51c0-6.6,5.4-12,12-12h126c6.6,0,12,5.4,12,12v51
	C342.8,344.5,337.4,349.9,330.8,349.9z"/>
<path id="XMLID_7_" class="st0" d="M521.5,349.9h-126c-6.6,0-12-5.4-12-12v-51c0-6.6,5.4-12,12-12h126c6.6,0,12,5.4,12,12v51
	C533.5,344.5,528.1,349.9,521.5,349.9z"/>
<path id="XMLID_8_" class="st0" d="M712.3,349.9h-126c-6.6,0-12-5.4-12-12v-51c0-6.6,5.4-12,12-12h126c6.6,0,12,5.4,12,12v51
	C724.3,344.5,718.9,349.9,712.3,349.9z"/>
<g id="XMLID_11_">
	<path id="XMLID_10_" class="st1" d="M318.2,70.1h-15c-4.1,0-7.5-3.4-7.5-7.5v0c0-4.1,3.4-7.5,7.5-7.5h15c4.1,0,7.5,3.4,7.5,7.5v0
		C325.7,66.7,322.4,70.1,318.2,70.1z"/>
	<g id="XMLID_12_">
		<path id="XMLID_228_" class="st2" d="M301,60.9c0-0.6,0-1.1,0-1.6h0.9l0.1,1h0c0.3-0.6,1-1.1,1.9-1.1c0.8,0,2.1,0.5,2.1,2.5v3.5
			h-1.1v-3.3c0-0.9-0.3-1.7-1.3-1.7c-0.7,0-1.2,0.5-1.4,1.1c0,0.1-0.1,0.3-0.1,0.5v3.5H301V60.9z"/>
		<path id="XMLID_230_" class="st2" d="M308.3,62.5c0,1.4,0.9,2,2,2c0.8,0,1.2-0.1,1.6-0.3l0.2,0.8c-0.4,0.2-1,0.4-1.9,0.4
			c-1.8,0-2.9-1.2-2.9-2.9c0-1.8,1-3.1,2.7-3.1c1.9,0,2.4,1.7,2.4,2.7c0,0.2,0,0.4,0,0.5H308.3z M311.4,61.7c0-0.7-0.3-1.7-1.5-1.7
			c-1.1,0-1.5,1-1.6,1.7H311.4z"/>
		<path id="XMLID_233_" class="st2" d="M314.1,59.4l0.8,3c0.2,0.6,0.3,1.2,0.4,1.8h0c0.1-0.6,0.3-1.2,0.5-1.8l0.9-3h0.9l0.9,2.9
			c0.2,0.7,0.4,1.3,0.5,1.9h0c0.1-0.6,0.3-1.2,0.4-1.9l0.8-2.9h1l-1.9,5.8h-1l-0.9-2.8c-0.2-0.6-0.4-1.2-0.5-1.9h0
			c-0.1,0.7-0.3,1.3-0.5,1.9l-0.9,2.8h-1l-1.8-5.8H314.1z"/>
	</g>
</g>
<g id="XMLID_13_">
	<path id="XMLID_15_" class="st1" d="M423.3,70.1h-15c-4.1,0-7.5-3.4-7.5-7.5v0c0-4.1,3.4-7.5,7.5-7.5h15c4.1,0,7.5,3.4,7.5,7.5v0
		C430.8,66.7,427.4,70.1,423.3,70.1z"/>
	<g id="XMLID_14_">
		<path id="XMLID_221_" class="st2" d="M406.1,60.9c0-0.6,0-1.1,0-1.6h0.9l0.1,1h0c0.3-0.6,1-1.1,1.9-1.1c0.8,0,2.1,0.5,2.1,2.5v3.5
			H410v-3.3c0-0.9-0.3-1.7-1.3-1.7c-0.7,0-1.2,0.5-1.4,1.1c0,0.1-0.1,0.3-0.1,0.5v3.5h-1.1V60.9z"/>
		<path id="XMLID_223_" class="st2" d="M413.3,62.5c0,1.4,0.9,2,2,2c0.8,0,1.2-0.1,1.6-0.3l0.2,0.8c-0.4,0.2-1,0.4-1.9,0.4
			c-1.8,0-2.9-1.2-2.9-2.9c0-1.8,1-3.1,2.7-3.1c1.9,0,2.4,1.7,2.4,2.7c0,0.2,0,0.4,0,0.5H413.3z M416.4,61.7c0-0.7-0.3-1.7-1.5-1.7
			c-1.1,0-1.5,1-1.6,1.7H416.4z"/>
		<path id="XMLID_226_" class="st2" d="M419.2,59.4l0.8,3c0.2,0.6,0.3,1.2,0.4,1.8h0c0.1-0.6,0.3-1.2,0.5-1.8l0.9-3h0.9l0.9,2.9
			c0.2,0.7,0.4,1.3,0.5,1.9h0c0.1-0.6,0.3-1.2,0.4-1.9l0.8-2.9h1l-1.9,5.8h-1l-0.9-2.8c-0.2-0.6-0.4-1.2-0.5-1.9h0
			c-0.1,0.7-0.3,1.3-0.5,1.9l-0.9,2.8h-1l-1.8-5.8H419.2z"/>
	</g>
</g>
<g id="XMLID_21_">
	<path id="XMLID_104_" class="st3" d="M127.3,207h-15c-4.1,0-7.5-3.4-7.5-7.5s3.4-7.5,7.5-7.5h15c4.1,0,7.5,3.4,7.5,7.5
		S131.5,207,127.3,207z"/>
</g>
<g id="XMLID_18_">
	<path id="XMLID_102_" class="st3" d="M232.4,207h-15c-4.1,0-7.5-3.4-7.5-7.5s3.4-7.5,7.5-7.5h15c4.1,0,7.5,3.4,7.5,7.5
		S236.5,207,232.4,207z"/>
</g>
<g id="XMLID_27_">
	<path id="XMLID_100_" class="st3" d="M508.9,207.1h-15c-4.1,0-7.5-3.4-7.5-7.5s3.4-7.5,7.5-7.5h15c4.1,0,7.5,3.4,7.5,7.5
		S513,207.1,508.9,207.1z"/>
</g>
<g id="XMLID_24_">
	<path id="XMLID_26_" class="st3" d="M613.9,207.1h-15c-4.1,0-7.5-3.4-7.5-7.5s3.4-7.5,7.5-7.5h15c4.1,0,7.5,3.4,7.5,7.5
		S618,207.1,613.9,207.1z"/>
</g>
<g id="XMLID_28_">
	<g id="XMLID_105_">
		<line id="XMLID_110_" class="st4" x1="296.2" y1="49.9" x2="293.5" y2="51.8"/>
		<line id="XMLID_109_" class="st5" x1="290.8" y1="53.8" x2="192.8" y2="124.7"/>
		<line id="XMLID_108_" class="st4" x1="191.4" y1="125.7" x2="188.8" y2="127.7"/>
		<g id="XMLID_106_">
			<polygon id="XMLID_107_" class="st6" points="186.3,120.8 180.6,133.6 194.5,132.1 			"/>
		</g>
	</g>
</g>
<g id="XMLID_29_">
	<g id="XMLID_56_">
		<line id="XMLID_61_" class="st4" x1="109.3" y1="206.3" x2="107.9" y2="209"/>
		<line id="XMLID_60_" class="st7" x1="106.6" y1="211.6" x2="83.5" y2="257.4"/>
		<line id="XMLID_59_" class="st4" x1="82.9" y1="258.7" x2="81.5" y2="261.4"/>
		<g id="XMLID_57_">
			<polygon id="XMLID_58_" class="st6" points="76.2,256.4 77,270.4 88.7,262.7 			"/>
		</g>
	</g>
</g>
<g id="XMLID_30_">
	<g id="XMLID_32_">
		<line id="XMLID_37_" class="st4" x1="490.8" y1="206.3" x2="489.4" y2="209"/>
		<line id="XMLID_36_" class="st7" x1="488.1" y1="211.6" x2="465" y2="257.4"/>
		<line id="XMLID_35_" class="st4" x1="464.4" y1="258.7" x2="463" y2="261.4"/>
		<g id="XMLID_33_">
			<polygon id="XMLID_34_" class="st6" points="457.7,256.4 458.5,270.4 470.2,262.7 			"/>
		</g>
	</g>
</g>
<g id="XMLID_38_">
	<g id="XMLID_72_">
		<line id="XMLID_77_" class="st4" x1="236.4" y1="206.2" x2="237.8" y2="208.8"/>
		<line id="XMLID_76_" class="st7" x1="239.1" y1="211.5" x2="262.2" y2="257.3"/>
		<line id="XMLID_75_" class="st4" x1="262.8" y1="258.6" x2="264.2" y2="261.3"/>
		<g id="XMLID_73_">
			<polygon id="XMLID_74_" class="st6" points="257,262.6 268.7,270.3 269.5,256.3 			"/>
		</g>
	</g>
</g>
<g id="XMLID_39_">
	<g id="XMLID_62_">
		<line id="XMLID_67_" class="st4" x1="617" y1="206.2" x2="618.3" y2="208.8"/>
		<line id="XMLID_66_" class="st7" x1="619.7" y1="211.5" x2="642.7" y2="257.3"/>
		<line id="XMLID_65_" class="st4" x1="643.4" y1="258.6" x2="644.7" y2="261.3"/>
		<g id="XMLID_63_">
			<polygon id="XMLID_64_" class="st6" points="637.6,262.6 649.3,270.3 650.1,256.3 			"/>
		</g>
	</g>
</g>
<g id="XMLID_96_">
	<path id="XMLID_98_" class="st1" d="M318.1,54.8h-15c-4.1,0-7.5-3.4-7.5-7.5v0c0-4.1,3.4-7.5,7.5-7.5h15c4.1,0,7.5,3.4,7.5,7.5v0
		C325.6,51.4,322.2,54.8,318.1,54.8z"/>
	<g id="XMLID_97_">
		<path id="XMLID_197_" class="st2" d="M300.9,45.6c0-0.6,0-1.1,0-1.6h0.9l0.1,1h0c0.3-0.6,1-1.1,1.9-1.1c0.8,0,2.1,0.5,2.1,2.5v3.5
			h-1.1v-3.3c0-0.9-0.3-1.7-1.3-1.7c-0.7,0-1.2,0.5-1.4,1.1c0,0.1-0.1,0.3-0.1,0.5v3.5h-1.1V45.6z"/>
		<path id="XMLID_199_" class="st2" d="M308.1,47.2c0,1.4,0.9,2,2,2c0.8,0,1.2-0.1,1.6-0.3l0.2,0.8c-0.4,0.2-1,0.4-1.9,0.4
			c-1.8,0-2.9-1.2-2.9-2.9c0-1.8,1-3.1,2.7-3.1c1.9,0,2.4,1.7,2.4,2.7c0,0.2,0,0.4,0,0.5H308.1z M311.2,46.4c0-0.7-0.3-1.7-1.5-1.7
			c-1.1,0-1.5,1-1.6,1.7H311.2z"/>
		<path id="XMLID_202_" class="st2" d="M314,44.1l0.8,3c0.2,0.6,0.3,1.2,0.4,1.8h0c0.1-0.6,0.3-1.2,0.5-1.8l0.9-3h0.9l0.9,2.9
			c0.2,0.7,0.4,1.3,0.5,1.9h0c0.1-0.6,0.3-1.2,0.4-1.9l0.8-2.9h1l-1.9,5.8h-1l-0.9-2.8c-0.2-0.6-0.4-1.2-0.5-1.9h0
			c-0.1,0.7-0.3,1.3-0.5,1.9l-0.9,2.8h-1l-1.8-5.8H314z"/>
	</g>
</g>
<g id="XMLID_93_">
	<path id="XMLID_95_" class="st1" d="M349.7,70.3h-15c-4.1,0-7.5-3.4-7.5-7.5v0c0-4.1,3.4-7.5,7.5-7.5h15c4.1,0,7.5,3.4,7.5,7.5v0
		C357.2,67,353.8,70.3,349.7,70.3z"/>
	<g id="XMLID_94_">
		<path id="XMLID_190_" class="st2" d="M332.5,61.2c0-0.6,0-1.1,0-1.6h0.9l0.1,1h0c0.3-0.6,1-1.1,1.9-1.1c0.8,0,2.1,0.5,2.1,2.5v3.5
			h-1.1v-3.3c0-0.9-0.3-1.7-1.3-1.7c-0.7,0-1.2,0.5-1.4,1.1c0,0.1-0.1,0.3-0.1,0.5v3.5h-1.1V61.2z"/>
		<path id="XMLID_192_" class="st2" d="M339.7,62.7c0,1.4,0.9,2,2,2c0.8,0,1.2-0.1,1.6-0.3l0.2,0.8c-0.4,0.2-1,0.4-1.9,0.4
			c-1.8,0-2.9-1.2-2.9-2.9c0-1.8,1-3.1,2.7-3.1c1.9,0,2.4,1.7,2.4,2.7c0,0.2,0,0.4,0,0.5H339.7z M342.8,62c0-0.7-0.3-1.7-1.5-1.7
			c-1.1,0-1.5,1-1.6,1.7H342.8z"/>
		<path id="XMLID_195_" class="st2" d="M345.6,59.6l0.8,3c0.2,0.6,0.3,1.2,0.4,1.8h0c0.1-0.6,0.3-1.2,0.5-1.8l0.9-3h0.9l0.9,2.9
			c0.2,0.7,0.4,1.3,0.5,1.9h0c0.1-0.6,0.3-1.2,0.4-1.9l0.8-2.9h1l-1.9,5.8h-1l-0.9-2.8c-0.2-0.6-0.4-1.2-0.5-1.9h0
			c-0.1,0.7-0.3,1.3-0.5,1.9l-0.9,2.8h-1l-1.8-5.8H345.6z"/>
	</g>
</g>
<g id="XMLID_90_">
	<path id="XMLID_92_" class="st1" d="M393.2,70.3h-15c-4.1,0-7.5-3.4-7.5-7.5v0c0-4.1,3.4-7.5,7.5-7.5h15c4.1,0,7.5,3.4,7.5,7.5v0
		C400.7,67,397.3,70.3,393.2,70.3z"/>
	<g id="XMLID_91_">
		<path id="XMLID_180_" class="st2" d="M376,61.2c0-0.6,0-1.1,0-1.6h0.9l0.1,1h0c0.3-0.6,1-1.1,1.9-1.1c0.8,0,2.1,0.5,2.1,2.5v3.5
			h-1.1v-3.3c0-0.9-0.3-1.7-1.3-1.7c-0.7,0-1.2,0.5-1.4,1.1c0,0.1-0.1,0.3-0.1,0.5v3.5H376V61.2z"/>
		<path id="XMLID_182_" class="st2" d="M383.2,62.7c0,1.4,0.9,2,2,2c0.8,0,1.2-0.1,1.6-0.3l0.2,0.8c-0.4,0.2-1,0.4-1.9,0.4
			c-1.8,0-2.9-1.2-2.9-2.9c0-1.8,1-3.1,2.7-3.1c1.9,0,2.4,1.7,2.4,2.7c0,0.2,0,0.4,0,0.5H383.2z M386.3,62c0-0.7-0.3-1.7-1.5-1.7
			c-1.1,0-1.5,1-1.6,1.7H386.3z"/>
		<path id="XMLID_188_" class="st2" d="M389,59.6l0.8,3c0.2,0.6,0.3,1.2,0.4,1.8h0c0.1-0.6,0.3-1.2,0.5-1.8l0.9-3h0.9l0.9,2.9
			c0.2,0.7,0.4,1.3,0.5,1.9h0c0.1-0.6,0.3-1.2,0.4-1.9l0.8-2.9h1l-1.9,5.8h-1l-0.9-2.8c-0.2-0.6-0.4-1.2-0.5-1.9h0
			c-0.1,0.7-0.3,1.3-0.5,1.9l-0.9,2.8h-1l-1.8-5.8H389z"/>
	</g>
</g>
<g id="XMLID_2_">
	<path id="XMLID_89_" class="st1" d="M423.2,54.8h-15c-4.1,0-7.5-3.4-7.5-7.5v0c0-4.1,3.4-7.5,7.5-7.5h15c4.1,0,7.5,3.4,7.5,7.5v0
		C430.7,51.4,427.3,54.8,423.2,54.8z"/>
	<g id="XMLID_88_">
		<path id="XMLID_172_" class="st2" d="M406,45.6c0-0.6,0-1.1,0-1.6h0.9l0.1,1h0c0.3-0.6,1-1.1,1.9-1.1c0.8,0,2.1,0.5,2.1,2.5v3.5
			h-1.1v-3.3c0-0.9-0.3-1.7-1.3-1.7c-0.7,0-1.2,0.5-1.4,1.1c0,0.1-0.1,0.3-0.1,0.5v3.5H406V45.6z"/>
		<path id="XMLID_174_" class="st2" d="M413.2,47.2c0,1.4,0.9,2,2,2c0.8,0,1.2-0.1,1.6-0.3l0.2,0.8c-0.4,0.2-1,0.4-1.9,0.4
			c-1.8,0-2.9-1.2-2.9-2.9c0-1.8,1-3.1,2.7-3.1c1.9,0,2.4,1.7,2.4,2.7c0,0.2,0,0.4,0,0.5H413.2z M416.3,46.4c0-0.7-0.3-1.7-1.5-1.7
			c-1.1,0-1.5,1-1.6,1.7H416.3z"/>
		<path id="XMLID_177_" class="st2" d="M419,44.1l0.8,3c0.2,0.6,0.3,1.2,0.4,1.8h0c0.1-0.6,0.3-1.2,0.5-1.8l0.9-3h0.9l0.9,2.9
			c0.2,0.7,0.4,1.3,0.5,1.9h0c0.1-0.6,0.3-1.2,0.4-1.9l0.8-2.9h1l-1.9,5.8h-1l-0.9-2.8c-0.2-0.6-0.4-1.2-0.5-1.9h0
			c-0.1,0.7-0.3,1.3-0.5,1.9l-0.9,2.8h-1l-1.8-5.8H419z"/>
	</g>
</g>
<g id="XMLID_16_">
	<g id="XMLID_113_">
		<line id="XMLID_118_" class="st4" x1="296.2" y1="65.4" x2="293.8" y2="67.2"/>
		<line id="XMLID_117_" class="st8" x1="291.3" y1="69" x2="136.5" y2="180.2"/>
		<line id="XMLID_116_" class="st4" x1="135.3" y1="181.1" x2="132.9" y2="182.9"/>
		<g id="XMLID_114_">
			<polygon id="XMLID_115_" class="st6" points="130.5,176 124.7,188.7 138.6,187.4 			"/>
		</g>
	</g>
</g>
<g id="XMLID_17_">
	<g id="XMLID_120_">
		<line id="XMLID_125_" class="st4" x1="338.3" y1="70.3" x2="336.2" y2="72.5"/>
		<line id="XMLID_124_" class="st9" x1="334.2" y1="74.7" x2="237.1" y2="178.1"/>
		<line id="XMLID_123_" class="st4" x1="236.1" y1="179.2" x2="234" y2="181.4"/>
		<g id="XMLID_121_">
			<polygon id="XMLID_122_" class="st6" points="230.3,175.1 227.2,188.7 240.5,184.7 			"/>
		</g>
	</g>
</g>
<g id="XMLID_131_">
	<g id="XMLID_133_">
		<line id="XMLID_138_" class="st4" x1="431" y1="49.9" x2="433.6" y2="51.8"/>
		<line id="XMLID_137_" class="st5" x1="436.4" y1="53.8" x2="534.4" y2="124.7"/>
		<line id="XMLID_136_" class="st4" x1="535.7" y1="125.7" x2="538.4" y2="127.7"/>
		<g id="XMLID_134_">
			<polygon id="XMLID_135_" class="st6" points="532.7,132.1 546.6,133.6 540.9,120.8 			"/>
		</g>
	</g>
</g>
<g id="XMLID_45_">
	<g id="XMLID_128_">
		<line id="XMLID_141_" class="st4" x1="431" y1="65.4" x2="433.4" y2="67.2"/>
		<line id="XMLID_140_" class="st8" x1="435.9" y1="69" x2="590.6" y2="180.2"/>
		<line id="XMLID_139_" class="st4" x1="591.9" y1="181.1" x2="594.3" y2="182.9"/>
		<g id="XMLID_129_">
			<polygon id="XMLID_130_" class="st6" points="588.6,187.4 602.5,188.7 596.7,176 			"/>
		</g>
	</g>
</g>
<g id="XMLID_19_">
	<g id="XMLID_50_">
		<line id="XMLID_126_" class="st4" x1="388.9" y1="70.3" x2="391" y2="72.5"/>
		<line id="XMLID_111_" class="st9" x1="393" y1="74.7" x2="490.1" y2="178.1"/>
		<line id="XMLID_53_" class="st4" x1="491.1" y1="179.2" x2="493.1" y2="181.4"/>
		<g id="XMLID_51_">
			<polygon id="XMLID_52_" class="st6" points="486.7,184.7 500,188.7 496.8,175.1 			"/>
		</g>
	</g>
</g>
<g id="XMLID_9_">
	<path id="XMLID_22_" class="st6" d="M307.9,21.7c-0.4,0.2-1.5,0.5-2.8,0.5c-3.7,0-5.7-2.3-5.7-5.4c0-3.7,2.6-5.7,5.9-5.7
		c1.3,0,2.2,0.3,2.7,0.5l-0.5,1.9c-0.5-0.2-1.2-0.4-2-0.4c-1.9,0-3.4,1.2-3.4,3.6c0,2.2,1.3,3.5,3.5,3.5c0.7,0,1.6-0.2,2-0.4
		L307.9,21.7z"/>
	<path id="XMLID_41_" class="st6" d="M316.9,18c0,2.9-2,4.2-4.1,4.2c-2.3,0-4-1.5-4-4c0-2.5,1.7-4.1,4.2-4.1
		C315.3,14,316.9,15.6,316.9,18z M311.2,18c0,1.3,0.6,2.4,1.6,2.4c0.9,0,1.6-0.9,1.6-2.4c0-1.2-0.4-2.4-1.6-2.4
		C311.6,15.7,311.2,16.9,311.2,18z"/>
	<path id="XMLID_44_" class="st6" d="M318.4,16.6c0-1,0-1.8-0.1-2.5h2l0.1,1.1h0c0.3-0.5,1-1.2,2.4-1.2c1,0,1.8,0.5,2.1,1.3h0
		c0.3-0.4,0.6-0.7,1-0.9c0.4-0.3,0.9-0.4,1.5-0.4c1.5,0,2.6,1.1,2.6,3.4V22h-2.4v-4.3c0-1.1-0.4-1.8-1.2-1.8c-0.6,0-1,0.4-1.1,0.8
		c-0.1,0.2-0.1,0.4-0.1,0.6V22h-2.4v-4.4c0-1-0.4-1.7-1.1-1.7c-0.6,0-1,0.5-1.1,0.9c-0.1,0.2-0.1,0.4-0.1,0.6V22h-2.4V16.6z"/>
	<path id="XMLID_47_" class="st6" d="M332.1,16.8c0-1,0-1.9-0.1-2.6h2.1l0.1,1.1h0c0.6-0.8,1.5-1.3,2.6-1.3c1.7,0,3.2,1.5,3.2,4
		c0,2.8-1.8,4.2-3.6,4.2c-0.9,0-1.7-0.4-2-0.9h0v3.9h-2.4V16.8z M334.6,18.6c0,0.2,0,0.4,0,0.5c0.2,0.7,0.7,1.2,1.4,1.2
		c1.1,0,1.7-0.9,1.7-2.2c0-1.2-0.6-2.2-1.6-2.2c-0.7,0-1.3,0.5-1.5,1.2c0,0.1,0,0.3,0,0.4V18.6z"/>
	<path id="XMLID_143_" class="st6" d="M349.5,18c0,2.9-2,4.2-4.1,4.2c-2.3,0-4-1.5-4-4c0-2.5,1.7-4.1,4.2-4.1
		C347.9,14,349.5,15.6,349.5,18z M343.8,18c0,1.3,0.6,2.4,1.6,2.4c0.9,0,1.6-0.9,1.6-2.4c0-1.2-0.4-2.4-1.6-2.4
		C344.3,15.7,343.8,16.9,343.8,18z"/>
	<path id="XMLID_146_" class="st6" d="M351,19.8c0.4,0.3,1.4,0.6,2.1,0.6c0.7,0,1-0.3,1-0.7s-0.2-0.6-1.2-0.9
		c-1.6-0.5-2.2-1.4-2.2-2.4c0-1.5,1.2-2.6,3.2-2.6c0.9,0,1.7,0.2,2.2,0.4l-0.4,1.7c-0.4-0.2-1-0.4-1.7-0.4c-0.6,0-0.9,0.2-0.9,0.6
		c0,0.4,0.3,0.6,1.3,0.9c1.5,0.5,2.1,1.3,2.1,2.4c0,1.5-1.2,2.5-3.4,2.5c-1,0-1.9-0.2-2.5-0.5L351,19.8z"/>
	<path id="XMLID_148_" class="st6" d="M360.4,12c0,0.7-0.5,1.2-1.3,1.2c-0.8,0-1.3-0.5-1.3-1.2c0-0.7,0.5-1.2,1.3-1.2
		S360.4,11.3,360.4,12z M357.9,22v-7.8h2.4V22H357.9z"/>
	<path id="XMLID_151_" class="st6" d="M365,11.9v2.2h1.7v1.8H365v2.8c0,0.9,0.2,1.4,1,1.4c0.3,0,0.5,0,0.7-0.1l0,1.8
		c-0.3,0.1-0.9,0.2-1.6,0.2c-0.8,0-1.4-0.3-1.8-0.7c-0.4-0.5-0.7-1.2-0.7-2.3v-3.2h-1v-1.8h1v-1.7L365,11.9z"/>
	<path id="XMLID_153_" class="st6" d="M370.7,12c0,0.7-0.5,1.2-1.3,1.2c-0.8,0-1.3-0.5-1.3-1.2c0-0.7,0.5-1.2,1.3-1.2
		S370.7,11.3,370.7,12z M368.2,22v-7.8h2.4V22H368.2z"/>
	<path id="XMLID_156_" class="st6" d="M380.3,18c0,2.9-2,4.2-4.1,4.2c-2.3,0-4-1.5-4-4c0-2.5,1.7-4.1,4.2-4.1
		C378.7,14,380.3,15.6,380.3,18z M374.6,18c0,1.3,0.6,2.4,1.6,2.4c0.9,0,1.6-0.9,1.6-2.4c0-1.2-0.4-2.4-1.6-2.4
		C375.1,15.7,374.6,16.9,374.6,18z"/>
	<path id="XMLID_159_" class="st6" d="M381.8,16.6c0-1,0-1.8-0.1-2.5h2.1l0.1,1.1h0c0.3-0.5,1.1-1.2,2.4-1.2c1.6,0,2.8,1.1,2.8,3.4
		V22h-2.4v-4.3c0-1-0.4-1.7-1.2-1.7c-0.7,0-1.1,0.5-1.2,0.9c-0.1,0.1-0.1,0.4-0.1,0.6V22h-2.4V16.6z"/>
	<path id="XMLID_161_" class="st6" d="M394.5,11.3c0.8-0.1,2-0.2,3.2-0.2c1.6,0,2.7,0.2,3.5,0.8c0.6,0.5,1,1.3,1,2.3
		c0,1.4-1,2.3-1.9,2.7v0c0.8,0.3,1.2,1,1.4,2c0.3,1.2,0.7,2.6,0.9,3h-2.5c-0.2-0.3-0.4-1.2-0.8-2.5c-0.3-1.3-0.8-1.7-1.7-1.7h-0.7
		V22h-2.4V11.3z M396.9,16h1c1.2,0,1.9-0.6,1.9-1.6c0-1-0.7-1.5-1.8-1.5c-0.6,0-0.9,0-1.1,0.1V16z"/>
	<path id="XMLID_164_" class="st6" d="M411.6,18c0,2.9-2,4.2-4.1,4.2c-2.3,0-4-1.5-4-4c0-2.5,1.7-4.1,4.2-4.1
		C410,14,411.6,15.6,411.6,18z M406,18c0,1.3,0.6,2.4,1.6,2.4c0.9,0,1.6-0.9,1.6-2.4c0-1.2-0.4-2.4-1.6-2.4
		C406.4,15.7,406,16.9,406,18z"/>
	<path id="XMLID_167_" class="st6" d="M420.9,18c0,2.9-2,4.2-4.1,4.2c-2.3,0-4-1.5-4-4c0-2.5,1.7-4.1,4.2-4.1
		C419.3,14,420.9,15.6,420.9,18z M415.2,18c0,1.3,0.6,2.4,1.6,2.4c0.9,0,1.6-0.9,1.6-2.4c0-1.2-0.4-2.4-1.6-2.4
		C415.7,15.7,415.2,16.9,415.2,18z"/>
	<path id="XMLID_170_" class="st6" d="M425.1,11.9v2.2h1.7v1.8h-1.7v2.8c0,0.9,0.2,1.4,1,1.4c0.3,0,0.5,0,0.7-0.1l0,1.8
		c-0.3,0.1-0.9,0.2-1.6,0.2c-0.8,0-1.4-0.3-1.8-0.7c-0.4-0.5-0.7-1.2-0.7-2.3v-3.2h-1v-1.8h1v-1.7L425.1,11.9z"/>
</g>
<g id="XMLID_20_">
</g>
<g id="XMLID_235_">
</g>
<g id="XMLID_236_">
</g>
<g id="XMLID_237_">
</g>
<g id="XMLID_238_">
</g>
<g id="XMLID_239_">
</g>
<g id="XMLID_240_">
</g>
<g id="XMLID_241_">
</g>
<g id="XMLID_242_">
</g>
<g id="XMLID_243_">
</g>
<g id="XMLID_244_">
</g>
<g id="XMLID_245_">
</g>
<g id="XMLID_246_">
</g>
<g id="XMLID_247_">
</g>
<g id="XMLID_248_">
</g>
<g id="XMLID_249_">
</g>
</svg>
