<?xml version="1.0" encoding="utf-8"?>
<!-- Generator: Adobe Illustrator 19.0.0, SVG Export Plug-In . SVG Version: 6.00 Build 0)  -->
<svg version="1.1" id="Layer_1" xmlns="http://www.w3.org/2000/svg" xmlns:xlink="http://www.w3.org/1999/xlink" x="0px" y="0px"
	 viewBox="0 0 726.3 351.9" style="enable-background:new 0 0 726.3 351.9;" xml:space="preserve">
<style type="text/css">
	.st0{fill:#CEDDDD;stroke:#96A3A3;stroke-width:4;stroke-miterlimit:10;}
	.st1{fill:#E37E32;}
	.st2{fill:#FFFFFF;}
	.st3{fill:none;stroke:#333333;stroke-width:2;stroke-miterlimit:10;}
	.st4{fill:none;stroke:#333333;stroke-width:2;stroke-miterlimit:10;stroke-dasharray:5.914,2.957;}
	.st5{fill:#333333;}
	.st6{fill:none;stroke:#333333;stroke-width:2;stroke-miterlimit:10;stroke-dasharray:5.8643,2.9321;}
</style>
<path id="XMLID_1_" class="st0" d="M426.1,77h-126c-6.6,0-12-5.4-12-12V14c0-6.6,5.4-12,12-12h126c6.6,0,12,5.4,12,12v51
	C438.1,71.6,432.7,77,426.1,77z"/>
<path id="XMLID_3_" class="st0" d="M235.4,213.5h-126c-6.6,0-12-5.4-12-12v-51c0-6.6,5.4-12,12-12h126c6.6,0,12,5.4,12,12v51
	C247.4,208.1,242,213.5,235.4,213.5z"/>
<path id="XMLID_4_" class="st0" d="M616.9,213.5h-126c-6.6,0-12-5.4-12-12v-51c0-6.6,5.4-12,12-12h126c6.6,0,12,5.4,12,12v51
	C628.9,208.1,623.5,213.5,616.9,213.5z"/>
<path id="XMLID_5_" class="st0" d="M140,349.9H14c-6.6,0-12-5.4-12-12v-51c0-6.6,5.4-12,12-12h126c6.6,0,12,5.4,12,12v51
	C152,344.5,146.6,349.9,140,349.9z"/>
<path id="XMLID_6_" class="st0" d="M330.8,349.9h-126c-6.6,0-12-5.4-12-12v-51c0-6.6,5.4-12,12-12h126c6.6,0,12,5.4,12,12v51
	C342.8,344.5,337.4,349.9,330.8,349.9z"/>
<path id="XMLID_7_" class="st0" d="M521.5,349.9h-126c-6.6,0-12-5.4-12-12v-51c0-6.6,5.4-12,12-12h126c6.6,0,12,5.4,12,12v51
	C533.5,344.5,528.1,349.9,521.5,349.9z"/>
<path id="XMLID_8_" class="st0" d="M712.3,349.9h-126c-6.6,0-12-5.4-12-12v-51c0-6.6,5.4-12,12-12h126c6.6,0,12,5.4,12,12v51
	C724.3,344.5,718.9,349.9,712.3,349.9z"/>
<g id="XMLID_11_">
	<path id="XMLID_10_" class="st1" d="M318.2,70.1h-15c-4.1,0-7.5-3.4-7.5-7.5v0c0-4.1,3.4-7.5,7.5-7.5h15c4.1,0,7.5,3.4,7.5,7.5v0
		C325.7,66.7,322.4,70.1,318.2,70.1z"/>
	<g id="XMLID_12_">
		<path id="XMLID_123_" class="st2" d="M301,60.9c0-0.6,0-1.1,0-1.6h0.9l0.1,1h0c0.3-0.6,1-1.1,1.9-1.1c0.8,0,2.1,0.5,2.1,2.5v3.5
			h-1.1v-3.3c0-0.9-0.3-1.7-1.3-1.7c-0.7,0-1.2,0.5-1.4,1.1c0,0.1-0.1,0.3-0.1,0.5v3.5H301V60.9z"/>
		<path id="XMLID_125_" class="st2" d="M308.3,62.5c0,1.4,0.9,2,2,2c0.8,0,1.2-0.1,1.6-0.3l0.2,0.8c-0.4,0.2-1,0.4-1.9,0.4
			c-1.8,0-2.9-1.2-2.9-2.9c0-1.8,1-3.1,2.7-3.1c1.9,0,2.4,1.7,2.4,2.7c0,0.2,0,0.4,0,0.5H308.3z M311.4,61.7c0-0.7-0.3-1.7-1.5-1.7
			c-1.1,0-1.5,1-1.6,1.7H311.4z"/>
		<path id="XMLID_128_" class="st2" d="M314.1,59.4l0.8,3c0.2,0.6,0.3,1.2,0.4,1.8h0c0.1-0.6,0.3-1.2,0.5-1.8l0.9-3h0.9l0.9,2.9
			c0.2,0.7,0.4,1.3,0.5,1.9h0c0.1-0.6,0.3-1.2,0.4-1.9l0.8-2.9h1l-1.9,5.8h-1l-0.9-2.8c-0.2-0.6-0.4-1.2-0.5-1.9h0
			c-0.1,0.7-0.3,1.3-0.5,1.9l-0.9,2.8h-1l-1.8-5.8H314.1z"/>
	</g>
</g>
<g id="XMLID_13_">
	<path id="XMLID_15_" class="st1" d="M423.3,70.1h-15c-4.1,0-7.5-3.4-7.5-7.5v0c0-4.1,3.4-7.5,7.5-7.5h15c4.1,0,7.5,3.4,7.5,7.5v0
		C430.8,66.7,427.4,70.1,423.3,70.1z"/>
	<g id="XMLID_14_">
		<path id="XMLID_116_" class="st2" d="M406.1,60.9c0-0.6,0-1.1,0-1.6h0.9l0.1,1h0c0.3-0.6,1-1.1,1.9-1.1c0.8,0,2.1,0.5,2.1,2.5v3.5
			H410v-3.3c0-0.9-0.3-1.7-1.3-1.7c-0.7,0-1.2,0.5-1.4,1.1c0,0.1-0.1,0.3-0.1,0.5v3.5h-1.1V60.9z"/>
		<path id="XMLID_118_" class="st2" d="M413.3,62.5c0,1.4,0.9,2,2,2c0.8,0,1.2-0.1,1.6-0.3l0.2,0.8c-0.4,0.2-1,0.4-1.9,0.4
			c-1.8,0-2.9-1.2-2.9-2.9c0-1.8,1-3.1,2.7-3.1c1.9,0,2.4,1.7,2.4,2.7c0,0.2,0,0.4,0,0.5H413.3z M416.4,61.7c0-0.7-0.3-1.7-1.5-1.7
			c-1.1,0-1.5,1-1.6,1.7H416.4z"/>
		<path id="XMLID_121_" class="st2" d="M419.2,59.4l0.8,3c0.2,0.6,0.3,1.2,0.4,1.8h0c0.1-0.6,0.3-1.2,0.5-1.8l0.9-3h0.9l0.9,2.9
			c0.2,0.7,0.4,1.3,0.5,1.9h0c0.1-0.6,0.3-1.2,0.4-1.9l0.8-2.9h1l-1.9,5.8h-1l-0.9-2.8c-0.2-0.6-0.4-1.2-0.5-1.9h0
			c-0.1,0.7-0.3,1.3-0.5,1.9l-0.9,2.8h-1l-1.8-5.8H419.2z"/>
	</g>
</g>
<g id="XMLID_19_">
	<path id="XMLID_21_" class="st1" d="M127.3,207h-15c-4.1,0-7.5-3.4-7.5-7.5l0,0c0-4.1,3.4-7.5,7.5-7.5h15c4.1,0,7.5,3.4,7.5,7.5
		l0,0C134.8,203.6,131.5,207,127.3,207z"/>
	<g id="XMLID_20_">
		<path id="XMLID_109_" class="st2" d="M110.1,197.8c0-0.6,0-1.1,0-1.6h0.9l0.1,1h0c0.3-0.6,1-1.1,1.9-1.1c0.8,0,2.1,0.5,2.1,2.5
			v3.5H114v-3.3c0-0.9-0.3-1.7-1.3-1.7c-0.7,0-1.2,0.5-1.4,1.1c0,0.1-0.1,0.3-0.1,0.5v3.5h-1.1V197.8z"/>
		<path id="XMLID_111_" class="st2" d="M117.4,199.4c0,1.4,0.9,2,2,2c0.8,0,1.2-0.1,1.6-0.3l0.2,0.8c-0.4,0.2-1,0.4-1.9,0.4
			c-1.8,0-2.9-1.2-2.9-2.9c0-1.8,1-3.1,2.7-3.1c1.9,0,2.4,1.7,2.4,2.7c0,0.2,0,0.4,0,0.5H117.4z M120.5,198.6c0-0.7-0.3-1.7-1.5-1.7
			c-1.1,0-1.5,1-1.6,1.7H120.5z"/>
		<path id="XMLID_114_" class="st2" d="M123.2,196.3l0.8,3c0.2,0.6,0.3,1.2,0.4,1.8h0c0.1-0.6,0.3-1.2,0.5-1.8l0.9-3h0.9l0.9,2.9
			c0.2,0.7,0.4,1.3,0.5,1.9h0c0.1-0.6,0.3-1.2,0.4-1.9l0.8-2.9h1l-1.9,5.8h-1l-0.9-2.8c-0.2-0.6-0.4-1.2-0.5-1.9h0
			c-0.1,0.7-0.3,1.3-0.5,1.9l-0.9,2.8h-1l-1.8-5.8H123.2z"/>
	</g>
</g>
<g id="XMLID_16_">
	<path id="XMLID_18_" class="st1" d="M232.4,207h-15c-4.1,0-7.5-3.4-7.5-7.5l0,0c0-4.1,3.4-7.5,7.5-7.5h15c4.1,0,7.5,3.4,7.5,7.5
		l0,0C239.9,203.6,236.5,207,232.4,207z"/>
	<g id="XMLID_17_">
		<path id="XMLID_102_" class="st2" d="M215.2,197.8c0-0.6,0-1.1,0-1.6h0.9l0.1,1h0c0.3-0.6,1-1.1,1.9-1.1c0.8,0,2.1,0.5,2.1,2.5
			v3.5h-1.1v-3.3c0-0.9-0.3-1.7-1.3-1.7c-0.7,0-1.2,0.5-1.4,1.1c0,0.1-0.1,0.3-0.1,0.5v3.5h-1.1V197.8z"/>
		<path id="XMLID_104_" class="st2" d="M222.4,199.4c0,1.4,0.9,2,2,2c0.8,0,1.2-0.1,1.6-0.3l0.2,0.8c-0.4,0.2-1,0.4-1.9,0.4
			c-1.8,0-2.9-1.2-2.9-2.9c0-1.8,1-3.1,2.7-3.1c1.9,0,2.4,1.7,2.4,2.7c0,0.2,0,0.4,0,0.5H222.4z M225.5,198.6c0-0.7-0.3-1.7-1.5-1.7
			c-1.1,0-1.5,1-1.6,1.7H225.5z"/>
		<path id="XMLID_107_" class="st2" d="M228.3,196.3l0.8,3c0.2,0.6,0.3,1.2,0.4,1.8h0c0.1-0.6,0.3-1.2,0.5-1.8l0.9-3h0.9l0.9,2.9
			c0.2,0.7,0.4,1.3,0.5,1.9h0c0.1-0.6,0.3-1.2,0.4-1.9l0.8-2.9h1l-1.9,5.8h-1l-0.9-2.8c-0.2-0.6-0.4-1.2-0.5-1.9h0
			c-0.1,0.7-0.3,1.3-0.5,1.9l-0.9,2.8h-1l-1.8-5.8H228.3z"/>
	</g>
</g>
<g id="XMLID_25_">
	<path id="XMLID_27_" class="st1" d="M508.9,207.1h-15c-4.1,0-7.5-3.4-7.5-7.5l0,0c0-4.1,3.4-7.5,7.5-7.5h15c4.1,0,7.5,3.4,7.5,7.5
		l0,0C516.4,203.7,513,207.1,508.9,207.1z"/>
	<g id="XMLID_26_">
		<path id="XMLID_95_" class="st2" d="M491.6,197.9c0-0.6,0-1.1,0-1.6h0.9l0.1,1h0c0.3-0.6,1-1.1,1.9-1.1c0.8,0,2.1,0.5,2.1,2.5v3.5
			h-1.1v-3.3c0-0.9-0.3-1.7-1.3-1.7c-0.7,0-1.2,0.5-1.4,1.1c0,0.1-0.1,0.3-0.1,0.5v3.5h-1.1V197.9z"/>
		<path id="XMLID_97_" class="st2" d="M498.9,199.5c0,1.4,0.9,2,2,2c0.8,0,1.2-0.1,1.6-0.3l0.2,0.8c-0.4,0.2-1,0.4-1.9,0.4
			c-1.8,0-2.9-1.2-2.9-2.9c0-1.8,1-3.1,2.7-3.1c1.9,0,2.4,1.7,2.4,2.7c0,0.2,0,0.4,0,0.5H498.9z M502,198.7c0-0.7-0.3-1.7-1.5-1.7
			c-1.1,0-1.5,1-1.6,1.7H502z"/>
		<path id="XMLID_100_" class="st2" d="M504.7,196.4l0.8,3c0.2,0.6,0.3,1.2,0.4,1.8h0c0.1-0.6,0.3-1.2,0.5-1.8l0.9-3h0.9l0.9,2.9
			c0.2,0.7,0.4,1.3,0.5,1.9h0c0.1-0.6,0.3-1.2,0.4-1.9l0.8-2.9h1l-1.9,5.8h-1l-0.9-2.8c-0.2-0.6-0.4-1.2-0.5-1.9h0
			c-0.1,0.7-0.3,1.3-0.5,1.9l-0.9,2.8h-1l-1.8-5.8H504.7z"/>
	</g>
</g>
<g id="XMLID_22_">
	<path id="XMLID_24_" class="st1" d="M613.9,207.1h-15c-4.1,0-7.5-3.4-7.5-7.5l0,0c0-4.1,3.4-7.5,7.5-7.5h15c4.1,0,7.5,3.4,7.5,7.5
		l0,0C621.4,203.7,618,207.1,613.9,207.1z"/>
	<g id="XMLID_23_">
		<path id="XMLID_88_" class="st2" d="M596.7,197.9c0-0.6,0-1.1,0-1.6h0.9l0.1,1h0c0.3-0.6,1-1.1,1.9-1.1c0.8,0,2.1,0.5,2.1,2.5v3.5
			h-1.1v-3.3c0-0.9-0.3-1.7-1.3-1.7c-0.7,0-1.2,0.5-1.4,1.1c0,0.1-0.1,0.3-0.1,0.5v3.5h-1.1V197.9z"/>
		<path id="XMLID_90_" class="st2" d="M604,199.5c0,1.4,0.9,2,2,2c0.8,0,1.2-0.1,1.6-0.3l0.2,0.8c-0.4,0.2-1,0.4-1.9,0.4
			c-1.8,0-2.9-1.2-2.9-2.9c0-1.8,1-3.1,2.7-3.1c1.9,0,2.4,1.7,2.4,2.7c0,0.2,0,0.4,0,0.5H604z M607,198.7c0-0.7-0.3-1.7-1.5-1.7
			c-1.1,0-1.5,1-1.6,1.7H607z"/>
		<path id="XMLID_93_" class="st2" d="M609.8,196.4l0.8,3c0.2,0.6,0.3,1.2,0.4,1.8h0c0.1-0.6,0.3-1.2,0.5-1.8l0.9-3h0.9l0.9,2.9
			c0.2,0.7,0.4,1.3,0.5,1.9h0c0.1-0.6,0.3-1.2,0.4-1.9l0.8-2.9h1l-1.9,5.8h-1l-0.9-2.8c-0.2-0.6-0.4-1.2-0.5-1.9h0
			c-0.1,0.7-0.3,1.3-0.5,1.9l-0.9,2.8h-1l-1.8-5.8H609.8z"/>
	</g>
</g>
<g id="XMLID_28_">
	<g id="XMLID_42_">
		<line id="XMLID_54_" class="st3" x1="296.2" y1="65.2" x2="293.6" y2="66.7"/>
		<line id="XMLID_46_" class="st4" x1="291.1" y1="68.2" x2="193.1" y2="126.2"/>
		<line id="XMLID_45_" class="st3" x1="191.8" y1="126.9" x2="189.3" y2="128.5"/>
		<g id="XMLID_43_">
			<polygon id="XMLID_44_" class="st5" points="187.5,121.4 180.6,133.6 194.6,133.4 			"/>
		</g>
	</g>
</g>
<g id="XMLID_9_">
	<g id="XMLID_48_">
		<line id="XMLID_53_" class="st3" x1="429.6" y1="65.2" x2="432.1" y2="66.7"/>
		<line id="XMLID_52_" class="st4" x1="434.7" y1="68.2" x2="532.7" y2="126.2"/>
		<line id="XMLID_51_" class="st3" x1="533.9" y1="126.9" x2="536.5" y2="128.5"/>
		<g id="XMLID_49_">
			<polygon id="XMLID_50_" class="st5" points="531.2,133.4 545.2,133.6 538.3,121.4 			"/>
		</g>
	</g>
</g>
<g id="XMLID_29_">
	<g id="XMLID_56_">
		<line id="XMLID_61_" class="st3" x1="109.3" y1="206.3" x2="107.9" y2="209"/>
		<line id="XMLID_60_" class="st6" x1="106.6" y1="211.6" x2="83.5" y2="257.4"/>
		<line id="XMLID_59_" class="st3" x1="82.9" y1="258.7" x2="81.5" y2="261.4"/>
		<g id="XMLID_57_">
			<polygon id="XMLID_58_" class="st5" points="76.2,256.4 77,270.4 88.7,262.7 			"/>
		</g>
	</g>
</g>
<g id="XMLID_30_">
	<g id="XMLID_32_">
		<line id="XMLID_37_" class="st3" x1="490.8" y1="206.3" x2="489.4" y2="209"/>
		<line id="XMLID_36_" class="st6" x1="488.1" y1="211.6" x2="465" y2="257.4"/>
		<line id="XMLID_35_" class="st3" x1="464.4" y1="258.7" x2="463" y2="261.4"/>
		<g id="XMLID_33_">
			<polygon id="XMLID_34_" class="st5" points="457.7,256.4 458.5,270.4 470.2,262.7 			"/>
		</g>
	</g>
</g>
<g id="XMLID_38_">
	<g id="XMLID_72_">
		<line id="XMLID_77_" class="st3" x1="236.4" y1="206.2" x2="237.8" y2="208.8"/>
		<line id="XMLID_76_" class="st6" x1="239.1" y1="211.5" x2="262.2" y2="257.3"/>
		<line id="XMLID_75_" class="st3" x1="262.8" y1="258.6" x2="264.2" y2="261.3"/>
		<g id="XMLID_73_">
			<polygon id="XMLID_74_" class="st5" points="257,262.6 268.7,270.3 269.5,256.3 			"/>
		</g>
	</g>
</g>
<g id="XMLID_39_">
	<g id="XMLID_62_">
		<line id="XMLID_67_" class="st3" x1="617" y1="206.2" x2="618.3" y2="208.8"/>
		<line id="XMLID_66_" class="st6" x1="619.7" y1="211.5" x2="642.7" y2="257.3"/>
		<line id="XMLID_65_" class="st3" x1="643.4" y1="258.6" x2="644.7" y2="261.3"/>
		<g id="XMLID_63_">
			<polygon id="XMLID_64_" class="st5" points="637.6,262.6 649.3,270.3 650.1,256.3 			"/>
		</g>
	</g>
</g>
<g id="XMLID_2_">
</g>
<g id="XMLID_130_">
</g>
<g id="XMLID_131_">
</g>
<g id="XMLID_132_">
</g>
<g id="XMLID_133_">
</g>
<g id="XMLID_134_">
</g>
<g id="XMLID_135_">
</g>
<g id="XMLID_136_">
</g>
<g id="XMLID_137_">
</g>
<g id="XMLID_138_">
</g>
<g id="XMLID_139_">
</g>
<g id="XMLID_140_">
</g>
<g id="XMLID_141_">
</g>
<g id="XMLID_142_">
</g>
<g id="XMLID_143_">
</g>
<g id="XMLID_144_">
</g>
</svg>
