<?xml version="1.0" encoding="utf-8"?>
<!-- Generator: Adobe Illustrator 19.0.0, SVG Export Plug-In . SVG Version: 6.00 Build 0)  -->
<svg version="1.1" id="Layer_1" xmlns="http://www.w3.org/2000/svg" xmlns:xlink="http://www.w3.org/1999/xlink" x="0px" y="0px"
	 viewBox="-266 184.7 425.2 192.3" style="enable-background:new -266 184.7 425.2 192.3;" xml:space="preserve">
<style type="text/css">
	.st0{fill:#CEDDDD;stroke:#96A3A3;stroke-width:3;stroke-linecap:round;stroke-linejoin:round;stroke-miterlimit:10;}
	.st1{fill:#55A7E8;stroke:#333333;stroke-width:3;stroke-linecap:round;stroke-linejoin:round;stroke-miterlimit:10;}
	.st2{enable-background:new    ;}
	.st3{fill:#FFFFFF;}
	.st4{fill:#333333;}
	.st5{fill:#E37E32;stroke:#E37E32;stroke-width:3;stroke-linecap:round;stroke-linejoin:round;stroke-miterlimit:10;}
</style>
<polygon id="XMLID_2_" class="st0" points="-258.5,231 -258.5,331 -118.5,331 -118.5,301 -138.5,281 -118.5,261 -118.5,231 "/>
<polygon id="XMLID_3_" class="st0" points="-8.5,281 11.5,261 11.5,231 151.5,231 151.5,331 11.5,331 11.5,301 "/>
<polygon id="XMLID_1_" class="st1" points="11.5,221 11.5,191 -48.5,191 -88.5,231 -88.5,261 -108.5,281 -88.5,301 -88.5,331 
	-48.5,371 11.5,371 11.5,341 -18.5,341 -18.5,301 -38.5,281 -18.5,261 -18.5,221 "/>
<g id="XMLID_4_" class="st2">
	<path class="st3" d="M-56.5,317.6v5.1h-13.2v-5.1c0-4.2,2.8-6.9,6.6-6.9C-59.3,310.7-56.5,313.3-56.5,317.6z M-66.9,319.5h7.7v-1.7
		c0-2.1-1.4-3.9-3.9-3.9c-2.6,0-3.9,1.7-3.9,3.9V319.5z"/>
	<path class="st3" d="M-57.3,300.8c0,0,1.1,1.2,1.1,3.6c0,3.2-2.2,5.1-4.9,5.1c-2.8,0-4.8-1.9-4.8-4.7c0-2.7,1.7-4.4,4.6-4.4
		c0.3,0,0.9,0,0.9,0v6c1.3-0.2,1.8-0.9,1.8-2.2c0-1.3-0.7-2.3-0.7-2.3L-57.3,300.8z M-62.2,306.4v-3c-0.9,0-1.5,0.6-1.5,1.5
		C-63.6,305.6-63.1,306.2-62.2,306.4z"/>
	<path class="st3" d="M-61.1,299.3c-2.8,0-4.8-2-4.8-5c0-1.9,0.8-2.9,0.8-2.9l2.3,0.8c0,0-0.5,0.8-0.5,1.8c0,1.3,0.9,2.1,2.2,2.1
		c1.4,0,2.2-0.9,2.2-2.1c0-1-0.5-1.8-0.5-1.8l2.2-0.8c0,0,0.9,1,0.9,2.9C-56.2,297.4-58.3,299.3-61.1,299.3z"/>
	<path class="st3" d="M-56.2,285.8c0,2.7-1.9,4.9-4.8,4.9c-2.9,0-4.9-2.2-4.9-4.9c0-2.7,1.9-4.9,4.9-4.9
		C-58.1,280.8-56.2,283.1-56.2,285.8z M-61.1,283.9c-1.4,0-2.4,0.7-2.4,1.8c0,1.1,0.9,1.8,2.4,1.8c1.4,0,2.4-0.7,2.4-1.8
		C-58.7,284.7-59.6,283.9-61.1,283.9z"/>
	<path class="st3" d="M-63,273.6v0.5c0,1.2,0.8,1.9,2.1,1.9h4.5v3.2h-9.2v-1.9l1.3-0.5v-0.1c-0.9-0.5-1.3-1.3-1.3-2.6v-0.5H-63z"/>
	<path class="st3" d="M-56.5,264.1v2.2l-1.1,0.4v0.1c0.8,0.5,1.3,1.4,1.3,2.9c0,2.1-1.2,3.3-2.9,3.3c-1.9,0-3.1-1.4-3.1-4.2
		c0-0.7,0.1-1.2,0.2-1.7h-0.3c-0.9,0-1.2,0.7-1.2,2c0,1.3,0.6,2.3,0.6,2.3l-2.2,1c0,0-0.8-1.3-0.8-4c0-2.8,1.5-4.4,3.8-4.4H-56.5z
		 M-60.4,267.1c-0.1,0.2-0.2,0.5-0.2,1.3c0,1,0.4,1.6,1.2,1.6c0.7,0,1.1-0.5,1.1-1.3c0-0.9-0.5-1.6-1.4-1.6H-60.4z"/>
	<path class="st3" d="M-65.7,261.4h-2.8v-3.2h2.8v-2.1h2.4v2.1h3.5c0.5,0,0.8-0.3,0.8-0.8c0-0.5-0.3-0.8-0.3-0.8l2.2-0.9
		c0.4,0.6,0.8,1.6,0.8,2.6c0,2.3-1.5,3.1-3.4,3.1h-3.7v1.5h-2.4V261.4z"/>
	<path class="st3" d="M-56.2,250.1c0,2.7-1.9,4.9-4.8,4.9c-2.9,0-4.9-2.2-4.9-4.9c0-2.7,1.9-4.9,4.9-4.9
		C-58.1,245.2-56.2,247.4-56.2,250.1z M-61.1,248.3c-1.4,0-2.4,0.7-2.4,1.8c0,1.1,0.9,1.8,2.4,1.8c1.4,0,2.4-0.7,2.4-1.8
		C-58.7,249-59.6,248.3-61.1,248.3z"/>
	<path class="st3" d="M-63,238v0.5c0,1.2,0.8,1.9,2.1,1.9h4.5v3.2h-9.2v-1.9l1.3-0.5V241c-0.9-0.5-1.3-1.3-1.3-2.6V238H-63z"/>
</g>
<g id="XMLID_5_" class="st2">
	<path class="st4" d="M-230.5,287c0,0-1.4,1.6-4.5,1.6c-4.3,0-6.8-3.1-6.8-6.9c0-3.8,2.5-6.9,6.8-6.9c3.1,0,4.5,1.6,4.5,1.6
		l-1.8,2.4c0,0-0.9-1-2.6-1c-2.1,0-3.5,1.5-3.5,3.8c0,2.3,1.5,3.8,3.5,3.8c1.8,0,2.6-1,2.6-1L-230.5,287z"/>
	<path class="st4" d="M-225.2,288.6c-2.7,0-4.9-1.9-4.9-4.8c0-2.9,2.2-4.9,4.9-4.9c2.7,0,4.9,1.9,4.9,4.9
		C-220.3,286.7-222.5,288.6-225.2,288.6z M-223.4,283.7c0-1.4-0.7-2.4-1.8-2.4c-1.1,0-1.8,0.9-1.8,2.4c0,1.4,0.7,2.4,1.8,2.4
		C-224.1,286.1-223.4,285.2-223.4,283.7z"/>
	<path class="st4" d="M-218.6,279.1h1.9l0.5,1.3h0.2c0.7-1.1,1.5-1.5,2.9-1.5c2.4,0,3.9,1.6,3.9,4v5.4h-3.2v-5.2
		c0-0.8-0.6-1.5-1.5-1.5c-0.9,0-1.5,0.6-1.5,1.4v5.3h-3.2V279.1z"/>
	<path class="st4" d="M-206.9,285.5c0,0,1.5,0.9,2.9,0.9c0.8,0,1.1-0.2,1.1-0.6c0-1.2-4.8-0.4-4.8-4c0-1.7,1.3-2.9,3.8-2.9
		c2.8,0,4.2,0.8,4.2,0.8l-0.9,2.3c0,0-1.3-0.8-2.9-0.8c-0.6,0-1,0.2-1,0.5c0,1.2,4.9,0.3,4.9,3.9c0,1.7-1.2,2.9-4.2,2.9
		c-2.9,0-4.1-1-4.1-1L-206.9,285.5z"/>
	<path class="st4" d="M-191.8,279.1h3.2v9.2h-2.2l-0.5-1.2h-0.1c-0.6,0.8-1.3,1.5-2.7,1.5c-2.4,0-3.8-1.5-3.8-4v-5.4h3.2v5.2
		c0,0.9,0.5,1.6,1.4,1.6c1,0,1.5-0.7,1.5-1.5V279.1z"/>
	<path class="st4" d="M-183.3,288.4h-3.2v-9.2h1.9l0.5,1.3h0.2c0.6-0.9,1.5-1.5,2.9-1.5c1.4,0,2.6,0.5,3.2,1.5h0.1
		c0.6-0.9,1.4-1.6,2.9-1.6c2.4,0,3.8,1.6,3.8,4v5.4h-3.2v-5.2c0-0.8-0.5-1.5-1.5-1.5c-0.9,0-1.5,0.6-1.5,1.3v5.3h-3.2v-5.2
		c0-0.8-0.6-1.5-1.5-1.5c-0.9,0-1.5,0.6-1.5,1.5V288.4z"/>
	<path class="st4" d="M-160.8,287.5c0,0-1.2,1.1-3.6,1.1c-3.2,0-5.1-2.2-5.1-4.9c0-2.8,1.9-4.8,4.7-4.8c2.7,0,4.4,1.7,4.4,4.6
		c0,0.3,0,0.9,0,0.9h-6c0.2,1.3,0.9,1.8,2.2,1.8c1.3,0,2.3-0.7,2.3-0.7L-160.8,287.5z M-166.4,282.7h3c0-0.9-0.6-1.5-1.5-1.5
		C-165.6,281.2-166.2,281.7-166.4,282.7z"/>
	<path class="st4" d="M-153.2,281.8h-0.5c-1.2,0-1.9,0.8-1.9,2.1v4.5h-3.2v-9.2h1.9l0.5,1.3h0.1c0.5-0.9,1.3-1.3,2.6-1.3h0.5V281.8z
		"/>
</g>
<polygon id="XMLID_7_" class="st5" points="-8.5,231 1.5,231 1.5,261 -18.5,281 1.5,301 1.5,331 -8.5,331 -8.5,301 -28.5,281 
	-8.5,261 "/>
<g id="XMLID_8_" class="st2">
	<path class="st4" d="M53.8,279.6c0,2.7-2,4.4-5.1,4.4h-2.6v4.3h-3.2v-13.2h5.8C51.8,275.2,53.8,277,53.8,279.6z M48.5,277.9h-2.4
		v3.4h2.4c1.1,0,2-0.6,2-1.7C50.5,278.5,49.7,277.9,48.5,277.9z"/>
	<path class="st4" d="M60.8,281.8h-0.5c-1.2,0-1.9,0.8-1.9,2.1v4.5h-3.2v-9.2h1.9l0.5,1.3h0.1c0.5-0.9,1.3-1.3,2.6-1.3h0.5V281.8z"
		/>
	<path class="st4" d="M66.4,288.6c-2.7,0-4.9-1.9-4.9-4.8c0-2.9,2.2-4.9,4.9-4.9c2.7,0,4.9,1.9,4.9,4.9
		C71.3,286.7,69.1,288.6,66.4,288.6z M68.2,283.7c0-1.4-0.7-2.4-1.8-2.4c-1.1,0-1.8,0.9-1.8,2.4c0,1.4,0.7,2.4,1.8,2.4
		C67.5,286.1,68.2,285.2,68.2,283.7z"/>
	<path class="st4" d="M79,280V275h3.2v13.3h-2.1l-0.5-1.2h-0.1c0,0-0.7,1.4-2.8,1.4c-2.5,0-4.3-1.8-4.3-4.8c0-2.9,1.8-4.9,4.2-4.9
		c1.8,0,2.3,1.1,2.3,1.1H79z M77.4,281.5c-1.1,0-1.8,0.9-1.8,2.2s0.7,2.3,1.8,2.3c1.1,0,1.8-0.9,1.8-2.3S78.5,281.5,77.4,281.5z"/>
	<path class="st4" d="M90.4,279.1h3.2v9.2h-2.2l-0.5-1.2h-0.1c-0.6,0.8-1.3,1.5-2.7,1.5c-2.4,0-3.8-1.5-3.8-4v-5.4h3.2v5.2
		c0,0.9,0.5,1.6,1.4,1.6c1,0,1.5-0.7,1.5-1.5V279.1z"/>
	<path class="st4" d="M95.2,283.7c0-2.8,2-4.8,5-4.8c1.9,0,2.9,0.8,2.9,0.8l-0.8,2.3c0,0-0.8-0.5-1.8-0.5c-1.3,0-2.1,0.9-2.1,2.2
		c0,1.4,0.9,2.2,2.1,2.2c1,0,1.8-0.5,1.8-0.5l0.8,2.2c0,0-1,0.9-2.9,0.9C97.1,288.6,95.2,286.5,95.2,283.7z"/>
	<path class="st4" d="M112.5,287.5c0,0-1.2,1.1-3.6,1.1c-3.2,0-5.1-2.2-5.1-4.9c0-2.8,1.9-4.8,4.7-4.8c2.7,0,4.4,1.7,4.4,4.6
		c0,0.3,0,0.9,0,0.9h-6c0.2,1.3,0.9,1.8,2.2,1.8c1.3,0,2.3-0.7,2.3-0.7L112.5,287.5z M107,282.7h3c0-0.9-0.5-1.5-1.5-1.5
		C107.7,281.2,107.2,281.7,107,282.7z"/>
	<path class="st4" d="M120.1,281.8h-0.5c-1.2,0-1.9,0.8-1.9,2.1v4.5h-3.2v-9.2h1.9l0.5,1.3h0.1c0.5-0.9,1.3-1.3,2.6-1.3h0.5V281.8z"
		/>
</g>
</svg>
