<?xml version="1.0" encoding="utf-8"?>
<!-- Generator: Adobe Illustrator 19.0.0, SVG Export Plug-In . SVG Version: 6.00 Build 0)  -->
<svg version="1.1" id="Layer_1" xmlns="http://www.w3.org/2000/svg" xmlns:xlink="http://www.w3.org/1999/xlink" x="0px" y="0px"
	 viewBox="-266 184.7 425.2 192.3" style="enable-background:new -266 184.7 425.2 192.3;" xml:space="preserve">
<style type="text/css">
	.st0{fill:#CEDDDD;stroke:#96A3A3;stroke-width:3;stroke-linecap:round;stroke-linejoin:round;stroke-miterlimit:10;}
	.st1{enable-background:new    ;}
	.st2{fill:#333333;}
	.st3{fill:#E37E32;stroke:#E37E32;stroke-width:3;stroke-linecap:round;stroke-linejoin:round;stroke-miterlimit:10;}
</style>
<polygon id="XMLID_2_" class="st0" points="-208.5,231 -208.5,331 -68.5,331 -68.5,301 -88.5,281 -68.5,261 -68.5,231 "/>
<polygon id="XMLID_3_" class="st0" points="-58.5,281 -38.5,261 -38.5,231 101.5,231 101.5,331 -38.5,331 -38.5,301 "/>
<g id="XMLID_5_" class="st1">
	<path class="st2" d="M-180.5,287c0,0-1.4,1.6-4.5,1.6c-4.3,0-6.8-3.1-6.8-6.9c0-3.8,2.5-6.9,6.8-6.9c3.1,0,4.5,1.6,4.5,1.6
		l-1.8,2.4c0,0-0.9-1-2.6-1c-2.1,0-3.5,1.5-3.5,3.8c0,2.3,1.5,3.8,3.5,3.8c1.8,0,2.6-1,2.6-1L-180.5,287z"/>
	<path class="st2" d="M-175.2,288.6c-2.7,0-4.9-1.9-4.9-4.8c0-2.9,2.2-4.9,4.9-4.9c2.7,0,4.9,1.9,4.9,4.9
		C-170.3,286.7-172.5,288.6-175.2,288.6z M-173.4,283.7c0-1.4-0.7-2.4-1.8-2.4c-1.1,0-1.8,0.9-1.8,2.4c0,1.4,0.7,2.4,1.8,2.4
		C-174.1,286.1-173.4,285.2-173.4,283.7z"/>
	<path class="st2" d="M-168.6,279.1h1.9l0.5,1.3h0.2c0.7-1.1,1.5-1.5,2.9-1.5c2.4,0,3.9,1.6,3.9,4v5.4h-3.2v-5.2
		c0-0.8-0.6-1.5-1.5-1.5c-0.9,0-1.5,0.6-1.5,1.4v5.3h-3.2V279.1z"/>
	<path class="st2" d="M-156.9,285.5c0,0,1.5,0.9,2.9,0.9c0.8,0,1.1-0.2,1.1-0.6c0-1.2-4.8-0.4-4.8-4c0-1.7,1.3-2.9,3.8-2.9
		c2.8,0,4.2,0.8,4.2,0.8l-0.9,2.3c0,0-1.3-0.8-2.9-0.8c-0.6,0-1,0.2-1,0.5c0,1.2,4.9,0.3,4.9,3.9c0,1.7-1.2,2.9-4.2,2.9
		c-2.9,0-4.1-1-4.1-1L-156.9,285.5z"/>
	<path class="st2" d="M-141.8,279.1h3.2v9.2h-2.2l-0.5-1.2h-0.1c-0.6,0.8-1.3,1.5-2.7,1.5c-2.4,0-3.8-1.5-3.8-4v-5.4h3.2v5.2
		c0,0.9,0.5,1.6,1.4,1.6c1,0,1.5-0.7,1.5-1.5V279.1z"/>
	<path class="st2" d="M-133.3,288.4h-3.2v-9.2h1.9l0.5,1.3h0.2c0.6-0.9,1.5-1.5,2.9-1.5c1.4,0,2.6,0.5,3.2,1.5h0.1
		c0.6-0.9,1.4-1.6,2.9-1.6c2.4,0,3.8,1.6,3.8,4v5.4h-3.2v-5.2c0-0.8-0.5-1.5-1.5-1.5c-0.9,0-1.5,0.6-1.5,1.3v5.3h-3.2v-5.2
		c0-0.8-0.6-1.5-1.5-1.5c-0.9,0-1.5,0.6-1.5,1.5V288.4z"/>
	<path class="st2" d="M-110.8,287.5c0,0-1.2,1.1-3.6,1.1c-3.2,0-5.1-2.2-5.1-4.9c0-2.8,1.9-4.8,4.7-4.8c2.7,0,4.4,1.7,4.4,4.6
		c0,0.3,0,0.9,0,0.9h-6c0.2,1.3,0.9,1.8,2.2,1.8c1.3,0,2.3-0.7,2.3-0.7L-110.8,287.5z M-116.4,282.7h3c0-0.9-0.6-1.5-1.5-1.5
		C-115.6,281.2-116.2,281.7-116.4,282.7z"/>
	<path class="st2" d="M-103.2,281.8h-0.5c-1.2,0-1.9,0.8-1.9,2.1v4.5h-3.2v-9.2h1.9l0.5,1.3h0.1c0.5-0.9,1.3-1.3,2.6-1.3h0.5V281.8z
		"/>
</g>
<polygon id="XMLID_6_" class="st3" points="-58.5,231 -48.5,231 -48.5,261 -68.5,281 -48.5,301 -48.5,331 -58.5,331 -58.5,301 
	-78.5,281 -58.5,261 "/>
<g id="XMLID_8_" class="st1">
	<path class="st2" d="M3.8,279.6c0,2.7-2,4.4-5.1,4.4h-2.6v4.3h-3.2v-13.2h5.8C1.8,275.2,3.8,277,3.8,279.6z M-1.5,277.9h-2.4v3.4
		h2.4c1.1,0,2-0.6,2-1.7C0.5,278.5-0.3,277.9-1.5,277.9z"/>
	<path class="st2" d="M10.8,281.8h-0.5c-1.2,0-1.9,0.8-1.9,2.1v4.5H5.2v-9.2h1.9l0.5,1.3h0.1c0.5-0.9,1.3-1.3,2.6-1.3h0.5V281.8z"/>
	<path class="st2" d="M16.4,288.6c-2.7,0-4.9-1.9-4.9-4.8c0-2.9,2.2-4.9,4.9-4.9c2.7,0,4.9,1.9,4.9,4.9
		C21.3,286.7,19.1,288.6,16.4,288.6z M18.2,283.7c0-1.4-0.7-2.4-1.8-2.4c-1.1,0-1.8,0.9-1.8,2.4c0,1.4,0.7,2.4,1.8,2.4
		C17.5,286.1,18.2,285.2,18.2,283.7z"/>
	<path class="st2" d="M29,280V275h3.2v13.3h-2.1l-0.5-1.2h-0.1c0,0-0.7,1.4-2.8,1.4c-2.5,0-4.3-1.8-4.3-4.8c0-2.9,1.8-4.9,4.2-4.9
		c1.8,0,2.3,1.1,2.3,1.1H29z M27.4,281.5c-1.1,0-1.8,0.9-1.8,2.2s0.7,2.3,1.8,2.3c1.1,0,1.8-0.9,1.8-2.3S28.5,281.5,27.4,281.5z"/>
	<path class="st2" d="M40.4,279.1h3.2v9.2h-2.2l-0.5-1.2h-0.1c-0.6,0.8-1.3,1.5-2.7,1.5c-2.4,0-3.8-1.5-3.8-4v-5.4h3.2v5.2
		c0,0.9,0.5,1.6,1.4,1.6c1,0,1.5-0.7,1.5-1.5V279.1z"/>
	<path class="st2" d="M45.2,283.7c0-2.8,2-4.8,5-4.8c1.9,0,2.9,0.8,2.9,0.8l-0.8,2.3c0,0-0.8-0.5-1.8-0.5c-1.3,0-2.1,0.9-2.1,2.2
		c0,1.4,0.9,2.2,2.1,2.2c1,0,1.8-0.5,1.8-0.5l0.8,2.2c0,0-1,0.9-2.9,0.9C47.1,288.6,45.2,286.5,45.2,283.7z"/>
	<path class="st2" d="M62.5,287.5c0,0-1.2,1.1-3.6,1.1c-3.2,0-5.1-2.2-5.1-4.9c0-2.8,1.9-4.8,4.7-4.8c2.7,0,4.4,1.7,4.4,4.6
		c0,0.3,0,0.9,0,0.9h-6c0.2,1.3,0.9,1.8,2.2,1.8c1.3,0,2.3-0.7,2.3-0.7L62.5,287.5z M57,282.7h3c0-0.9-0.5-1.5-1.5-1.5
		C57.7,281.2,57.2,281.7,57,282.7z"/>
	<path class="st2" d="M70.1,281.8h-0.5c-1.2,0-1.9,0.8-1.9,2.1v4.5h-3.2v-9.2h1.9l0.5,1.3h0.1c0.5-0.9,1.3-1.3,2.6-1.3h0.5V281.8z"
		/>
</g>
</svg>
