<?xml version="1.0" encoding="utf-8"?>
<!-- Generator: Adobe Illustrator 19.0.0, SVG Export Plug-In . SVG Version: 6.00 Build 0)  -->
<svg version="1.1" xmlns="http://www.w3.org/2000/svg" xmlns:xlink="http://www.w3.org/1999/xlink" x="0px" y="0px"
	 viewBox="0 0 960 560" style="enable-background:new 0 0 960 560;" xml:space="preserve">
<style type="text/css">
	.st0{fill:#3FA9F5;}
	.st1{fill:#E37E32;}
	.st2{fill:#96A3A3;}
	.st3{fill:#FFFFFF;}
	.st4{fill:#9E005D;}
	.st5{fill:#FFFFFF;stroke:#333333;stroke-width:3;stroke-miterlimit:10;}
</style>
<g id="Layer_3">
	<g id="XMLID_950_">
		<path id="XMLID_1051_" class="st0" d="M286.7,533H57.3C41.1,533,28,519.9,28,503.7V55.3C28,39.1,41.1,26,57.3,26h229.5
			c16.2,0,29.3,13.1,29.3,29.3v448.5C316,519.9,302.9,533,286.7,533z"/>
		<path id="XMLID_1050_" class="st0" d="M597.7,533H368.3c-16.2,0-29.3-13.1-29.3-29.3V55.3c0-16.2,13.1-29.3,29.3-29.3h229.5
			c16.2,0,29.3,13.1,29.3,29.3v448.5C627,519.9,613.9,533,597.7,533z"/>
		<path id="XMLID_1049_" class="st0" d="M908.7,533H679.3c-16.2,0-29.3-13.1-29.3-29.3V55.3c0-16.2,13.1-29.3,29.3-29.3h229.5
			c16.2,0,29.3,13.1,29.3,29.3v448.5C938,519.9,924.9,533,908.7,533z"/>
		<g id="XMLID_1019_">
			<path id="XMLID_1046_" class="st0" d="M110,74h-4.8l-1.6-4.3H94L92.4,74h-4.8l8.8-22.2h4.7L110,74z M95.3,66.1h6.9l-3.5-9.3
				L95.3,66.1z"/>
			<path id="XMLID_1043_" class="st0" d="M116.3,72.4v7.4h-4.4V58.5h2.8l0.7,2.2h0.2c0,0,1.3-2.6,5.1-2.6c4.1,0,7.2,3.1,7.2,8.1
				c0,4.8-3.1,8.2-7.1,8.2c-3.4,0-4.4-2-4.4-2H116.3z M119.8,70.7c2.2,0,3.7-1.8,3.7-4.4c0-2.6-1.5-4.5-3.7-4.5
				c-2.1,0-3.7,1.7-3.7,4.5C116.1,69,117.6,70.7,119.8,70.7z"/>
			<path id="XMLID_1040_" class="st0" d="M135.6,72.4v7.4h-4.4V58.5h2.8l0.7,2.2h0.2c0,0,1.3-2.6,5.1-2.6c4.1,0,7.2,3.1,7.2,8.1
				c0,4.8-3.1,8.2-7.1,8.2c-3.4,0-4.4-2-4.4-2H135.6z M139,70.7c2.2,0,3.7-1.8,3.7-4.4c0-2.6-1.5-4.5-3.7-4.5
				c-2.1,0-3.7,1.7-3.7,4.5C135.3,69,136.9,70.7,139,70.7z"/>
			<path id="XMLID_1038_" class="st0" d="M150.4,51.6h4.4V74h-4.4V51.6z"/>
			<path id="XMLID_1035_" class="st0" d="M158.6,53.5c0-1.5,1.1-2.6,2.6-2.6s2.6,1.1,2.6,2.6s-1.1,2.5-2.6,2.5S158.6,55,158.6,53.5z
				 M158.9,58.5h4.4V74h-4.4V58.5z"/>
			<path id="XMLID_1033_" class="st0" d="M166.5,66.2c0-4.7,3.3-8.1,8.2-8.1c3.3,0,4.9,1.4,4.9,1.4l-1.1,3.2c0,0-1.4-0.9-3.3-0.9
				c-2.4,0-4.1,1.7-4.1,4.5c0,2.8,1.7,4.5,4.1,4.5c1.9,0,3.3-0.9,3.3-0.9l1.1,3.1c0,0-1.6,1.4-4.8,1.4
				C169.8,74.4,166.5,70.9,166.5,66.2z"/>
			<path id="XMLID_1030_" class="st0" d="M195.9,74h-3l-0.6-2h-0.2c-0.9,1.4-2.5,2.3-5,2.3c-3.6,0-5.7-2.1-5.7-4.9
				c0-3.1,2.4-5.1,7.1-5.1c1.3,0,2.4,0.2,3.2,0.4v-0.5c0-1.9-1.4-2.6-3.7-2.6c-2.3,0-4.1,1.1-4.1,1.1l-1.4-3.3c0,0,2.3-1.4,6.3-1.4
				c4.7,0,7.1,2.6,7.1,6.3V74z M191.7,68.5v-1.3c-0.4-0.2-1.2-0.5-2.7-0.5c-2.2,0-3.4,0.9-3.4,2.4c0,1.3,1,2.2,2.7,2.2
				C190.1,71.3,191.6,70.2,191.7,68.5z"/>
			<path id="XMLID_1028_" class="st0" d="M200.9,58.5v-4.7h4.4v4.7h3.8v3.4h-3.8v7c0,1.1,0.5,1.7,1.7,1.7c0.9,0,1.7-0.5,1.7-0.5
				l1.3,3.1c-0.7,0.5-2.2,1.3-4,1.3c-3.6,0-5-2.3-5-5.4v-7.1h-2.7v-3.4H200.9z"/>
			<path id="XMLID_1025_" class="st0" d="M212,53.5c0-1.5,1.1-2.6,2.6-2.6s2.6,1.1,2.6,2.6s-1.1,2.5-2.6,2.5S212,55,212,53.5z
				 M212.4,58.5h4.4V74h-4.4V58.5z"/>
			<path id="XMLID_1022_" class="st0" d="M228.1,74.4c-4.5,0-8.1-3.1-8.1-8.1c0-5,3.7-8.2,8.1-8.2c4.4,0,8.1,3.3,8.1,8.2
				C236.2,71.2,232.5,74.4,228.1,74.4z M231.8,66.2c0-2.8-1.6-4.6-3.7-4.6c-2.2,0-3.8,1.9-3.8,4.6c0,2.8,1.6,4.6,3.8,4.6
				C230.2,70.9,231.8,69.1,231.8,66.2z"/>
			<path id="XMLID_1020_" class="st0" d="M243.8,74h-4.4V58.5h2.8l0.6,2.2h0.3c1.2-1.7,2.6-2.6,5-2.6c4,0,6.5,2.7,6.5,6.9v9h-4.4
				v-8.7c0-1.9-1.1-3.4-3.1-3.4c-2,0-3.1,1.6-3.1,3.2V74z"/>
		</g>
		<g id="XMLID_982_">
			<path id="XMLID_1015_" class="st0" d="M367.5,74h-10.3V51.8h10c5.1,0,7.7,2.2,7.7,6c0,2-1.1,3.7-2.8,4.6v0.2
				c2.2,0.7,3.5,2.4,3.5,4.8C375.5,71.7,372.5,74,367.5,74z M367.1,55.7h-5.5V61h5.4c1.9,0,3.1-1.1,3.1-2.6
				C370.2,56.7,369,55.7,367.1,55.7z M361.7,64.5v5.6h5.8c1.9,0,3.3-1.1,3.3-2.8c0-1.6-1.4-2.8-3.3-2.8H361.7z"/>
			<path id="XMLID_1013_" class="st0" d="M389.2,58.5h4.4V74h-3l-0.8-2.1h-0.2c-0.7,1.1-2.1,2.5-4.8,2.5c-4,0-6.4-2.7-6.4-6.9v-9
				h4.4v8.7c0,2,1,3.5,3,3.5c2.1,0,3.2-1.7,3.2-3.2V58.5z"/>
			<path id="XMLID_1011_" class="st0" d="M398.3,69.6c0,0,2.3,1.5,5,1.5c1.7,0,2.4-0.6,2.4-1.3c0-2.5-8.7-1-8.7-7
				c0-2.7,2.1-4.7,6.2-4.7c4.4,0,6.8,1.4,6.8,1.4l-1.4,3.3c0,0-2.1-1.4-4.9-1.4c-1.4,0-2.3,0.4-2.3,1.3c0,2.4,8.8,0.8,8.8,6.8
				c0,2.7-1.9,4.8-6.7,4.8c-4.7,0-6.7-1.7-6.7-1.7L398.3,69.6z"/>
			<path id="XMLID_1008_" class="st0" d="M413.1,53.5c0-1.5,1.1-2.6,2.6-2.6s2.6,1.1,2.6,2.6s-1.1,2.5-2.6,2.5S413.1,55,413.1,53.5z
				 M413.4,58.5h4.4V74h-4.4V58.5z"/>
			<path id="XMLID_1006_" class="st0" d="M426.4,74H422V58.5h2.8l0.6,2.2h0.3c1.2-1.7,2.6-2.6,5-2.6c4,0,6.5,2.7,6.5,6.9v9h-4.4
				v-8.7c0-1.9-1.1-3.4-3.1-3.4c-2,0-3.1,1.6-3.1,3.2V74z"/>
			<path id="XMLID_1003_" class="st0" d="M454.3,72.6c0,0-1.9,1.9-5.8,1.9c-5.2,0-8.3-3.5-8.3-8.2c0-4.7,3.1-8.1,7.7-8.1
				c4.6,0,7.3,3.1,7.3,7.7c0,0.4,0,1.2,0,1.2h-10.6c0.3,2.7,1.8,3.9,4.3,3.9c2.4,0,4-1.3,4-1.3L454.3,72.6z M444.5,64.4h6.2
				c-0.2-1.9-1.2-3-3-3C446.1,61.4,444.9,62.4,444.5,64.4z"/>
			<path id="XMLID_1001_" class="st0" d="M458.6,69.6c0,0,2.3,1.5,5,1.5c1.7,0,2.4-0.6,2.4-1.3c0-2.5-8.7-1-8.7-7
				c0-2.7,2.1-4.7,6.2-4.7c4.4,0,6.8,1.4,6.8,1.4l-1.4,3.3c0,0-2.1-1.4-4.9-1.4c-1.4,0-2.3,0.4-2.3,1.3c0,2.4,8.8,0.8,8.8,6.8
				c0,2.7-1.9,4.8-6.7,4.8c-4.7,0-6.7-1.7-6.7-1.7L458.6,69.6z"/>
			<path id="XMLID_999_" class="st0" d="M474.1,69.6c0,0,2.3,1.5,5,1.5c1.7,0,2.4-0.6,2.4-1.3c0-2.5-8.7-1-8.7-7
				c0-2.7,2.1-4.7,6.2-4.7c4.4,0,6.8,1.4,6.8,1.4l-1.4,3.3c0,0-2.1-1.4-4.9-1.4c-1.4,0-2.3,0.4-2.3,1.3c0,2.4,8.8,0.8,8.8,6.8
				c0,2.7-1.9,4.8-6.7,4.8c-4.7,0-6.7-1.7-6.7-1.7L474.1,69.6z"/>
			<path id="XMLID_996_" class="st0" d="M505.6,74h-8.2V51.8h8.2c7,0,11.5,4.6,11.5,11.1C517.1,69.4,512.6,74,505.6,74z M501.9,55.7
				v14.4h3.4c4,0,7.2-2.7,7.2-7.2c0-4.7-3.2-7.2-7.2-7.2H501.9z"/>
			<path id="XMLID_993_" class="st0" d="M527.6,74.4c-4.5,0-8.1-3.1-8.1-8.1c0-5,3.7-8.2,8.1-8.2c4.4,0,8.1,3.3,8.1,8.2
				C535.7,71.2,532,74.4,527.6,74.4z M531.3,66.2c0-2.8-1.6-4.6-3.7-4.6c-2.2,0-3.8,1.9-3.8,4.6c0,2.8,1.6,4.6,3.8,4.6
				C529.8,70.9,531.3,69.1,531.3,66.2z"/>
			<path id="XMLID_991_" class="st0" d="M554,74h-4.4v-8.8c0-1.8-1.1-3.2-3.1-3.2s-3.1,1.4-3.1,3V74h-4.4V58.5h2.8l0.6,2.2h0.3
				c1-1.6,2.6-2.6,5-2.6c2.5,0,4.4,1,5.4,2.7h0.2c1-1.6,2.5-2.7,5.1-2.7c4,0,6.4,2.7,6.4,6.9v9h-4.4v-8.7c0-1.9-1.1-3.4-3.1-3.4
				c-2.1,0-3.1,1.5-3.1,3.1V74z"/>
			<path id="XMLID_988_" class="st0" d="M581.9,74h-3l-0.6-2h-0.2c-0.9,1.4-2.5,2.3-5,2.3c-3.6,0-5.7-2.1-5.7-4.9
				c0-3.1,2.4-5.1,7.1-5.1c1.3,0,2.4,0.2,3.2,0.4v-0.5c0-1.9-1.4-2.6-3.7-2.6c-2.3,0-4.1,1.1-4.1,1.1l-1.4-3.3c0,0,2.3-1.4,6.3-1.4
				c4.7,0,7.1,2.6,7.1,6.3V74z M577.6,68.5v-1.3c-0.4-0.2-1.2-0.5-2.7-0.5c-2.2,0-3.4,0.9-3.4,2.4c0,1.3,1,2.2,2.7,2.2
				C576.1,71.3,577.6,70.2,577.6,68.5z"/>
			<path id="XMLID_985_" class="st0" d="M585.4,53.5c0-1.5,1.1-2.6,2.6-2.6s2.6,1.1,2.6,2.6S589.5,56,588,56S585.4,55,585.4,53.5z
				 M585.8,58.5h4.4V74h-4.4V58.5z"/>
			<path id="XMLID_983_" class="st0" d="M598.8,74h-4.4V58.5h2.8l0.6,2.2h0.3c1.2-1.7,2.6-2.6,5-2.6c4,0,6.5,2.7,6.5,6.9v9H605v-8.7
				c0-1.9-1.1-3.4-3.1-3.4c-2,0-3.1,1.6-3.1,3.2V74z"/>
		</g>
		<g id="XMLID_951_">
			<path id="XMLID_980_" class="st0" d="M699.7,74h-4.5V51.8h4.5V74z"/>
			<path id="XMLID_978_" class="st0" d="M708.7,74h-4.4V58.5h2.8l0.6,2.2h0.3c1.2-1.7,2.6-2.6,5-2.6c4,0,6.5,2.7,6.5,6.9v9H715v-8.7
				c0-1.9-1.1-3.4-3.1-3.4c-2,0-3.1,1.6-3.1,3.2V74z"/>
			<path id="XMLID_976_" class="st0" d="M729,61.9V74h-4.4V61.9h-2.7v-3.4h2.7v-0.9c0-3.8,2.1-6.2,5.9-6.2c2.3,0,3.7,0.7,3.7,0.7
				l-1.4,3.3c0,0-0.7-0.3-1.7-0.3c-1.3,0-2.1,0.9-2.1,2.3v1.1h4.1v3.4H729z"/>
			<path id="XMLID_974_" class="st0" d="M744.3,62.2h-0.8c-2.1,0-3.6,1.4-3.6,3.8v8h-4.4V58.5h2.8l0.6,2.3h0.2
				c0.8-1.5,2.3-2.3,4.3-2.3h0.9V62.2z"/>
			<path id="XMLID_971_" class="st0" d="M760,74h-3l-0.6-2h-0.2c-0.9,1.4-2.5,2.3-5,2.3c-3.6,0-5.7-2.1-5.7-4.9
				c0-3.1,2.4-5.1,7.1-5.1c1.3,0,2.4,0.2,3.2,0.4v-0.5c0-1.9-1.4-2.6-3.7-2.6c-2.3,0-4.1,1.1-4.1,1.1l-1.4-3.3c0,0,2.3-1.4,6.3-1.4
				c4.7,0,7.1,2.6,7.1,6.3V74z M755.8,68.5v-1.3c-0.4-0.2-1.2-0.5-2.7-0.5c-2.2,0-3.4,0.9-3.4,2.4c0,1.3,1,2.2,2.7,2.2
				C754.2,71.3,755.7,70.2,755.8,68.5z"/>
			<path id="XMLID_969_" class="st0" d="M764.4,69.6c0,0,2.3,1.5,5,1.5c1.7,0,2.4-0.6,2.4-1.3c0-2.5-8.7-1-8.7-7
				c0-2.7,2.1-4.7,6.2-4.7c4.4,0,6.8,1.4,6.8,1.4l-1.4,3.3c0,0-2.1-1.4-4.9-1.4c-1.4,0-2.3,0.4-2.3,1.3c0,2.4,8.8,0.8,8.8,6.8
				c0,2.7-1.9,4.8-6.7,4.8c-4.7,0-6.7-1.7-6.7-1.7L764.4,69.6z"/>
			<path id="XMLID_967_" class="st0" d="M780.8,58.5v-4.7h4.4v4.7h3.8v3.4h-3.8v7c0,1.1,0.5,1.7,1.7,1.7c0.9,0,1.7-0.5,1.7-0.5
				l1.3,3.1c-0.7,0.5-2.2,1.3-4,1.3c-3.6,0-5-2.3-5-5.4v-7.1h-2.7v-3.4H780.8z"/>
			<path id="XMLID_965_" class="st0" d="M801,62.2h-0.8c-2.1,0-3.6,1.4-3.6,3.8v8h-4.4V58.5h2.8l0.6,2.3h0.2
				c0.8-1.5,2.3-2.3,4.3-2.3h0.9V62.2z"/>
			<path id="XMLID_963_" class="st0" d="M814,58.5h4.4V74h-3l-0.8-2.1h-0.2c-0.7,1.1-2.1,2.5-4.8,2.5c-4,0-6.4-2.7-6.4-6.9v-9h4.4
				v8.7c0,2,1,3.5,3,3.5c2.1,0,3.2-1.7,3.2-3.2V58.5z"/>
			<path id="XMLID_961_" class="st0" d="M821.6,66.2c0-4.7,3.3-8.1,8.2-8.1c3.3,0,4.9,1.4,4.9,1.4l-1.1,3.2c0,0-1.4-0.9-3.3-0.9
				c-2.4,0-4.1,1.7-4.1,4.5c0,2.8,1.7,4.5,4.1,4.5c1.9,0,3.3-0.9,3.3-0.9l1.1,3.1c0,0-1.6,1.4-4.8,1.4
				C824.9,74.4,821.6,70.9,821.6,66.2z"/>
			<path id="XMLID_959_" class="st0" d="M838.8,58.5v-4.7h4.4v4.7h3.8v3.4h-3.8v7c0,1.1,0.5,1.7,1.7,1.7c0.9,0,1.7-0.5,1.7-0.5
				l1.3,3.1c-0.7,0.5-2.2,1.3-4,1.3c-3.6,0-5-2.3-5-5.4v-7.1h-2.7v-3.4H838.8z"/>
			<path id="XMLID_957_" class="st0" d="M860.8,58.5h4.4V74h-3l-0.8-2.1h-0.2c-0.7,1.1-2.1,2.5-4.8,2.5c-4,0-6.4-2.7-6.4-6.9v-9h4.4
				v8.7c0,2,1,3.5,3,3.5c2.1,0,3.2-1.7,3.2-3.2V58.5z"/>
			<path id="XMLID_955_" class="st0" d="M878.1,62.2h-0.8c-2.1,0-3.6,1.4-3.6,3.8v8h-4.4V58.5h2.8l0.6,2.3h0.2
				c0.8-1.5,2.3-2.3,4.3-2.3h0.9V62.2z"/>
			<path id="XMLID_952_" class="st0" d="M893.6,72.6c0,0-1.9,1.9-5.8,1.9c-5.2,0-8.3-3.5-8.3-8.2c0-4.7,3.1-8.1,7.7-8.1
				c4.6,0,7.3,3.1,7.3,7.7c0,0.4,0,1.2,0,1.2h-10.6c0.3,2.7,1.9,3.9,4.3,3.9c2.4,0,4-1.3,4-1.3L893.6,72.6z M883.8,64.4h6.2
				c-0.2-1.9-1.2-3-3-3C885.4,61.4,884.2,62.4,883.8,64.4z"/>
		</g>
	</g>
	<g id="XMLID_848_">
		<path id="XMLID_949_" class="st0" d="M286.7,533H57.3C41.1,533,28,519.9,28,503.7V55.3C28,39.1,41.1,26,57.3,26h229.5
			c16.2,0,29.3,13.1,29.3,29.3v448.5C316,519.9,302.9,533,286.7,533z"/>
		<path id="XMLID_948_" class="st1" d="M597.7,533H368.3c-16.2,0-29.3-13.1-29.3-29.3V55.3c0-16.2,13.1-29.3,29.3-29.3h229.5
			c16.2,0,29.3,13.1,29.3,29.3v448.5C627,519.9,613.9,533,597.7,533z"/>
		<path id="XMLID_947_" class="st2" d="M908.7,533H679.3c-16.2,0-29.3-13.1-29.3-29.3V55.3c0-16.2,13.1-29.3,29.3-29.3h229.5
			c16.2,0,29.3,13.1,29.3,29.3v448.5C938,519.9,924.9,533,908.7,533z"/>
		<g id="XMLID_917_">
			<path id="XMLID_944_" class="st3" d="M110,74h-4.8l-1.6-4.3H94L92.4,74h-4.8l8.8-22.2h4.7L110,74z M95.3,66.1h6.9l-3.5-9.3
				L95.3,66.1z"/>
			<path id="XMLID_941_" class="st3" d="M116.3,72.4v7.4h-4.4V58.5h2.8l0.7,2.2h0.2c0,0,1.3-2.6,5.1-2.6c4.1,0,7.2,3.1,7.2,8.1
				c0,4.8-3.1,8.2-7.1,8.2c-3.4,0-4.4-2-4.4-2H116.3z M119.8,70.7c2.2,0,3.7-1.8,3.7-4.4c0-2.6-1.5-4.5-3.7-4.5
				c-2.1,0-3.7,1.7-3.7,4.5C116.1,69,117.6,70.7,119.8,70.7z"/>
			<path id="XMLID_938_" class="st3" d="M135.6,72.4v7.4h-4.4V58.5h2.8l0.7,2.2h0.2c0,0,1.3-2.6,5.1-2.6c4.1,0,7.2,3.1,7.2,8.1
				c0,4.8-3.1,8.2-7.1,8.2c-3.4,0-4.4-2-4.4-2H135.6z M139,70.7c2.2,0,3.7-1.8,3.7-4.4c0-2.6-1.5-4.5-3.7-4.5
				c-2.1,0-3.7,1.7-3.7,4.5C135.3,69,136.9,70.7,139,70.7z"/>
			<path id="XMLID_936_" class="st3" d="M150.4,51.6h4.4V74h-4.4V51.6z"/>
			<path id="XMLID_933_" class="st3" d="M158.6,53.5c0-1.5,1.1-2.6,2.6-2.6s2.6,1.1,2.6,2.6s-1.1,2.5-2.6,2.5S158.6,55,158.6,53.5z
				 M158.9,58.5h4.4V74h-4.4V58.5z"/>
			<path id="XMLID_931_" class="st3" d="M166.5,66.2c0-4.7,3.3-8.1,8.2-8.1c3.3,0,4.9,1.4,4.9,1.4l-1.1,3.2c0,0-1.4-0.9-3.3-0.9
				c-2.4,0-4.1,1.7-4.1,4.5c0,2.8,1.7,4.5,4.1,4.5c1.9,0,3.3-0.9,3.3-0.9l1.1,3.1c0,0-1.6,1.4-4.8,1.4
				C169.8,74.4,166.5,70.9,166.5,66.2z"/>
			<path id="XMLID_928_" class="st3" d="M195.9,74h-3l-0.6-2h-0.2c-0.9,1.4-2.5,2.3-5,2.3c-3.6,0-5.7-2.1-5.7-4.9
				c0-3.1,2.4-5.1,7.1-5.1c1.3,0,2.4,0.2,3.2,0.4v-0.5c0-1.9-1.4-2.6-3.7-2.6c-2.3,0-4.1,1.1-4.1,1.1l-1.4-3.3c0,0,2.3-1.4,6.3-1.4
				c4.7,0,7.1,2.6,7.1,6.3V74z M191.7,68.5v-1.3c-0.4-0.2-1.2-0.5-2.7-0.5c-2.2,0-3.4,0.9-3.4,2.4c0,1.3,1,2.2,2.7,2.2
				C190.1,71.3,191.6,70.2,191.7,68.5z"/>
			<path id="XMLID_926_" class="st3" d="M200.9,58.5v-4.7h4.4v4.7h3.8v3.4h-3.8v7c0,1.1,0.5,1.7,1.7,1.7c0.9,0,1.7-0.5,1.7-0.5
				l1.3,3.1c-0.7,0.5-2.2,1.3-4,1.3c-3.6,0-5-2.3-5-5.4v-7.1h-2.7v-3.4H200.9z"/>
			<path id="XMLID_923_" class="st3" d="M212,53.5c0-1.5,1.1-2.6,2.6-2.6s2.6,1.1,2.6,2.6s-1.1,2.5-2.6,2.5S212,55,212,53.5z
				 M212.4,58.5h4.4V74h-4.4V58.5z"/>
			<path id="XMLID_920_" class="st3" d="M228.1,74.4c-4.5,0-8.1-3.1-8.1-8.1c0-5,3.7-8.2,8.1-8.2c4.4,0,8.1,3.3,8.1,8.2
				C236.2,71.2,232.5,74.4,228.1,74.4z M231.8,66.2c0-2.8-1.6-4.6-3.7-4.6c-2.2,0-3.8,1.9-3.8,4.6c0,2.8,1.6,4.6,3.8,4.6
				C230.2,70.9,231.8,69.1,231.8,66.2z"/>
			<path id="XMLID_918_" class="st3" d="M243.8,74h-4.4V58.5h2.8l0.6,2.2h0.3c1.2-1.7,2.6-2.6,5-2.6c4,0,6.5,2.7,6.5,6.9v9h-4.4
				v-8.7c0-1.9-1.1-3.4-3.1-3.4c-2,0-3.1,1.6-3.1,3.2V74z"/>
		</g>
		<g id="XMLID_880_">
			<path id="XMLID_913_" class="st3" d="M367.5,74h-10.3V51.8h10c5.1,0,7.7,2.2,7.7,6c0,2-1.1,3.7-2.8,4.6v0.2
				c2.2,0.7,3.5,2.4,3.5,4.8C375.5,71.7,372.5,74,367.5,74z M367.1,55.7h-5.5V61h5.4c1.9,0,3.1-1.1,3.1-2.6
				C370.2,56.7,369,55.7,367.1,55.7z M361.7,64.5v5.6h5.8c1.9,0,3.3-1.1,3.3-2.8c0-1.6-1.4-2.8-3.3-2.8H361.7z"/>
			<path id="XMLID_911_" class="st3" d="M389.2,58.5h4.4V74h-3l-0.8-2.1h-0.2c-0.7,1.1-2.1,2.5-4.8,2.5c-4,0-6.4-2.7-6.4-6.9v-9h4.4
				v8.7c0,2,1,3.5,3,3.5c2.1,0,3.2-1.7,3.2-3.2V58.5z"/>
			<path id="XMLID_909_" class="st3" d="M398.3,69.6c0,0,2.3,1.5,5,1.5c1.7,0,2.4-0.6,2.4-1.3c0-2.5-8.7-1-8.7-7
				c0-2.7,2.1-4.7,6.2-4.7c4.4,0,6.8,1.4,6.8,1.4l-1.4,3.3c0,0-2.1-1.4-4.9-1.4c-1.4,0-2.3,0.4-2.3,1.3c0,2.4,8.8,0.8,8.8,6.8
				c0,2.7-1.9,4.8-6.7,4.8c-4.7,0-6.7-1.7-6.7-1.7L398.3,69.6z"/>
			<path id="XMLID_906_" class="st3" d="M413.1,53.5c0-1.5,1.1-2.6,2.6-2.6s2.6,1.1,2.6,2.6s-1.1,2.5-2.6,2.5S413.1,55,413.1,53.5z
				 M413.4,58.5h4.4V74h-4.4V58.5z"/>
			<path id="XMLID_904_" class="st3" d="M426.4,74H422V58.5h2.8l0.6,2.2h0.3c1.2-1.7,2.6-2.6,5-2.6c4,0,6.5,2.7,6.5,6.9v9h-4.4v-8.7
				c0-1.9-1.1-3.4-3.1-3.4c-2,0-3.1,1.6-3.1,3.2V74z"/>
			<path id="XMLID_901_" class="st3" d="M454.3,72.6c0,0-1.9,1.9-5.8,1.9c-5.2,0-8.3-3.5-8.3-8.2c0-4.7,3.1-8.1,7.7-8.1
				c4.6,0,7.3,3.1,7.3,7.7c0,0.4,0,1.2,0,1.2h-10.6c0.3,2.7,1.8,3.9,4.3,3.9c2.4,0,4-1.3,4-1.3L454.3,72.6z M444.5,64.4h6.2
				c-0.2-1.9-1.2-3-3-3C446.1,61.4,444.9,62.4,444.5,64.4z"/>
			<path id="XMLID_899_" class="st3" d="M458.6,69.6c0,0,2.3,1.5,5,1.5c1.7,0,2.4-0.6,2.4-1.3c0-2.5-8.7-1-8.7-7
				c0-2.7,2.1-4.7,6.2-4.7c4.4,0,6.8,1.4,6.8,1.4l-1.4,3.3c0,0-2.1-1.4-4.9-1.4c-1.4,0-2.3,0.4-2.3,1.3c0,2.4,8.8,0.8,8.8,6.8
				c0,2.7-1.9,4.8-6.7,4.8c-4.7,0-6.7-1.7-6.7-1.7L458.6,69.6z"/>
			<path id="XMLID_897_" class="st3" d="M474.1,69.6c0,0,2.3,1.5,5,1.5c1.7,0,2.4-0.6,2.4-1.3c0-2.5-8.7-1-8.7-7
				c0-2.7,2.1-4.7,6.2-4.7c4.4,0,6.8,1.4,6.8,1.4l-1.4,3.3c0,0-2.1-1.4-4.9-1.4c-1.4,0-2.3,0.4-2.3,1.3c0,2.4,8.8,0.8,8.8,6.8
				c0,2.7-1.9,4.8-6.7,4.8c-4.7,0-6.7-1.7-6.7-1.7L474.1,69.6z"/>
			<path id="XMLID_894_" class="st3" d="M505.6,74h-8.2V51.8h8.2c7,0,11.5,4.6,11.5,11.1C517.1,69.4,512.6,74,505.6,74z M501.9,55.7
				v14.4h3.4c4,0,7.2-2.7,7.2-7.2c0-4.7-3.2-7.2-7.2-7.2H501.9z"/>
			<path id="XMLID_891_" class="st3" d="M527.6,74.4c-4.5,0-8.1-3.1-8.1-8.1c0-5,3.7-8.2,8.1-8.2c4.4,0,8.1,3.3,8.1,8.2
				C535.7,71.2,532,74.4,527.6,74.4z M531.3,66.2c0-2.8-1.6-4.6-3.7-4.6c-2.2,0-3.8,1.9-3.8,4.6c0,2.8,1.6,4.6,3.8,4.6
				C529.8,70.9,531.3,69.1,531.3,66.2z"/>
			<path id="XMLID_889_" class="st3" d="M554,74h-4.4v-8.8c0-1.8-1.1-3.2-3.1-3.2s-3.1,1.4-3.1,3V74h-4.4V58.5h2.8l0.6,2.2h0.3
				c1-1.6,2.6-2.6,5-2.6c2.5,0,4.4,1,5.4,2.7h0.2c1-1.6,2.5-2.7,5.1-2.7c4,0,6.4,2.7,6.4,6.9v9h-4.4v-8.7c0-1.9-1.1-3.4-3.1-3.4
				c-2.1,0-3.1,1.5-3.1,3.1V74z"/>
			<path id="XMLID_886_" class="st3" d="M581.9,74h-3l-0.6-2h-0.2c-0.9,1.4-2.5,2.3-5,2.3c-3.6,0-5.7-2.1-5.7-4.9
				c0-3.1,2.4-5.1,7.1-5.1c1.3,0,2.4,0.2,3.2,0.4v-0.5c0-1.9-1.4-2.6-3.7-2.6c-2.3,0-4.1,1.1-4.1,1.1l-1.4-3.3c0,0,2.3-1.4,6.3-1.4
				c4.7,0,7.1,2.6,7.1,6.3V74z M577.6,68.5v-1.3c-0.4-0.2-1.2-0.5-2.7-0.5c-2.2,0-3.4,0.9-3.4,2.4c0,1.3,1,2.2,2.7,2.2
				C576.1,71.3,577.6,70.2,577.6,68.5z"/>
			<path id="XMLID_883_" class="st3" d="M585.4,53.5c0-1.5,1.1-2.6,2.6-2.6s2.6,1.1,2.6,2.6S589.5,56,588,56S585.4,55,585.4,53.5z
				 M585.8,58.5h4.4V74h-4.4V58.5z"/>
			<path id="XMLID_881_" class="st3" d="M598.8,74h-4.4V58.5h2.8l0.6,2.2h0.3c1.2-1.7,2.6-2.6,5-2.6c4,0,6.5,2.7,6.5,6.9v9H605v-8.7
				c0-1.9-1.1-3.4-3.1-3.4c-2,0-3.1,1.6-3.1,3.2V74z"/>
		</g>
		<g id="XMLID_849_">
			<path id="XMLID_878_" class="st3" d="M699.7,74h-4.5V51.8h4.5V74z"/>
			<path id="XMLID_876_" class="st3" d="M708.7,74h-4.4V58.5h2.8l0.6,2.2h0.3c1.2-1.7,2.6-2.6,5-2.6c4,0,6.5,2.7,6.5,6.9v9H715v-8.7
				c0-1.9-1.1-3.4-3.1-3.4c-2,0-3.1,1.6-3.1,3.2V74z"/>
			<path id="XMLID_874_" class="st3" d="M729,61.9V74h-4.4V61.9h-2.7v-3.4h2.7v-0.9c0-3.8,2.1-6.2,5.9-6.2c2.3,0,3.7,0.7,3.7,0.7
				l-1.4,3.3c0,0-0.7-0.3-1.7-0.3c-1.3,0-2.1,0.9-2.1,2.3v1.1h4.1v3.4H729z"/>
			<path id="XMLID_872_" class="st3" d="M744.3,62.2h-0.8c-2.1,0-3.6,1.4-3.6,3.8v8h-4.4V58.5h2.8l0.6,2.3h0.2
				c0.8-1.5,2.3-2.3,4.3-2.3h0.9V62.2z"/>
			<path id="XMLID_869_" class="st3" d="M760,74h-3l-0.6-2h-0.2c-0.9,1.4-2.5,2.3-5,2.3c-3.6,0-5.7-2.1-5.7-4.9
				c0-3.1,2.4-5.1,7.1-5.1c1.3,0,2.4,0.2,3.2,0.4v-0.5c0-1.9-1.4-2.6-3.7-2.6c-2.3,0-4.1,1.1-4.1,1.1l-1.4-3.3c0,0,2.3-1.4,6.3-1.4
				c4.7,0,7.1,2.6,7.1,6.3V74z M755.8,68.5v-1.3c-0.4-0.2-1.2-0.5-2.7-0.5c-2.2,0-3.4,0.9-3.4,2.4c0,1.3,1,2.2,2.7,2.2
				C754.2,71.3,755.7,70.2,755.8,68.5z"/>
			<path id="XMLID_867_" class="st3" d="M764.4,69.6c0,0,2.3,1.5,5,1.5c1.7,0,2.4-0.6,2.4-1.3c0-2.5-8.7-1-8.7-7
				c0-2.7,2.1-4.7,6.2-4.7c4.4,0,6.8,1.4,6.8,1.4l-1.4,3.3c0,0-2.1-1.4-4.9-1.4c-1.4,0-2.3,0.4-2.3,1.3c0,2.4,8.8,0.8,8.8,6.8
				c0,2.7-1.9,4.8-6.7,4.8c-4.7,0-6.7-1.7-6.7-1.7L764.4,69.6z"/>
			<path id="XMLID_865_" class="st3" d="M780.8,58.5v-4.7h4.4v4.7h3.8v3.4h-3.8v7c0,1.1,0.5,1.7,1.7,1.7c0.9,0,1.7-0.5,1.7-0.5
				l1.3,3.1c-0.7,0.5-2.2,1.3-4,1.3c-3.6,0-5-2.3-5-5.4v-7.1h-2.7v-3.4H780.8z"/>
			<path id="XMLID_863_" class="st3" d="M801,62.2h-0.8c-2.1,0-3.6,1.4-3.6,3.8v8h-4.4V58.5h2.8l0.6,2.3h0.2
				c0.8-1.5,2.3-2.3,4.3-2.3h0.9V62.2z"/>
			<path id="XMLID_861_" class="st3" d="M814,58.5h4.4V74h-3l-0.8-2.1h-0.2c-0.7,1.1-2.1,2.5-4.8,2.5c-4,0-6.4-2.7-6.4-6.9v-9h4.4
				v8.7c0,2,1,3.5,3,3.5c2.1,0,3.2-1.7,3.2-3.2V58.5z"/>
			<path id="XMLID_859_" class="st3" d="M821.6,66.2c0-4.7,3.3-8.1,8.2-8.1c3.3,0,4.9,1.4,4.9,1.4l-1.1,3.2c0,0-1.4-0.9-3.3-0.9
				c-2.4,0-4.1,1.7-4.1,4.5c0,2.8,1.7,4.5,4.1,4.5c1.9,0,3.3-0.9,3.3-0.9l1.1,3.1c0,0-1.6,1.4-4.8,1.4
				C824.9,74.4,821.6,70.9,821.6,66.2z"/>
			<path id="XMLID_857_" class="st3" d="M838.8,58.5v-4.7h4.4v4.7h3.8v3.4h-3.8v7c0,1.1,0.5,1.7,1.7,1.7c0.9,0,1.7-0.5,1.7-0.5
				l1.3,3.1c-0.7,0.5-2.2,1.3-4,1.3c-3.6,0-5-2.3-5-5.4v-7.1h-2.7v-3.4H838.8z"/>
			<path id="XMLID_855_" class="st3" d="M860.8,58.5h4.4V74h-3l-0.8-2.1h-0.2c-0.7,1.1-2.1,2.5-4.8,2.5c-4,0-6.4-2.7-6.4-6.9v-9h4.4
				v8.7c0,2,1,3.5,3,3.5c2.1,0,3.2-1.7,3.2-3.2V58.5z"/>
			<path id="XMLID_853_" class="st3" d="M878.1,62.2h-0.8c-2.1,0-3.6,1.4-3.6,3.8v8h-4.4V58.5h2.8l0.6,2.3h0.2
				c0.8-1.5,2.3-2.3,4.3-2.3h0.9V62.2z"/>
			<path id="XMLID_850_" class="st3" d="M893.6,72.6c0,0-1.9,1.9-5.8,1.9c-5.2,0-8.3-3.5-8.3-8.2c0-4.7,3.1-8.1,7.7-8.1
				c4.6,0,7.3,3.1,7.3,7.7c0,0.4,0,1.2,0,1.2h-10.6c0.3,2.7,1.9,3.9,4.3,3.9c2.4,0,4-1.3,4-1.3L893.6,72.6z M883.8,64.4h6.2
				c-0.2-1.9-1.2-3-3-3C885.4,61.4,884.2,62.4,883.8,64.4z"/>
		</g>
	</g>
</g>
<g id="Layer_1">
	<g id="XMLID_41_">
		<g id="XMLID_26_">
			<g id="XMLID_27_">
				<g id="XMLID_28_">
					<path id="XMLID_82_" class="st4" d="M642.7,325.9c-0.3,0-0.7-0.1-1-0.3c-0.6-0.4-1-1-1-1.7v-8.8H596c-1.1,0-2-0.9-2-2v-21.6
						c0-1.1,0.9-2,2-2h44.7v-8.8c0-0.7,0.4-1.4,1-1.7c0.3-0.2,0.7-0.3,1-0.3s0.7,0.1,1,0.3l37.3,21.6c0.6,0.4,1,1,1,1.7
						c0,0.7-0.4,1.4-1,1.7l-37.3,21.6C643.3,325.8,643,325.9,642.7,325.9z"/>
					<path id="XMLID_71_" class="st3" d="M642.7,280.8l37.3,21.6l-37.3,21.6v-10.8H596v-21.6h46.7V280.8 M642.7,276.8
						c-0.7,0-1.4,0.2-2,0.5c-1.2,0.7-2,2-2,3.5v6.8H596c-2.2,0-4,1.8-4,4v21.6c0,2.2,1.8,4,4,4h42.7v6.8c0,1.4,0.8,2.7,2,3.5
						c0.6,0.4,1.3,0.5,2,0.5c0.7,0,1.4-0.2,2-0.5l37.3-21.6c1.2-0.7,2-2,2-3.5s-0.8-2.7-2-3.5l-37.3-21.6
						C644,276.9,643.3,276.8,642.7,276.8L642.7,276.8z"/>
				</g>
			</g>
		</g>
		<g id="XMLID_33_">
			<path id="XMLID_321_" class="st3" d="M602.9,299.8v-4.2h1.8v10.9h-1.2l-0.3-1.1h-0.1c0,0-0.6,1.3-2.3,1.3c-1.8,0-3.2-1.5-3.2-4
				c0-2.4,1.4-4,3.2-4C602.3,298.8,602.8,299.8,602.9,299.8L602.9,299.8z M601.1,300.2c-1.1,0-1.8,1-1.8,2.5c0,1.5,0.8,2.5,1.8,2.5
				c1,0,1.8-1,1.8-2.5C603,301.2,602.2,300.2,601.1,300.2z"/>
			<path id="XMLID_324_" class="st3" d="M612.3,305.8c0,0-0.8,0.9-2.6,0.9c-2.3,0-3.6-1.7-3.6-4c0-2.3,1.3-4,3.4-4
				c2,0,3.2,1.6,3.2,3.8v0.5h-4.8c0.1,1.5,0.9,2.3,2.1,2.3c1.1,0,1.8-0.7,1.8-0.7L612.3,305.8z M607.9,301.8h3
				c-0.1-1.1-0.6-1.7-1.5-1.7S608.1,300.7,607.9,301.8z"/>
			<path id="XMLID_327_" class="st3" d="M615.8,305.6v3.7h-1.8v-10.4h1.2l0.2,1.1h0.1c0,0,0.6-1.3,2.3-1.3c1.8,0,3.2,1.5,3.2,4
				c0,2.4-1.4,4-3.2,4C616.4,306.7,615.9,305.6,615.8,305.6L615.8,305.6z M617.6,305.2c1,0,1.8-1,1.8-2.5c0-1.5-0.8-2.5-1.8-2.5
				c-1,0-1.8,1-1.8,2.5C615.8,304.3,616.5,305.2,617.6,305.2z"/>
			<path id="XMLID_330_" class="st3" d="M628.4,305.8c0,0-0.8,0.9-2.6,0.9c-2.3,0-3.6-1.7-3.6-4c0-2.3,1.3-4,3.4-4
				c2,0,3.2,1.6,3.2,3.8v0.5h-4.8c0.1,1.5,0.9,2.3,2.1,2.3c1.1,0,1.8-0.7,1.8-0.7L628.4,305.8z M624,301.8h3
				c-0.1-1.1-0.6-1.7-1.5-1.7C624.7,300.1,624.2,300.7,624,301.8z"/>
			<path id="XMLID_333_" class="st3" d="M632,306.5h-1.8v-7.6h1.1l0.2,1.1h0.1c0.6-0.8,1.2-1.3,2.3-1.3c1.8,0,2.9,1.4,2.9,3.4v4.3
				h-1.8v-4.2c0-1.2-0.5-2.1-1.5-2.1c-1.1,0-1.6,1-1.6,1.8V306.5z"/>
			<path id="XMLID_335_" class="st3" d="M643.6,299.8v-4.2h1.8v10.9h-1.2l-0.3-1.1h-0.1c0,0-0.6,1.3-2.3,1.3c-1.8,0-3.2-1.5-3.2-4
				c0-2.4,1.4-4,3.2-4C643,298.8,643.5,299.8,643.6,299.8L643.6,299.8z M641.8,300.2c-1.1,0-1.8,1-1.8,2.5c0,1.5,0.8,2.5,1.8,2.5
				c1,0,1.8-1,1.8-2.5C643.7,301.2,642.9,300.2,641.8,300.2z"/>
		</g>
	</g>
	<g id="XMLID_59_">
		<g id="XMLID_62_">
			<g id="XMLID_63_">
				<g id="XMLID_68_">
					<path id="XMLID_89_" class="st4" d="M331.6,325.9c-0.3,0-0.7-0.1-1-0.3c-0.6-0.4-1-1-1-1.7v-8.8H285c-1.1,0-2-0.9-2-2v-21.6
						c0-1.1,0.9-2,2-2h44.6v-8.8c0-0.7,0.4-1.4,1-1.7c0.3-0.2,0.7-0.3,1-0.3s0.7,0.1,1,0.3l37.4,21.6c0.6,0.4,1,1,1,1.7
						c0,0.7-0.4,1.4-1,1.7l-37.4,21.6C332.3,325.8,332,325.9,331.6,325.9z"/>
					<path id="XMLID_86_" class="st3" d="M331.7,280.8l37.3,21.6l-37.3,21.6v-10.8H285v-21.6h46.7V280.8 M331.7,276.8
						c-0.7,0-1.4,0.2-2,0.5c-1.2,0.7-2,2-2,3.5v6.8H285c-2.2,0-4,1.8-4,4v21.6c0,2.2,1.8,4,4,4h42.7v6.8c0,1.4,0.8,2.7,2,3.5
						c0.6,0.4,1.3,0.5,2,0.5c0.7,0,1.4-0.2,2-0.5l37.3-21.6c1.2-0.7,2-2,2-3.5s-0.8-2.7-2-3.5l-37.3-21.6
						C333,276.9,332.3,276.8,331.7,276.8L331.7,276.8z"/>
				</g>
			</g>
		</g>
		<g id="XMLID_61_">
			<path id="XMLID_304_" class="st3" d="M291.9,299.8v-4.2h1.8v10.9h-1.2l-0.3-1.1h-0.1c0,0-0.6,1.3-2.3,1.3c-1.8,0-3.2-1.5-3.2-4
				c0-2.4,1.4-4,3.2-4C291.3,298.8,291.8,299.8,291.9,299.8L291.9,299.8z M290.1,300.2c-1.1,0-1.8,1-1.8,2.5c0,1.5,0.8,2.5,1.8,2.5
				c1,0,1.8-1,1.8-2.5C292,301.2,291.2,300.2,290.1,300.2z"/>
			<path id="XMLID_307_" class="st3" d="M301.3,305.8c0,0-0.8,0.9-2.6,0.9c-2.3,0-3.6-1.7-3.6-4c0-2.3,1.3-4,3.4-4
				c2,0,3.2,1.6,3.2,3.8v0.5h-4.8c0.1,1.5,0.9,2.3,2.1,2.3c1.1,0,1.8-0.7,1.8-0.7L301.3,305.8z M296.9,301.8h3
				c-0.1-1.1-0.6-1.7-1.5-1.7S297.1,300.7,296.9,301.8z"/>
			<path id="XMLID_310_" class="st3" d="M304.8,305.6v3.7h-1.8v-10.4h1.2l0.2,1.1h0.1c0,0,0.6-1.3,2.3-1.3c1.8,0,3.2,1.5,3.2,4
				c0,2.4-1.4,4-3.2,4C305.4,306.7,304.9,305.6,304.8,305.6L304.8,305.6z M306.6,305.2c1,0,1.8-1,1.8-2.5c0-1.5-0.8-2.5-1.8-2.5
				s-1.8,1-1.8,2.5C304.8,304.3,305.5,305.2,306.6,305.2z"/>
			<path id="XMLID_313_" class="st3" d="M317.4,305.8c0,0-0.8,0.9-2.6,0.9c-2.3,0-3.6-1.7-3.6-4c0-2.3,1.3-4,3.4-4
				c2,0,3.2,1.6,3.2,3.8v0.5h-4.8c0.1,1.5,0.9,2.3,2.1,2.3c1.1,0,1.8-0.7,1.8-0.7L317.4,305.8z M313,301.8h3
				c-0.1-1.1-0.6-1.7-1.5-1.7S313.2,300.7,313,301.8z"/>
			<path id="XMLID_316_" class="st3" d="M321,306.5h-1.8v-7.6h1.1l0.2,1.1h0.1c0.6-0.8,1.2-1.3,2.3-1.3c1.8,0,2.9,1.4,2.9,3.4v4.3
				h-1.8v-4.2c0-1.2-0.5-2.1-1.5-2.1c-1.1,0-1.6,1-1.6,1.8V306.5z"/>
			<path id="XMLID_318_" class="st3" d="M332.6,299.8v-4.2h1.8v10.9h-1.2l-0.3-1.1h-0.1c0,0-0.6,1.3-2.3,1.3c-1.8,0-3.2-1.5-3.2-4
				c0-2.4,1.4-4,3.2-4C332,298.8,332.5,299.8,332.6,299.8L332.6,299.8z M330.8,300.2c-1.1,0-1.8,1-1.8,2.5c0,1.5,0.8,2.5,1.8,2.5
				c1,0,1.8-1,1.8-2.5C332.7,301.2,331.9,300.2,330.8,300.2z"/>
		</g>
	</g>
	<g id="XMLID_24_">
		<path id="XMLID_13_" class="st5" d="M268.1,339.5H75.9c-6.6,0-11.9-5.3-11.9-11.9v-47.3c0-6.6,5.3-11.9,11.9-11.9h192.3
			c6.6,0,11.9,5.3,11.9,11.9v47.3C280,334.2,274.7,339.5,268.1,339.5z"/>
		<g id="XMLID_14_">
			<path id="XMLID_275_" d="M105.1,329.5v-19.8h3.3v16.9h8.7v2.9H105.1z"/>
			<path id="XMLID_277_" d="M124.8,329.8c-3.6,0-6.6-2.8-6.6-7.2c0-4.4,2.9-7.3,6.6-7.3c3.6,0,6.6,2.9,6.6,7.3
				C131.4,327,128.4,329.8,124.8,329.8z M128.2,322.6c0-2.9-1.5-4.7-3.4-4.7c-1.9,0-3.4,1.8-3.4,4.7c0,2.9,1.5,4.7,3.4,4.7
				C126.7,327.3,128.2,325.5,128.2,322.6z"/>
			<path id="XMLID_280_" d="M134.4,326c0,0,1.9,1.4,4.2,1.4c1.6,0,2.1-0.7,2.1-1.6c0-2.6-7.4-1.2-7.4-6.4c0-2.3,1.6-4.1,5-4.1
				c3.5,0,5.4,1.2,5.4,1.2l-1.1,2.5c0,0-1.7-1.2-4-1.2c-1.4,0-2.1,0.5-2.1,1.5c0,2.5,7.5,0.9,7.5,6.3c0,2.3-1.5,4.2-5.3,4.2
				c-3.8,0-5.4-1.6-5.4-1.6L134.4,326z"/>
			<path id="XMLID_282_" d="M147.7,315.6v-4.2h3.2v4.2h3.3v2.5h-3.3v7c0,1.2,0.5,1.8,1.5,1.8c0.8,0,1.6-0.5,1.6-0.5l1,2.3
				c-0.4,0.2-1.6,1-3.2,1c-2.9,0-4.1-1.8-4.1-4.6v-7.1h-2.2v-2.5H147.7z"/>
			<path id="XMLID_284_" d="M171.9,316.3c0,4.3-2.8,6.8-7,6.8h-4.2v6.4h-3.3v-19.8h7.6C169.2,309.7,171.9,312.2,171.9,316.3z
				 M164.8,312.6h-4.1v7.6h4.1c2.2,0,3.8-1.2,3.8-3.9C168.5,313.8,167,312.6,164.8,312.6z"/>
			<path id="XMLID_287_" d="M184.5,329.5h-2.2l-0.4-1.8h-0.1c-0.7,1.3-2.1,2.1-4.2,2.1c-3,0-4.7-1.9-4.7-4.4c0-2.7,2-4.6,5.8-4.6
				c1.1,0,2,0.2,2.7,0.4v-0.4c0-2.1-1.2-2.9-3.1-2.9c-1.9,0-3.4,1-3.4,1l-1.1-2.4c0,0,1.8-1.3,5-1.3c3.9,0,5.7,2.2,5.7,5.6V329.5z
				 M181.4,324.5v-1.2c-0.4-0.2-1.1-0.5-2.3-0.5c-2,0-3.1,0.9-3.1,2.4c0,1.3,0.9,2.3,2.4,2.3C180.1,327.5,181.4,326.2,181.4,324.5z"
				/>
			<path id="XMLID_290_" d="M188.3,326c0,0,1.9,1.4,4.2,1.4c1.6,0,2.1-0.7,2.1-1.6c0-2.6-7.4-1.2-7.4-6.4c0-2.3,1.6-4.1,5-4.1
				c3.5,0,5.4,1.2,5.4,1.2l-1.1,2.5c0,0-1.7-1.2-4-1.2c-1.4,0-2.1,0.5-2.1,1.5c0,2.5,7.5,0.9,7.5,6.3c0,2.3-1.5,4.2-5.3,4.2
				c-3.8,0-5.4-1.6-5.4-1.6L188.3,326z"/>
			<path id="XMLID_292_" d="M200.9,326c0,0,1.9,1.4,4.2,1.4c1.6,0,2.1-0.7,2.1-1.6c0-2.6-7.4-1.2-7.4-6.4c0-2.3,1.6-4.1,5-4.1
				c3.5,0,5.4,1.2,5.4,1.2l-1.1,2.5c0,0-1.7-1.2-4-1.2c-1.4,0-2.1,0.5-2.1,1.5c0,2.5,7.5,0.9,7.5,6.3c0,2.3-1.5,4.2-5.3,4.2
				c-3.8,0-5.4-1.6-5.4-1.6L200.9,326z"/>
			<path id="XMLID_294_" d="M226.5,329.5h-2.7l-2.1-8.6c-0.1-0.4-0.2-1.2-0.2-1.3h-0.1c0,0.1-0.2,0.9-0.3,1.3l-2.1,8.6h-2.7
				l-4.6-13.9h3.4l2.3,9c0.1,0.3,0.2,0.7,0.2,1h0.2c0-0.3,0.2-0.8,0.2-1.1l2.1-8.9h2.7l2.1,8.9c0.1,0.4,0.2,0.8,0.2,1.1h0.2
				c0-0.3,0.1-0.7,0.2-1l2.3-9h3.3L226.5,329.5z"/>
			<path id="XMLID_296_" d="M238.9,329.8c-3.6,0-6.6-2.8-6.6-7.2c0-4.4,2.9-7.3,6.6-7.3c3.6,0,6.6,2.9,6.6,7.3
				C245.4,327,242.4,329.8,238.9,329.8z M242.2,322.6c0-2.9-1.5-4.7-3.4-4.7c-1.9,0-3.4,1.8-3.4,4.7c0,2.9,1.5,4.7,3.4,4.7
				C240.7,327.3,242.2,325.5,242.2,322.6z"/>
			<path id="XMLID_299_" d="M255.1,318.3h-0.7c-1.6,0-2.9,1.4-3,3.4v7.8h-3.2v-13.9h2.1l0.4,2.2h0.1c0.7-1.5,2-2.2,3.6-2.2h0.7
				V318.3z"/>
			<path id="XMLID_301_" d="M266,317.3v-7.7h3.2v20h-2.2l-0.5-2h-0.1c0,0-1.1,2.4-4.3,2.4c-3.4,0-5.9-2.8-5.9-7.3
				c0-4.3,2.5-7.3,5.8-7.3c2.9,0,3.8,1.9,3.8,1.9H266z M262.9,318c-1.9,0-3.3,1.9-3.3,4.6c0,2.7,1.4,4.6,3.3,4.6
				c1.9,0,3.4-1.7,3.4-4.6C266.2,319.7,264.8,318,262.9,318z"/>
		</g>
		<g id="XMLID_15_">
			<path id="XMLID_264_" class="st2" d="M84.3,291.5c0,0-1.9,2.5-6.1,2.5c-5.6,0-9.2-4.6-9.2-10.3c0-5.8,3.6-10.4,9.2-10.4
				c4.2,0,6.1,2.5,6.1,2.5l-1.8,2.5c0,0-1.6-1.9-4.2-1.9c-3.4,0-5.8,3.2-5.8,7.3c0,4.1,2.4,7.2,5.8,7.2c2.6,0,4.2-1.9,4.2-1.9
				L84.3,291.5z"/>
			<path id="XMLID_266_" class="st2" d="M86.6,273.5h3.2v20h-3.2V273.5z"/>
			<path id="XMLID_268_" class="st2" d="M104.1,293.5h-2.2l-0.4-1.8h-0.1c-0.7,1.3-2.1,2.1-4.2,2.1c-3,0-4.7-1.9-4.7-4.4
				c0-2.7,2-4.6,5.8-4.6c1.1,0,2,0.2,2.7,0.4v-0.4c0-2.1-1.2-2.9-3.1-2.9c-1.9,0-3.4,1-3.4,1l-1.1-2.4c0,0,1.8-1.3,5-1.3
				c3.9,0,5.7,2.2,5.7,5.6V293.5z M101,288.5v-1.2c-0.4-0.2-1.1-0.5-2.3-0.5c-2,0-3.1,0.9-3.1,2.4c0,1.3,0.9,2.3,2.4,2.3
				C99.6,291.5,100.9,290.2,101,288.5z"/>
			<path id="XMLID_271_" class="st2" d="M107.8,290c0,0,1.9,1.4,4.2,1.4c1.6,0,2.1-0.7,2.1-1.6c0-2.6-7.4-1.2-7.4-6.4
				c0-2.3,1.6-4.1,5-4.1c3.5,0,5.4,1.2,5.4,1.2L116,283c0,0-1.7-1.2-4-1.2c-1.4,0-2.1,0.5-2.1,1.5c0,2.5,7.5,0.9,7.5,6.3
				c0,2.3-1.5,4.2-5.3,4.2c-3.8,0-5.4-1.6-5.4-1.6L107.8,290z"/>
			<path id="XMLID_273_" class="st2" d="M120.4,290c0,0,1.9,1.4,4.2,1.4c1.6,0,2.1-0.7,2.1-1.6c0-2.6-7.4-1.2-7.4-6.4
				c0-2.3,1.6-4.1,5-4.1c3.5,0,5.4,1.2,5.4,1.2l-1.1,2.5c0,0-1.7-1.2-4-1.2c-1.4,0-2.1,0.5-2.1,1.5c0,2.5,7.5,0.9,7.5,6.3
				c0,2.3-1.5,4.2-5.3,4.2c-3.8,0-5.4-1.6-5.4-1.6L120.4,290z"/>
		</g>
	</g>
	<g id="XMLID_23_">
		<path id="XMLID_18_" class="st5" d="M579.1,339.5H386.9c-6.6,0-11.9-5.3-11.9-11.9v-47.3c0-6.6,5.3-11.9,11.9-11.9h192.3
			c6.6,0,11.9,5.3,11.9,11.9v47.3C591,334.2,585.7,339.5,579.1,339.5z"/>
		<g id="XMLID_17_">
			<path id="XMLID_204_" d="M407,316.1l-5,7h-1.2l-5-7v13.3h-3.3l0-19.8h2.4l6.3,9.2l6.3-9.2h2.4l0,19.8H407V316.1z"/>
			<path id="XMLID_209_" d="M424.5,329.5h-2.2l-0.4-1.8h-0.1c-0.7,1.3-2.1,2.1-4.2,2.1c-3,0-4.7-1.9-4.7-4.4c0-2.7,2-4.6,5.8-4.6
				c1.1,0,2,0.2,2.7,0.4v-0.4c0-2.1-1.2-2.9-3.1-2.9c-1.9,0-3.4,1-3.4,1l-1.1-2.4c0,0,1.8-1.3,5-1.3c3.9,0,5.7,2.2,5.7,5.6V329.5z
				 M421.4,324.5v-1.2c-0.4-0.2-1.1-0.5-2.3-0.5c-2,0-3.1,0.9-3.1,2.4c0,1.3,0.9,2.3,2.4,2.3C420,327.5,421.4,326.2,421.4,324.5z"/>
			<path id="XMLID_212_" d="M427.6,311.1c0-1.1,0.9-1.9,1.9-1.9c1.1,0,2,0.9,2,1.9c0,1.1-0.9,1.9-2,1.9
				C428.5,313.1,427.6,312.3,427.6,311.1z M427.9,315.6h3.2v13.9h-3.2V315.6z"/>
			<path id="XMLID_215_" d="M434.7,309.5h3.2v20h-3.2V309.5z"/>
			<path id="XMLID_217_" d="M457.7,329.5h-2.4l-10.1-13.7v13.7H442v-19.8h2.4l10.1,13.8v-13.8h3.3V329.5z"/>
			<path id="XMLID_219_" d="M467.1,329.8c-3.6,0-6.6-2.8-6.6-7.2c0-4.4,2.9-7.3,6.6-7.3c3.6,0,6.6,2.9,6.6,7.3
				C473.7,327,470.7,329.8,467.1,329.8z M470.5,322.6c0-2.9-1.5-4.7-3.4-4.7c-1.9,0-3.4,1.8-3.4,4.7c0,2.9,1.5,4.7,3.4,4.7
				C469,327.3,470.5,325.5,470.5,322.6z"/>
			<path id="XMLID_222_" d="M477.1,315.6v-4.2h3.2v4.2h3.3v2.5h-3.3v7c0,1.2,0.5,1.8,1.5,1.8c0.8,0,1.6-0.5,1.6-0.5l1,2.3
				c-0.4,0.2-1.6,1-3.2,1c-2.9,0-4.1-1.8-4.1-4.6v-7.1h-2.2v-2.5H477.1z"/>
			<path id="XMLID_224_" d="M486.1,311.1c0-1.1,0.9-1.9,1.9-1.9c1.1,0,2,0.9,2,1.9c0,1.1-0.9,1.9-2,1.9
				C487,313.1,486.1,312.3,486.1,311.1z M486.4,315.6h3.2v13.9h-3.2V315.6z"/>
			<path id="XMLID_244_" d="M497.6,318.2v11.3h-3.2v-11.3h-2.8v-2.5h2.8v-1.2c0-3.2,1.7-5.1,4.7-5.1c1.8,0,3,0.7,3,0.7l-1,2.4
				c0,0-0.7-0.4-1.6-0.4c-1.1,0-1.8,0.9-1.8,2.2v1.4h4.1v2.5H497.6z"/>
			<path id="XMLID_246_" d="M502.8,311.1c0-1.1,0.9-1.9,1.9-1.9c1.1,0,2,0.9,2,1.9c0,1.1-0.9,1.9-2,1.9
				C503.7,313.1,502.8,312.3,502.8,311.1z M503.1,315.6h3.2v13.9h-3.2V315.6z"/>
			<path id="XMLID_249_" d="M509.1,322.6c0-4.3,2.6-7.3,6.5-7.3c2.8,0,4,1.2,4,1.2l-0.9,2.4c0,0-1.2-0.9-2.8-0.9
				c-2,0-3.5,1.7-3.5,4.6c0,2.9,1.5,4.6,3.5,4.6c1.7,0,2.8-0.9,2.8-0.9l0.8,2.3c0,0-1.1,1.3-3.9,1.3
				C511.7,329.8,509.1,326.8,509.1,322.6z"/>
			<path id="XMLID_251_" d="M532.9,329.5h-2.2l-0.4-1.8h-0.1c-0.7,1.3-2.1,2.1-4.2,2.1c-3,0-4.7-1.9-4.7-4.4c0-2.7,2-4.6,5.8-4.6
				c1.1,0,2,0.2,2.7,0.4v-0.4c0-2.1-1.2-2.9-3.1-2.9c-1.9,0-3.4,1-3.4,1l-1.1-2.4c0,0,1.8-1.3,5-1.3c3.9,0,5.7,2.2,5.7,5.6V329.5z
				 M529.8,324.5v-1.2c-0.4-0.2-1.1-0.5-2.3-0.5c-2,0-3.1,0.9-3.1,2.4c0,1.3,0.9,2.3,2.4,2.3C528.4,327.5,529.7,326.2,529.8,324.5z"
				/>
			<path id="XMLID_254_" d="M537.1,315.6v-4.2h3.2v4.2h3.3v2.5h-3.3v7c0,1.2,0.5,1.8,1.5,1.8c0.8,0,1.6-0.5,1.6-0.5l1,2.3
				c-0.4,0.2-1.6,1-3.2,1c-2.9,0-4.1-1.8-4.1-4.6v-7.1h-2.2v-2.5H537.1z"/>
			<path id="XMLID_256_" d="M546.1,311.1c0-1.1,0.9-1.9,1.9-1.9c1.1,0,2,0.9,2,1.9c0,1.1-0.9,1.9-2,1.9
				C547,313.1,546.1,312.3,546.1,311.1z M546.4,315.6h3.2v13.9h-3.2V315.6z"/>
			<path id="XMLID_259_" d="M559,329.8c-3.6,0-6.6-2.8-6.6-7.2c0-4.4,2.9-7.3,6.6-7.3c3.6,0,6.6,2.9,6.6,7.3
				C565.5,327,562.5,329.8,559,329.8z M562.3,322.6c0-2.9-1.5-4.7-3.4-4.7c-1.9,0-3.4,1.8-3.4,4.7c0,2.9,1.5,4.7,3.4,4.7
				C560.8,327.3,562.3,325.5,562.3,322.6z"/>
			<path id="XMLID_262_" d="M571.5,329.5h-3.2v-13.9h2.1l0.4,2h0.2c1-1.5,2.2-2.3,4.2-2.3c3.3,0,5.2,2.5,5.2,6.2v8h-3.2v-7.7
				c0-2.1-1-3.8-2.8-3.8c-1.9,0-2.9,1.9-2.9,3.4V329.5z"/>
		</g>
		<g id="XMLID_16_">
			<path id="XMLID_192_" class="st2" d="M395.3,291.5c0,0-1.9,2.5-6.1,2.5c-5.6,0-9.2-4.6-9.2-10.3c0-5.8,3.6-10.4,9.2-10.4
				c4.2,0,6.1,2.5,6.1,2.5l-1.8,2.5c0,0-1.6-1.9-4.2-1.9c-3.4,0-5.8,3.2-5.8,7.3c0,4.1,2.4,7.2,5.8,7.2c2.6,0,4.2-1.9,4.2-1.9
				L395.3,291.5z"/>
			<path id="XMLID_194_" class="st2" d="M397.6,273.5h3.2v20h-3.2V273.5z"/>
			<path id="XMLID_196_" class="st2" d="M415.1,293.5h-2.2l-0.4-1.8h-0.1c-0.7,1.3-2.1,2.1-4.2,2.1c-3,0-4.7-1.9-4.7-4.4
				c0-2.7,2-4.6,5.8-4.6c1.1,0,2,0.2,2.7,0.4v-0.4c0-2.1-1.2-2.9-3.1-2.9c-1.9,0-3.4,1-3.4,1l-1.1-2.4c0,0,1.8-1.3,5-1.3
				c3.9,0,5.7,2.2,5.7,5.6V293.5z M412,288.5v-1.2c-0.4-0.2-1.1-0.5-2.3-0.5c-2,0-3.1,0.9-3.1,2.4c0,1.3,0.9,2.3,2.4,2.3
				C410.6,291.5,411.9,290.2,412,288.5z"/>
			<path id="XMLID_199_" class="st2" d="M418.8,290c0,0,1.9,1.4,4.2,1.4c1.6,0,2.1-0.7,2.1-1.6c0-2.6-7.4-1.2-7.4-6.4
				c0-2.3,1.6-4.1,5-4.1c3.5,0,5.4,1.2,5.4,1.2L427,283c0,0-1.7-1.2-4-1.2c-1.4,0-2.1,0.5-2.1,1.5c0,2.5,7.5,0.9,7.5,6.3
				c0,2.3-1.5,4.2-5.3,4.2c-3.8,0-5.4-1.6-5.4-1.6L418.8,290z"/>
			<path id="XMLID_202_" class="st2" d="M431.4,290c0,0,1.9,1.4,4.2,1.4c1.6,0,2.1-0.7,2.1-1.6c0-2.6-7.4-1.2-7.4-6.4
				c0-2.3,1.6-4.1,5-4.1c3.5,0,5.4,1.2,5.4,1.2l-1.1,2.5c0,0-1.7-1.2-4-1.2c-1.4,0-2.1,0.5-2.1,1.5c0,2.5,7.5,0.9,7.5,6.3
				c0,2.3-1.5,4.2-5.3,4.2c-3.8,0-5.4-1.6-5.4-1.6L431.4,290z"/>
		</g>
	</g>
	<g id="XMLID_22_">
		<path id="XMLID_21_" class="st5" d="M890.1,339.5H697.9c-6.6,0-11.9-5.3-11.9-11.9v-47.3c0-6.6,5.3-11.9,11.9-11.9h192.3
			c6.6,0,11.9,5.3,11.9,11.9v47.3C902,334.2,896.7,339.5,890.1,339.5z"/>
		<g id="XMLID_20_">
			<path id="XMLID_161_" d="M715.6,325c0,0,2.1,1.9,5.1,1.9c2.3,0,3.2-1.1,3.2-2.7c0-1.5-0.7-2.3-3.9-3.4c-4.1-1.3-6-2.8-6-5.9
				c0-3.4,2.3-5.6,6.7-5.6c4.6,0,6.4,2,6.4,2l-1.8,2.7c0,0-1.7-1.7-4.6-1.7c-2,0-3.1,0.9-3.1,2.5c0,1.4,0.8,2,3.8,3
				c4.5,1.4,6.1,3.1,6.1,6.2c0,3.4-2.2,6-6.8,6c-4.7,0-7-2.5-7-2.5L715.6,325z"/>
			<path id="XMLID_163_" d="M742.2,320.9H734v5.7h9.7v2.9h-13v-19.8h13v2.9H734v5.5h8.2V320.9z"/>
			<path id="XMLID_165_" d="M747.6,325c0,0,2.1,1.9,5.1,1.9c2.3,0,3.2-1.1,3.2-2.7c0-1.5-0.7-2.3-3.9-3.4c-4.1-1.3-6-2.8-6-5.9
				c0-3.4,2.3-5.6,6.7-5.6c4.6,0,6.4,2,6.4,2l-1.8,2.7c0,0-1.7-1.7-4.6-1.7c-2,0-3.1,0.9-3.1,2.5c0,1.4,0.8,2,3.8,3
				c4.5,1.4,6.1,3.1,6.1,6.2c0,3.4-2.2,6-6.8,6c-4.7,0-7-2.5-7-2.5L747.6,325z"/>
			<path id="XMLID_167_" d="M777.1,316.1l-5,7h-1.2l-5-7v13.3h-3.3l0-19.8h2.4l6.3,9.2l6.3-9.2h2.4l0,19.8h-3.2V316.1z"/>
			<path id="XMLID_169_" d="M794.6,329.5h-2.2l-0.4-1.8h-0.1c-0.7,1.3-2.1,2.1-4.2,2.1c-3,0-4.7-1.9-4.7-4.4c0-2.7,2-4.6,5.8-4.6
				c1.1,0,2,0.2,2.7,0.4v-0.4c0-2.1-1.2-2.9-3.1-2.9c-1.9,0-3.4,1-3.4,1l-1.1-2.4c0,0,1.8-1.3,5-1.3c3.9,0,5.7,2.2,5.7,5.6V329.5z
				 M791.5,324.5v-1.2c-0.4-0.2-1.1-0.5-2.3-0.5c-2,0-3.1,0.9-3.1,2.4c0,1.3,0.9,2.3,2.4,2.3C790.1,327.5,791.5,326.2,791.5,324.5z"
				/>
			<path id="XMLID_172_" d="M797.7,311.1c0-1.1,0.9-1.9,1.9-1.9s2,0.9,2,1.9c0,1.1-0.9,1.9-2,1.9S797.7,312.3,797.7,311.1z
				 M798,315.6h3.2v13.9H798V315.6z"/>
			<path id="XMLID_175_" d="M804.8,309.5h3.2v20h-3.2V309.5z"/>
			<path id="XMLID_177_" d="M812.6,325c0,0,2.1,1.9,5.1,1.9c2.3,0,3.2-1.1,3.2-2.7c0-1.5-0.7-2.3-3.9-3.4c-4.1-1.3-6-2.8-6-5.9
				c0-3.4,2.3-5.6,6.7-5.6c4.6,0,6.4,2,6.4,2l-1.8,2.7c0,0-1.7-1.7-4.6-1.7c-2,0-3.1,0.9-3.1,2.5c0,1.4,0.8,2,3.8,3
				c4.5,1.4,6.1,3.1,6.1,6.2c0,3.4-2.2,6-6.8,6c-4.7,0-7-2.5-7-2.5L812.6,325z"/>
			<path id="XMLID_179_" d="M837.9,328.2c0,0-1.4,1.7-4.7,1.7c-4.2,0-6.7-3.1-6.7-7.3c0-4.2,2.4-7.3,6.2-7.3c3.7,0,5.8,2.9,5.8,6.9
				v0.9h-8.8c0.2,2.8,1.6,4.2,3.8,4.2c2.1,0,3.3-1.2,3.3-1.2L837.9,328.2z M829.8,320.9h5.5c-0.2-2-1.1-3.1-2.7-3.1
				S830.1,318.8,829.8,320.9z"/>
			<path id="XMLID_182_" d="M844.4,329.5h-3.2v-13.9h2.1l0.4,2h0.2c1-1.5,2.2-2.3,4.2-2.3c3.3,0,5.2,2.5,5.2,6.2v8h-3.2v-7.7
				c0-2.1-1-3.8-2.8-3.8c-1.9,0-2.9,1.9-2.9,3.4V329.5z"/>
			<path id="XMLID_184_" d="M865.7,317.3v-7.7h3.2v20h-2.2l-0.5-2h-0.1c0,0-1.1,2.4-4.3,2.4c-3.4,0-5.9-2.8-5.9-7.3
				c0-4.3,2.5-7.3,5.8-7.3c2.9,0,3.8,1.9,3.8,1.9H865.7z M862.5,318c-1.9,0-3.3,1.9-3.3,4.6c0,2.7,1.4,4.6,3.3,4.6
				c1.9,0,3.4-1.7,3.4-4.6C865.9,319.7,864.4,318,862.5,318z"/>
			<path id="XMLID_187_" d="M883,328.2c0,0-1.4,1.7-4.7,1.7c-4.2,0-6.7-3.1-6.7-7.3c0-4.2,2.4-7.3,6.2-7.3c3.7,0,5.8,2.9,5.8,6.9
				v0.9h-8.8c0.2,2.8,1.6,4.2,3.8,4.2c2.1,0,3.3-1.2,3.3-1.2L883,328.2z M874.9,320.9h5.5c-0.2-2-1.1-3.1-2.7-3.1
				C876.2,317.8,875.2,318.8,874.9,320.9z"/>
			<path id="XMLID_190_" d="M893.2,318.3h-0.7c-1.6,0-2.9,1.4-3,3.4v7.8h-3.2v-13.9h2.1l0.4,2.2h0.1c0.7-1.5,2-2.2,3.6-2.2h0.7
				V318.3z"/>
		</g>
		<g id="XMLID_19_">
			<path id="XMLID_136_" class="st2" d="M706.3,291.5c0,0-1.9,2.5-6.1,2.5c-5.6,0-9.2-4.6-9.2-10.3c0-5.8,3.6-10.4,9.2-10.4
				c4.2,0,6.1,2.5,6.1,2.5l-1.8,2.5c0,0-1.6-1.9-4.2-1.9c-3.4,0-5.8,3.2-5.8,7.3c0,4.1,2.4,7.2,5.8,7.2c2.6,0,4.2-1.9,4.2-1.9
				L706.3,291.5z"/>
			<path id="XMLID_138_" class="st2" d="M708.6,273.5h3.2v20h-3.2V273.5z"/>
			<path id="XMLID_140_" class="st2" d="M726.1,293.5h-2.2l-0.4-1.8h-0.1c-0.7,1.3-2.1,2.1-4.2,2.1c-3,0-4.7-1.9-4.7-4.4
				c0-2.7,2-4.6,5.8-4.6c1.1,0,2,0.2,2.7,0.4v-0.4c0-2.1-1.2-2.9-3.1-2.9c-1.9,0-3.4,1-3.4,1l-1.1-2.4c0,0,1.8-1.3,5-1.3
				c3.9,0,5.7,2.2,5.7,5.6V293.5z M723,288.5v-1.2c-0.4-0.2-1.1-0.5-2.3-0.5c-2,0-3.1,0.9-3.1,2.4c0,1.3,0.9,2.3,2.4,2.3
				C721.6,291.5,722.9,290.2,723,288.5z"/>
			<path id="XMLID_157_" class="st2" d="M729.8,290c0,0,1.9,1.4,4.2,1.4c1.6,0,2.1-0.7,2.1-1.6c0-2.6-7.4-1.2-7.4-6.4
				c0-2.3,1.6-4.1,5-4.1c3.5,0,5.4,1.2,5.4,1.2L738,283c0,0-1.7-1.2-4-1.2c-1.4,0-2.1,0.5-2.1,1.5c0,2.5,7.5,0.9,7.5,6.3
				c0,2.3-1.5,4.2-5.3,4.2c-3.8,0-5.4-1.6-5.4-1.6L729.8,290z"/>
			<path id="XMLID_159_" class="st2" d="M742.4,290c0,0,1.9,1.4,4.2,1.4c1.6,0,2.1-0.7,2.1-1.6c0-2.6-7.4-1.2-7.4-6.4
				c0-2.3,1.6-4.1,5-4.1c3.5,0,5.4,1.2,5.4,1.2l-1.1,2.5c0,0-1.7-1.2-4-1.2c-1.4,0-2.1,0.5-2.1,1.5c0,2.5,7.5,0.9,7.5,6.3
				c0,2.3-1.5,4.2-5.3,4.2c-3.8,0-5.4-1.6-5.4-1.6L742.4,290z"/>
		</g>
	</g>
	<g id="XMLID_3_">
	</g>
	<g id="XMLID_338_">
	</g>
	<g id="XMLID_339_">
	</g>
	<g id="XMLID_340_">
	</g>
	<g id="XMLID_341_">
	</g>
	<g id="XMLID_342_">
	</g>
	<g id="XMLID_343_">
	</g>
	<g id="XMLID_344_">
	</g>
	<g id="XMLID_345_">
	</g>
	<g id="XMLID_346_">
	</g>
	<g id="XMLID_347_">
	</g>
	<g id="XMLID_348_">
	</g>
	<g id="XMLID_349_">
	</g>
	<g id="XMLID_350_">
	</g>
	<g id="XMLID_351_">
	</g>
</g>
</svg>
