<?xml version="1.0" encoding="utf-8"?>
<!-- Generator: Adobe Illustrator 19.0.0, SVG Export Plug-In . SVG Version: 6.00 Build 0)  -->
<svg version="1.1" xmlns="http://www.w3.org/2000/svg" xmlns:xlink="http://www.w3.org/1999/xlink" x="0px" y="0px"
	 viewBox="0 0 960 560" style="enable-background:new 0 0 960 560;" xml:space="preserve">
<style type="text/css">
	.st0{fill:#3FA9F5;}
	.st1{fill:#E37E32;}
	.st2{fill:#96A3A3;}
	.st3{fill:#FFFFFF;}
	.st4{fill:#9E005D;}
	.st5{fill:#FFFFFF;stroke:#333333;stroke-width:3;stroke-miterlimit:10;}
	
		.st6{fill:none;stroke:#FFFFFF;stroke-width:5;stroke-linecap:round;stroke-linejoin:round;stroke-miterlimit:10;stroke-dasharray:12;}
</style>
<g id="Layer_3">
	<g id="XMLID_1035_">
		<path id="XMLID_1136_" class="st0" d="M286.7,533H57.3C41.1,533,28,519.9,28,503.7V55.3C28,39.1,41.1,26,57.3,26h229.5
			c16.2,0,29.3,13.1,29.3,29.3v448.5C316,519.9,302.9,533,286.7,533z"/>
		<path id="XMLID_1135_" class="st0" d="M597.7,533H368.3c-16.2,0-29.3-13.1-29.3-29.3V55.3c0-16.2,13.1-29.3,29.3-29.3h229.5
			c16.2,0,29.3,13.1,29.3,29.3v448.5C627,519.9,613.9,533,597.7,533z"/>
		<path id="XMLID_1134_" class="st0" d="M908.7,533H679.3c-16.2,0-29.3-13.1-29.3-29.3V55.3c0-16.2,13.1-29.3,29.3-29.3h229.5
			c16.2,0,29.3,13.1,29.3,29.3v448.5C938,519.9,924.9,533,908.7,533z"/>
		<g id="XMLID_1104_">
			<path id="XMLID_1131_" class="st0" d="M110,74h-4.8l-1.6-4.3H94L92.4,74h-4.8l8.8-22.2h4.7L110,74z M95.3,66.1h6.9l-3.5-9.3
				L95.3,66.1z"/>
			<path id="XMLID_1128_" class="st0" d="M116.3,72.4v7.4h-4.4V58.5h2.8l0.7,2.2h0.2c0,0,1.3-2.6,5.1-2.6c4.1,0,7.2,3.1,7.2,8.1
				c0,4.8-3.1,8.2-7.1,8.2c-3.4,0-4.4-2-4.4-2H116.3z M119.8,70.7c2.2,0,3.7-1.8,3.7-4.4c0-2.6-1.5-4.5-3.7-4.5
				c-2.1,0-3.7,1.7-3.7,4.5C116.1,69,117.6,70.7,119.8,70.7z"/>
			<path id="XMLID_1125_" class="st0" d="M135.6,72.4v7.4h-4.4V58.5h2.8l0.7,2.2h0.2c0,0,1.3-2.6,5.1-2.6c4.1,0,7.2,3.1,7.2,8.1
				c0,4.8-3.1,8.2-7.1,8.2c-3.4,0-4.4-2-4.4-2H135.6z M139,70.7c2.2,0,3.7-1.8,3.7-4.4c0-2.6-1.5-4.5-3.7-4.5
				c-2.1,0-3.7,1.7-3.7,4.5C135.3,69,136.9,70.7,139,70.7z"/>
			<path id="XMLID_1123_" class="st0" d="M150.4,51.6h4.4V74h-4.4V51.6z"/>
			<path id="XMLID_1120_" class="st0" d="M158.6,53.5c0-1.5,1.1-2.6,2.6-2.6s2.6,1.1,2.6,2.6s-1.1,2.5-2.6,2.5S158.6,55,158.6,53.5z
				 M158.9,58.5h4.4V74h-4.4V58.5z"/>
			<path id="XMLID_1118_" class="st0" d="M166.5,66.2c0-4.7,3.3-8.1,8.2-8.1c3.3,0,4.9,1.4,4.9,1.4l-1.1,3.2c0,0-1.4-0.9-3.3-0.9
				c-2.4,0-4.1,1.7-4.1,4.5c0,2.8,1.7,4.5,4.1,4.5c1.9,0,3.3-0.9,3.3-0.9l1.1,3.1c0,0-1.6,1.4-4.8,1.4
				C169.8,74.4,166.5,70.9,166.5,66.2z"/>
			<path id="XMLID_1115_" class="st0" d="M195.9,74h-3l-0.6-2h-0.2c-0.9,1.4-2.5,2.3-5,2.3c-3.6,0-5.7-2.1-5.7-4.9
				c0-3.1,2.4-5.1,7.1-5.1c1.3,0,2.4,0.2,3.2,0.4v-0.5c0-1.9-1.4-2.6-3.7-2.6c-2.3,0-4.1,1.1-4.1,1.1l-1.4-3.3c0,0,2.3-1.4,6.3-1.4
				c4.7,0,7.1,2.6,7.1,6.3V74z M191.7,68.5v-1.3c-0.4-0.2-1.2-0.5-2.7-0.5c-2.2,0-3.4,0.9-3.4,2.4c0,1.3,1,2.2,2.7,2.2
				C190.1,71.3,191.6,70.2,191.7,68.5z"/>
			<path id="XMLID_1113_" class="st0" d="M200.9,58.5v-4.7h4.4v4.7h3.8v3.4h-3.8v7c0,1.1,0.5,1.7,1.7,1.7c0.9,0,1.7-0.5,1.7-0.5
				l1.3,3.1c-0.7,0.5-2.2,1.3-4,1.3c-3.6,0-5-2.3-5-5.4v-7.1h-2.7v-3.4H200.9z"/>
			<path id="XMLID_1110_" class="st0" d="M212,53.5c0-1.5,1.1-2.6,2.6-2.6s2.6,1.1,2.6,2.6s-1.1,2.5-2.6,2.5S212,55,212,53.5z
				 M212.4,58.5h4.4V74h-4.4V58.5z"/>
			<path id="XMLID_1107_" class="st0" d="M228.1,74.4c-4.5,0-8.1-3.1-8.1-8.1c0-5,3.7-8.2,8.1-8.2c4.4,0,8.1,3.3,8.1,8.2
				C236.2,71.2,232.5,74.4,228.1,74.4z M231.8,66.2c0-2.8-1.6-4.6-3.7-4.6c-2.2,0-3.8,1.9-3.8,4.6c0,2.8,1.6,4.6,3.8,4.6
				C230.2,70.9,231.8,69.1,231.8,66.2z"/>
			<path id="XMLID_1105_" class="st0" d="M243.8,74h-4.4V58.5h2.8l0.6,2.2h0.3c1.2-1.7,2.6-2.6,5-2.6c4,0,6.5,2.7,6.5,6.9v9h-4.4
				v-8.7c0-1.9-1.1-3.4-3.1-3.4c-2,0-3.1,1.6-3.1,3.2V74z"/>
		</g>
		<g id="XMLID_1067_">
			<path id="XMLID_1100_" class="st0" d="M367.5,74h-10.3V51.8h10c5.1,0,7.7,2.2,7.7,6c0,2-1.1,3.7-2.8,4.6v0.2
				c2.2,0.7,3.5,2.4,3.5,4.8C375.5,71.7,372.5,74,367.5,74z M367.1,55.7h-5.5V61h5.4c1.9,0,3.1-1.1,3.1-2.6
				C370.2,56.7,369,55.7,367.1,55.7z M361.7,64.5v5.6h5.8c1.9,0,3.3-1.1,3.3-2.8c0-1.6-1.4-2.8-3.3-2.8H361.7z"/>
			<path id="XMLID_1098_" class="st0" d="M389.2,58.5h4.4V74h-3l-0.8-2.1h-0.2c-0.7,1.1-2.1,2.5-4.8,2.5c-4,0-6.4-2.7-6.4-6.9v-9
				h4.4v8.7c0,2,1,3.5,3,3.5c2.1,0,3.2-1.7,3.2-3.2V58.5z"/>
			<path id="XMLID_1096_" class="st0" d="M398.3,69.6c0,0,2.3,1.5,5,1.5c1.7,0,2.4-0.6,2.4-1.3c0-2.5-8.7-1-8.7-7
				c0-2.7,2.1-4.7,6.2-4.7c4.4,0,6.8,1.4,6.8,1.4l-1.4,3.3c0,0-2.1-1.4-4.9-1.4c-1.4,0-2.3,0.4-2.3,1.3c0,2.4,8.8,0.8,8.8,6.8
				c0,2.7-1.9,4.8-6.7,4.8c-4.7,0-6.7-1.7-6.7-1.7L398.3,69.6z"/>
			<path id="XMLID_1093_" class="st0" d="M413.1,53.5c0-1.5,1.1-2.6,2.6-2.6s2.6,1.1,2.6,2.6s-1.1,2.5-2.6,2.5S413.1,55,413.1,53.5z
				 M413.4,58.5h4.4V74h-4.4V58.5z"/>
			<path id="XMLID_1091_" class="st0" d="M426.4,74H422V58.5h2.8l0.6,2.2h0.3c1.2-1.7,2.6-2.6,5-2.6c4,0,6.5,2.7,6.5,6.9v9h-4.4
				v-8.7c0-1.9-1.1-3.4-3.1-3.4c-2,0-3.1,1.6-3.1,3.2V74z"/>
			<path id="XMLID_1088_" class="st0" d="M454.3,72.6c0,0-1.9,1.9-5.8,1.9c-5.2,0-8.3-3.5-8.3-8.2c0-4.7,3.1-8.1,7.7-8.1
				c4.6,0,7.3,3.1,7.3,7.7c0,0.4,0,1.2,0,1.2h-10.6c0.3,2.7,1.8,3.9,4.3,3.9c2.4,0,4-1.3,4-1.3L454.3,72.6z M444.5,64.4h6.2
				c-0.2-1.9-1.2-3-3-3C446.1,61.4,444.9,62.4,444.5,64.4z"/>
			<path id="XMLID_1086_" class="st0" d="M458.6,69.6c0,0,2.3,1.5,5,1.5c1.7,0,2.4-0.6,2.4-1.3c0-2.5-8.7-1-8.7-7
				c0-2.7,2.1-4.7,6.2-4.7c4.4,0,6.8,1.4,6.8,1.4l-1.4,3.3c0,0-2.1-1.4-4.9-1.4c-1.4,0-2.3,0.4-2.3,1.3c0,2.4,8.8,0.8,8.8,6.8
				c0,2.7-1.9,4.8-6.7,4.8c-4.7,0-6.7-1.7-6.7-1.7L458.6,69.6z"/>
			<path id="XMLID_1084_" class="st0" d="M474.1,69.6c0,0,2.3,1.5,5,1.5c1.7,0,2.4-0.6,2.4-1.3c0-2.5-8.7-1-8.7-7
				c0-2.7,2.1-4.7,6.2-4.7c4.4,0,6.8,1.4,6.8,1.4l-1.4,3.3c0,0-2.1-1.4-4.9-1.4c-1.4,0-2.3,0.4-2.3,1.3c0,2.4,8.8,0.8,8.8,6.8
				c0,2.7-1.9,4.8-6.7,4.8c-4.7,0-6.7-1.7-6.7-1.7L474.1,69.6z"/>
			<path id="XMLID_1081_" class="st0" d="M505.6,74h-8.2V51.8h8.2c7,0,11.5,4.6,11.5,11.1C517.1,69.4,512.6,74,505.6,74z
				 M501.9,55.7v14.4h3.4c4,0,7.2-2.7,7.2-7.2c0-4.7-3.2-7.2-7.2-7.2H501.9z"/>
			<path id="XMLID_1078_" class="st0" d="M527.6,74.4c-4.5,0-8.1-3.1-8.1-8.1c0-5,3.7-8.2,8.1-8.2c4.4,0,8.1,3.3,8.1,8.2
				C535.7,71.2,532,74.4,527.6,74.4z M531.3,66.2c0-2.8-1.6-4.6-3.7-4.6c-2.2,0-3.8,1.9-3.8,4.6c0,2.8,1.6,4.6,3.8,4.6
				C529.8,70.9,531.3,69.1,531.3,66.2z"/>
			<path id="XMLID_1076_" class="st0" d="M554,74h-4.4v-8.8c0-1.8-1.1-3.2-3.1-3.2s-3.1,1.4-3.1,3V74h-4.4V58.5h2.8l0.6,2.2h0.3
				c1-1.6,2.6-2.6,5-2.6c2.5,0,4.4,1,5.4,2.7h0.2c1-1.6,2.5-2.7,5.1-2.7c4,0,6.4,2.7,6.4,6.9v9h-4.4v-8.7c0-1.9-1.1-3.4-3.1-3.4
				c-2.1,0-3.1,1.5-3.1,3.1V74z"/>
			<path id="XMLID_1073_" class="st0" d="M581.9,74h-3l-0.6-2h-0.2c-0.9,1.4-2.5,2.3-5,2.3c-3.6,0-5.7-2.1-5.7-4.9
				c0-3.1,2.4-5.1,7.1-5.1c1.3,0,2.4,0.2,3.2,0.4v-0.5c0-1.9-1.4-2.6-3.7-2.6c-2.3,0-4.1,1.1-4.1,1.1l-1.4-3.3c0,0,2.3-1.4,6.3-1.4
				c4.7,0,7.1,2.6,7.1,6.3V74z M577.6,68.5v-1.3c-0.4-0.2-1.2-0.5-2.7-0.5c-2.2,0-3.4,0.9-3.4,2.4c0,1.3,1,2.2,2.7,2.2
				C576.1,71.3,577.6,70.2,577.6,68.5z"/>
			<path id="XMLID_1070_" class="st0" d="M585.4,53.5c0-1.5,1.1-2.6,2.6-2.6s2.6,1.1,2.6,2.6S589.5,56,588,56S585.4,55,585.4,53.5z
				 M585.8,58.5h4.4V74h-4.4V58.5z"/>
			<path id="XMLID_1068_" class="st0" d="M598.8,74h-4.4V58.5h2.8l0.6,2.2h0.3c1.2-1.7,2.6-2.6,5-2.6c4,0,6.5,2.7,6.5,6.9v9H605
				v-8.7c0-1.9-1.1-3.4-3.1-3.4c-2,0-3.1,1.6-3.1,3.2V74z"/>
		</g>
		<g id="XMLID_1036_">
			<path id="XMLID_1065_" class="st0" d="M699.7,74h-4.5V51.8h4.5V74z"/>
			<path id="XMLID_1063_" class="st0" d="M708.7,74h-4.4V58.5h2.8l0.6,2.2h0.3c1.2-1.7,2.6-2.6,5-2.6c4,0,6.5,2.7,6.5,6.9v9H715
				v-8.7c0-1.9-1.1-3.4-3.1-3.4c-2,0-3.1,1.6-3.1,3.2V74z"/>
			<path id="XMLID_1061_" class="st0" d="M729,61.9V74h-4.4V61.9h-2.7v-3.4h2.7v-0.9c0-3.8,2.1-6.2,5.9-6.2c2.3,0,3.7,0.7,3.7,0.7
				l-1.4,3.3c0,0-0.7-0.3-1.7-0.3c-1.3,0-2.1,0.9-2.1,2.3v1.1h4.1v3.4H729z"/>
			<path id="XMLID_1059_" class="st0" d="M744.3,62.2h-0.8c-2.1,0-3.6,1.4-3.6,3.8v8h-4.4V58.5h2.8l0.6,2.3h0.2
				c0.8-1.5,2.3-2.3,4.3-2.3h0.9V62.2z"/>
			<path id="XMLID_1056_" class="st0" d="M760,74h-3l-0.6-2h-0.2c-0.9,1.4-2.5,2.3-5,2.3c-3.6,0-5.7-2.1-5.7-4.9
				c0-3.1,2.4-5.1,7.1-5.1c1.3,0,2.4,0.2,3.2,0.4v-0.5c0-1.9-1.4-2.6-3.7-2.6c-2.3,0-4.1,1.1-4.1,1.1l-1.4-3.3c0,0,2.3-1.4,6.3-1.4
				c4.7,0,7.1,2.6,7.1,6.3V74z M755.8,68.5v-1.3c-0.4-0.2-1.2-0.5-2.7-0.5c-2.2,0-3.4,0.9-3.4,2.4c0,1.3,1,2.2,2.7,2.2
				C754.2,71.3,755.7,70.2,755.8,68.5z"/>
			<path id="XMLID_1054_" class="st0" d="M764.4,69.6c0,0,2.3,1.5,5,1.5c1.7,0,2.4-0.6,2.4-1.3c0-2.5-8.7-1-8.7-7
				c0-2.7,2.1-4.7,6.2-4.7c4.4,0,6.8,1.4,6.8,1.4l-1.4,3.3c0,0-2.1-1.4-4.9-1.4c-1.4,0-2.3,0.4-2.3,1.3c0,2.4,8.8,0.8,8.8,6.8
				c0,2.7-1.9,4.8-6.7,4.8c-4.7,0-6.7-1.7-6.7-1.7L764.4,69.6z"/>
			<path id="XMLID_1052_" class="st0" d="M780.8,58.5v-4.7h4.4v4.7h3.8v3.4h-3.8v7c0,1.1,0.5,1.7,1.7,1.7c0.9,0,1.7-0.5,1.7-0.5
				l1.3,3.1c-0.7,0.5-2.2,1.3-4,1.3c-3.6,0-5-2.3-5-5.4v-7.1h-2.7v-3.4H780.8z"/>
			<path id="XMLID_1050_" class="st0" d="M801,62.2h-0.8c-2.1,0-3.6,1.4-3.6,3.8v8h-4.4V58.5h2.8l0.6,2.3h0.2
				c0.8-1.5,2.3-2.3,4.3-2.3h0.9V62.2z"/>
			<path id="XMLID_1048_" class="st0" d="M814,58.5h4.4V74h-3l-0.8-2.1h-0.2c-0.7,1.1-2.1,2.5-4.8,2.5c-4,0-6.4-2.7-6.4-6.9v-9h4.4
				v8.7c0,2,1,3.5,3,3.5c2.1,0,3.2-1.7,3.2-3.2V58.5z"/>
			<path id="XMLID_1046_" class="st0" d="M821.6,66.2c0-4.7,3.3-8.1,8.2-8.1c3.3,0,4.9,1.4,4.9,1.4l-1.1,3.2c0,0-1.4-0.9-3.3-0.9
				c-2.4,0-4.1,1.7-4.1,4.5c0,2.8,1.7,4.5,4.1,4.5c1.9,0,3.3-0.9,3.3-0.9l1.1,3.1c0,0-1.6,1.4-4.8,1.4
				C824.9,74.4,821.6,70.9,821.6,66.2z"/>
			<path id="XMLID_1044_" class="st0" d="M838.8,58.5v-4.7h4.4v4.7h3.8v3.4h-3.8v7c0,1.1,0.5,1.7,1.7,1.7c0.9,0,1.7-0.5,1.7-0.5
				l1.3,3.1c-0.7,0.5-2.2,1.3-4,1.3c-3.6,0-5-2.3-5-5.4v-7.1h-2.7v-3.4H838.8z"/>
			<path id="XMLID_1042_" class="st0" d="M860.8,58.5h4.4V74h-3l-0.8-2.1h-0.2c-0.7,1.1-2.1,2.5-4.8,2.5c-4,0-6.4-2.7-6.4-6.9v-9
				h4.4v8.7c0,2,1,3.5,3,3.5c2.1,0,3.2-1.7,3.2-3.2V58.5z"/>
			<path id="XMLID_1040_" class="st0" d="M878.1,62.2h-0.8c-2.1,0-3.6,1.4-3.6,3.8v8h-4.4V58.5h2.8l0.6,2.3h0.2
				c0.8-1.5,2.3-2.3,4.3-2.3h0.9V62.2z"/>
			<path id="XMLID_1037_" class="st0" d="M893.6,72.6c0,0-1.9,1.9-5.8,1.9c-5.2,0-8.3-3.5-8.3-8.2c0-4.7,3.1-8.1,7.7-8.1
				c4.6,0,7.3,3.1,7.3,7.7c0,0.4,0,1.2,0,1.2h-10.6c0.3,2.7,1.9,3.9,4.3,3.9c2.4,0,4-1.3,4-1.3L893.6,72.6z M883.8,64.4h6.2
				c-0.2-1.9-1.2-3-3-3C885.4,61.4,884.2,62.4,883.8,64.4z"/>
		</g>
	</g>
	<g id="XMLID_933_">
		<path id="XMLID_1034_" class="st0" d="M286.7,533H57.3C41.1,533,28,519.9,28,503.7V55.3C28,39.1,41.1,26,57.3,26h229.5
			c16.2,0,29.3,13.1,29.3,29.3v448.5C316,519.9,302.9,533,286.7,533z"/>
		<path id="XMLID_1033_" class="st1" d="M597.7,533H368.3c-16.2,0-29.3-13.1-29.3-29.3V55.3c0-16.2,13.1-29.3,29.3-29.3h229.5
			c16.2,0,29.3,13.1,29.3,29.3v448.5C627,519.9,613.9,533,597.7,533z"/>
		<path id="XMLID_1032_" class="st2" d="M908.7,533H679.3c-16.2,0-29.3-13.1-29.3-29.3V55.3c0-16.2,13.1-29.3,29.3-29.3h229.5
			c16.2,0,29.3,13.1,29.3,29.3v448.5C938,519.9,924.9,533,908.7,533z"/>
		<g id="XMLID_1002_">
			<path id="XMLID_1029_" class="st3" d="M110,74h-4.8l-1.6-4.3H94L92.4,74h-4.8l8.8-22.2h4.7L110,74z M95.3,66.1h6.9l-3.5-9.3
				L95.3,66.1z"/>
			<path id="XMLID_1026_" class="st3" d="M116.3,72.4v7.4h-4.4V58.5h2.8l0.7,2.2h0.2c0,0,1.3-2.6,5.1-2.6c4.1,0,7.2,3.1,7.2,8.1
				c0,4.8-3.1,8.2-7.1,8.2c-3.4,0-4.4-2-4.4-2H116.3z M119.8,70.7c2.2,0,3.7-1.8,3.7-4.4c0-2.6-1.5-4.5-3.7-4.5
				c-2.1,0-3.7,1.7-3.7,4.5C116.1,69,117.6,70.7,119.8,70.7z"/>
			<path id="XMLID_1023_" class="st3" d="M135.6,72.4v7.4h-4.4V58.5h2.8l0.7,2.2h0.2c0,0,1.3-2.6,5.1-2.6c4.1,0,7.2,3.1,7.2,8.1
				c0,4.8-3.1,8.2-7.1,8.2c-3.4,0-4.4-2-4.4-2H135.6z M139,70.7c2.2,0,3.7-1.8,3.7-4.4c0-2.6-1.5-4.5-3.7-4.5
				c-2.1,0-3.7,1.7-3.7,4.5C135.3,69,136.9,70.7,139,70.7z"/>
			<path id="XMLID_1021_" class="st3" d="M150.4,51.6h4.4V74h-4.4V51.6z"/>
			<path id="XMLID_1018_" class="st3" d="M158.6,53.5c0-1.5,1.1-2.6,2.6-2.6s2.6,1.1,2.6,2.6s-1.1,2.5-2.6,2.5S158.6,55,158.6,53.5z
				 M158.9,58.5h4.4V74h-4.4V58.5z"/>
			<path id="XMLID_1016_" class="st3" d="M166.5,66.2c0-4.7,3.3-8.1,8.2-8.1c3.3,0,4.9,1.4,4.9,1.4l-1.1,3.2c0,0-1.4-0.9-3.3-0.9
				c-2.4,0-4.1,1.7-4.1,4.5c0,2.8,1.7,4.5,4.1,4.5c1.9,0,3.3-0.9,3.3-0.9l1.1,3.1c0,0-1.6,1.4-4.8,1.4
				C169.8,74.4,166.5,70.9,166.5,66.2z"/>
			<path id="XMLID_1013_" class="st3" d="M195.9,74h-3l-0.6-2h-0.2c-0.9,1.4-2.5,2.3-5,2.3c-3.6,0-5.7-2.1-5.7-4.9
				c0-3.1,2.4-5.1,7.1-5.1c1.3,0,2.4,0.2,3.2,0.4v-0.5c0-1.9-1.4-2.6-3.7-2.6c-2.3,0-4.1,1.1-4.1,1.1l-1.4-3.3c0,0,2.3-1.4,6.3-1.4
				c4.7,0,7.1,2.6,7.1,6.3V74z M191.7,68.5v-1.3c-0.4-0.2-1.2-0.5-2.7-0.5c-2.2,0-3.4,0.9-3.4,2.4c0,1.3,1,2.2,2.7,2.2
				C190.1,71.3,191.6,70.2,191.7,68.5z"/>
			<path id="XMLID_1011_" class="st3" d="M200.9,58.5v-4.7h4.4v4.7h3.8v3.4h-3.8v7c0,1.1,0.5,1.7,1.7,1.7c0.9,0,1.7-0.5,1.7-0.5
				l1.3,3.1c-0.7,0.5-2.2,1.3-4,1.3c-3.6,0-5-2.3-5-5.4v-7.1h-2.7v-3.4H200.9z"/>
			<path id="XMLID_1008_" class="st3" d="M212,53.5c0-1.5,1.1-2.6,2.6-2.6s2.6,1.1,2.6,2.6s-1.1,2.5-2.6,2.5S212,55,212,53.5z
				 M212.4,58.5h4.4V74h-4.4V58.5z"/>
			<path id="XMLID_1005_" class="st3" d="M228.1,74.4c-4.5,0-8.1-3.1-8.1-8.1c0-5,3.7-8.2,8.1-8.2c4.4,0,8.1,3.3,8.1,8.2
				C236.2,71.2,232.5,74.4,228.1,74.4z M231.8,66.2c0-2.8-1.6-4.6-3.7-4.6c-2.2,0-3.8,1.9-3.8,4.6c0,2.8,1.6,4.6,3.8,4.6
				C230.2,70.9,231.8,69.1,231.8,66.2z"/>
			<path id="XMLID_1003_" class="st3" d="M243.8,74h-4.4V58.5h2.8l0.6,2.2h0.3c1.2-1.7,2.6-2.6,5-2.6c4,0,6.5,2.7,6.5,6.9v9h-4.4
				v-8.7c0-1.9-1.1-3.4-3.1-3.4c-2,0-3.1,1.6-3.1,3.2V74z"/>
		</g>
		<g id="XMLID_965_">
			<path id="XMLID_998_" class="st3" d="M367.5,74h-10.3V51.8h10c5.1,0,7.7,2.2,7.7,6c0,2-1.1,3.7-2.8,4.6v0.2
				c2.2,0.7,3.5,2.4,3.5,4.8C375.5,71.7,372.5,74,367.5,74z M367.1,55.7h-5.5V61h5.4c1.9,0,3.1-1.1,3.1-2.6
				C370.2,56.7,369,55.7,367.1,55.7z M361.7,64.5v5.6h5.8c1.9,0,3.3-1.1,3.3-2.8c0-1.6-1.4-2.8-3.3-2.8H361.7z"/>
			<path id="XMLID_996_" class="st3" d="M389.2,58.5h4.4V74h-3l-0.8-2.1h-0.2c-0.7,1.1-2.1,2.5-4.8,2.5c-4,0-6.4-2.7-6.4-6.9v-9h4.4
				v8.7c0,2,1,3.5,3,3.5c2.1,0,3.2-1.7,3.2-3.2V58.5z"/>
			<path id="XMLID_994_" class="st3" d="M398.3,69.6c0,0,2.3,1.5,5,1.5c1.7,0,2.4-0.6,2.4-1.3c0-2.5-8.7-1-8.7-7
				c0-2.7,2.1-4.7,6.2-4.7c4.4,0,6.8,1.4,6.8,1.4l-1.4,3.3c0,0-2.1-1.4-4.9-1.4c-1.4,0-2.3,0.4-2.3,1.3c0,2.4,8.8,0.8,8.8,6.8
				c0,2.7-1.9,4.8-6.7,4.8c-4.7,0-6.7-1.7-6.7-1.7L398.3,69.6z"/>
			<path id="XMLID_991_" class="st3" d="M413.1,53.5c0-1.5,1.1-2.6,2.6-2.6s2.6,1.1,2.6,2.6s-1.1,2.5-2.6,2.5S413.1,55,413.1,53.5z
				 M413.4,58.5h4.4V74h-4.4V58.5z"/>
			<path id="XMLID_989_" class="st3" d="M426.4,74H422V58.5h2.8l0.6,2.2h0.3c1.2-1.7,2.6-2.6,5-2.6c4,0,6.5,2.7,6.5,6.9v9h-4.4v-8.7
				c0-1.9-1.1-3.4-3.1-3.4c-2,0-3.1,1.6-3.1,3.2V74z"/>
			<path id="XMLID_986_" class="st3" d="M454.3,72.6c0,0-1.9,1.9-5.8,1.9c-5.2,0-8.3-3.5-8.3-8.2c0-4.7,3.1-8.1,7.7-8.1
				c4.6,0,7.3,3.1,7.3,7.7c0,0.4,0,1.2,0,1.2h-10.6c0.3,2.7,1.8,3.9,4.3,3.9c2.4,0,4-1.3,4-1.3L454.3,72.6z M444.5,64.4h6.2
				c-0.2-1.9-1.2-3-3-3C446.1,61.4,444.9,62.4,444.5,64.4z"/>
			<path id="XMLID_984_" class="st3" d="M458.6,69.6c0,0,2.3,1.5,5,1.5c1.7,0,2.4-0.6,2.4-1.3c0-2.5-8.7-1-8.7-7
				c0-2.7,2.1-4.7,6.2-4.7c4.4,0,6.8,1.4,6.8,1.4l-1.4,3.3c0,0-2.1-1.4-4.9-1.4c-1.4,0-2.3,0.4-2.3,1.3c0,2.4,8.8,0.8,8.8,6.8
				c0,2.7-1.9,4.8-6.7,4.8c-4.7,0-6.7-1.7-6.7-1.7L458.6,69.6z"/>
			<path id="XMLID_982_" class="st3" d="M474.1,69.6c0,0,2.3,1.5,5,1.5c1.7,0,2.4-0.6,2.4-1.3c0-2.5-8.7-1-8.7-7
				c0-2.7,2.1-4.7,6.2-4.7c4.4,0,6.8,1.4,6.8,1.4l-1.4,3.3c0,0-2.1-1.4-4.9-1.4c-1.4,0-2.3,0.4-2.3,1.3c0,2.4,8.8,0.8,8.8,6.8
				c0,2.7-1.9,4.8-6.7,4.8c-4.7,0-6.7-1.7-6.7-1.7L474.1,69.6z"/>
			<path id="XMLID_979_" class="st3" d="M505.6,74h-8.2V51.8h8.2c7,0,11.5,4.6,11.5,11.1C517.1,69.4,512.6,74,505.6,74z M501.9,55.7
				v14.4h3.4c4,0,7.2-2.7,7.2-7.2c0-4.7-3.2-7.2-7.2-7.2H501.9z"/>
			<path id="XMLID_976_" class="st3" d="M527.6,74.4c-4.5,0-8.1-3.1-8.1-8.1c0-5,3.7-8.2,8.1-8.2c4.4,0,8.1,3.3,8.1,8.2
				C535.7,71.2,532,74.4,527.6,74.4z M531.3,66.2c0-2.8-1.6-4.6-3.7-4.6c-2.2,0-3.8,1.9-3.8,4.6c0,2.8,1.6,4.6,3.8,4.6
				C529.8,70.9,531.3,69.1,531.3,66.2z"/>
			<path id="XMLID_974_" class="st3" d="M554,74h-4.4v-8.8c0-1.8-1.1-3.2-3.1-3.2s-3.1,1.4-3.1,3V74h-4.4V58.5h2.8l0.6,2.2h0.3
				c1-1.6,2.6-2.6,5-2.6c2.5,0,4.4,1,5.4,2.7h0.2c1-1.6,2.5-2.7,5.1-2.7c4,0,6.4,2.7,6.4,6.9v9h-4.4v-8.7c0-1.9-1.1-3.4-3.1-3.4
				c-2.1,0-3.1,1.5-3.1,3.1V74z"/>
			<path id="XMLID_971_" class="st3" d="M581.9,74h-3l-0.6-2h-0.2c-0.9,1.4-2.5,2.3-5,2.3c-3.6,0-5.7-2.1-5.7-4.9
				c0-3.1,2.4-5.1,7.1-5.1c1.3,0,2.4,0.2,3.2,0.4v-0.5c0-1.9-1.4-2.6-3.7-2.6c-2.3,0-4.1,1.1-4.1,1.1l-1.4-3.3c0,0,2.3-1.4,6.3-1.4
				c4.7,0,7.1,2.6,7.1,6.3V74z M577.6,68.5v-1.3c-0.4-0.2-1.2-0.5-2.7-0.5c-2.2,0-3.4,0.9-3.4,2.4c0,1.3,1,2.2,2.7,2.2
				C576.1,71.3,577.6,70.2,577.6,68.5z"/>
			<path id="XMLID_968_" class="st3" d="M585.4,53.5c0-1.5,1.1-2.6,2.6-2.6s2.6,1.1,2.6,2.6S589.5,56,588,56S585.4,55,585.4,53.5z
				 M585.8,58.5h4.4V74h-4.4V58.5z"/>
			<path id="XMLID_966_" class="st3" d="M598.8,74h-4.4V58.5h2.8l0.6,2.2h0.3c1.2-1.7,2.6-2.6,5-2.6c4,0,6.5,2.7,6.5,6.9v9H605v-8.7
				c0-1.9-1.1-3.4-3.1-3.4c-2,0-3.1,1.6-3.1,3.2V74z"/>
		</g>
		<g id="XMLID_934_">
			<path id="XMLID_963_" class="st3" d="M699.7,74h-4.5V51.8h4.5V74z"/>
			<path id="XMLID_961_" class="st3" d="M708.7,74h-4.4V58.5h2.8l0.6,2.2h0.3c1.2-1.7,2.6-2.6,5-2.6c4,0,6.5,2.7,6.5,6.9v9H715v-8.7
				c0-1.9-1.1-3.4-3.1-3.4c-2,0-3.1,1.6-3.1,3.2V74z"/>
			<path id="XMLID_959_" class="st3" d="M729,61.9V74h-4.4V61.9h-2.7v-3.4h2.7v-0.9c0-3.8,2.1-6.2,5.9-6.2c2.3,0,3.7,0.7,3.7,0.7
				l-1.4,3.3c0,0-0.7-0.3-1.7-0.3c-1.3,0-2.1,0.9-2.1,2.3v1.1h4.1v3.4H729z"/>
			<path id="XMLID_957_" class="st3" d="M744.3,62.2h-0.8c-2.1,0-3.6,1.4-3.6,3.8v8h-4.4V58.5h2.8l0.6,2.3h0.2
				c0.8-1.5,2.3-2.3,4.3-2.3h0.9V62.2z"/>
			<path id="XMLID_954_" class="st3" d="M760,74h-3l-0.6-2h-0.2c-0.9,1.4-2.5,2.3-5,2.3c-3.6,0-5.7-2.1-5.7-4.9
				c0-3.1,2.4-5.1,7.1-5.1c1.3,0,2.4,0.2,3.2,0.4v-0.5c0-1.9-1.4-2.6-3.7-2.6c-2.3,0-4.1,1.1-4.1,1.1l-1.4-3.3c0,0,2.3-1.4,6.3-1.4
				c4.7,0,7.1,2.6,7.1,6.3V74z M755.8,68.5v-1.3c-0.4-0.2-1.2-0.5-2.7-0.5c-2.2,0-3.4,0.9-3.4,2.4c0,1.3,1,2.2,2.7,2.2
				C754.2,71.3,755.7,70.2,755.8,68.5z"/>
			<path id="XMLID_952_" class="st3" d="M764.4,69.6c0,0,2.3,1.5,5,1.5c1.7,0,2.4-0.6,2.4-1.3c0-2.5-8.7-1-8.7-7
				c0-2.7,2.1-4.7,6.2-4.7c4.4,0,6.8,1.4,6.8,1.4l-1.4,3.3c0,0-2.1-1.4-4.9-1.4c-1.4,0-2.3,0.4-2.3,1.3c0,2.4,8.8,0.8,8.8,6.8
				c0,2.7-1.9,4.8-6.7,4.8c-4.7,0-6.7-1.7-6.7-1.7L764.4,69.6z"/>
			<path id="XMLID_950_" class="st3" d="M780.8,58.5v-4.7h4.4v4.7h3.8v3.4h-3.8v7c0,1.1,0.5,1.7,1.7,1.7c0.9,0,1.7-0.5,1.7-0.5
				l1.3,3.1c-0.7,0.5-2.2,1.3-4,1.3c-3.6,0-5-2.3-5-5.4v-7.1h-2.7v-3.4H780.8z"/>
			<path id="XMLID_948_" class="st3" d="M801,62.2h-0.8c-2.1,0-3.6,1.4-3.6,3.8v8h-4.4V58.5h2.8l0.6,2.3h0.2
				c0.8-1.5,2.3-2.3,4.3-2.3h0.9V62.2z"/>
			<path id="XMLID_946_" class="st3" d="M814,58.5h4.4V74h-3l-0.8-2.1h-0.2c-0.7,1.1-2.1,2.5-4.8,2.5c-4,0-6.4-2.7-6.4-6.9v-9h4.4
				v8.7c0,2,1,3.5,3,3.5c2.1,0,3.2-1.7,3.2-3.2V58.5z"/>
			<path id="XMLID_944_" class="st3" d="M821.6,66.2c0-4.7,3.3-8.1,8.2-8.1c3.3,0,4.9,1.4,4.9,1.4l-1.1,3.2c0,0-1.4-0.9-3.3-0.9
				c-2.4,0-4.1,1.7-4.1,4.5c0,2.8,1.7,4.5,4.1,4.5c1.9,0,3.3-0.9,3.3-0.9l1.1,3.1c0,0-1.6,1.4-4.8,1.4
				C824.9,74.4,821.6,70.9,821.6,66.2z"/>
			<path id="XMLID_942_" class="st3" d="M838.8,58.5v-4.7h4.4v4.7h3.8v3.4h-3.8v7c0,1.1,0.5,1.7,1.7,1.7c0.9,0,1.7-0.5,1.7-0.5
				l1.3,3.1c-0.7,0.5-2.2,1.3-4,1.3c-3.6,0-5-2.3-5-5.4v-7.1h-2.7v-3.4H838.8z"/>
			<path id="XMLID_940_" class="st3" d="M860.8,58.5h4.4V74h-3l-0.8-2.1h-0.2c-0.7,1.1-2.1,2.5-4.8,2.5c-4,0-6.4-2.7-6.4-6.9v-9h4.4
				v8.7c0,2,1,3.5,3,3.5c2.1,0,3.2-1.7,3.2-3.2V58.5z"/>
			<path id="XMLID_938_" class="st3" d="M878.1,62.2h-0.8c-2.1,0-3.6,1.4-3.6,3.8v8h-4.4V58.5h2.8l0.6,2.3h0.2
				c0.8-1.5,2.3-2.3,4.3-2.3h0.9V62.2z"/>
			<path id="XMLID_935_" class="st3" d="M893.6,72.6c0,0-1.9,1.9-5.8,1.9c-5.2,0-8.3-3.5-8.3-8.2c0-4.7,3.1-8.1,7.7-8.1
				c4.6,0,7.3,3.1,7.3,7.7c0,0.4,0,1.2,0,1.2h-10.6c0.3,2.7,1.9,3.9,4.3,3.9c2.4,0,4-1.3,4-1.3L893.6,72.6z M883.8,64.4h6.2
				c-0.2-1.9-1.2-3-3-3C885.4,61.4,884.2,62.4,883.8,64.4z"/>
		</g>
	</g>
</g>
<g id="Layer_2">
	<g id="XMLID_51_">
		<g id="XMLID_44_">
			<g id="XMLID_49_">
				<g id="XMLID_50_">
					<g id="XMLID_92_">
						<path id="XMLID_98_" class="st4" d="M172,266c-0.7,0-1.4-0.4-1.7-1l-25.1-43.5c-0.4-0.6-0.4-1.4,0-2c0.4-0.6,1-1,1.7-1h9.1
							V183c0-1.1,0.9-2,2-2h28c1.1,0,2,0.9,2,2v35.5h9.1c0.7,0,1.4,0.4,1.7,1c0.4,0.6,0.4,1.4,0,2L173.7,265
							C173.4,265.6,172.7,266,172,266z"/>
						<path id="XMLID_95_" class="st3" d="M186,183v37.5h11.1L172,264l-25.1-43.5H158V183H186 M186,179h-28c-2.2,0-4,1.8-4,4v33.5
							h-7.1c-1.4,0-2.7,0.8-3.5,2c-0.7,1.2-0.7,2.8,0,4l25.1,43.5c0.7,1.2,2,2,3.5,2s2.7-0.8,3.5-2l25.1-43.5c0.7-1.2,0.7-2.8,0-4
							c-0.7-1.2-2-2-3.5-2H190V183C190,180.8,188.2,179,186,179L186,179z"/>
					</g>
				</g>
			</g>
		</g>
		<g id="XMLID_48_">
			<path id="XMLID_406_" class="st3" d="M169.3,228.4h-4.2v-1.8H176v1.2l-1.1,0.3v0.1c0,0,1.3,0.6,1.3,2.3c0,1.8-1.5,3.2-4,3.2
				c-2.4,0-4-1.4-4-3.2C168.3,229,169.3,228.5,169.3,228.4L169.3,228.4z M169.7,230.1c0,1.1,1,1.8,2.5,1.8c1.5,0,2.5-0.8,2.5-1.8
				c0-1-1-1.8-2.5-1.8C170.7,228.3,169.7,229.1,169.7,230.1z"/>
			<path id="XMLID_409_" class="st3" d="M175.3,219c0,0,0.9,0.8,0.9,2.6c0,2.3-1.7,3.6-4,3.6c-2.3,0-4-1.3-4-3.4
				c0-2,1.6-3.2,3.8-3.2h0.5v4.8c1.5-0.1,2.3-0.9,2.3-2.1c0-1.1-0.7-1.8-0.7-1.8L175.3,219z M171.3,223.4v-3
				c-1.1,0.1-1.7,0.6-1.7,1.5S170.2,223.2,171.3,223.4z"/>
			<path id="XMLID_412_" class="st3" d="M175.1,215.4h3.7v1.8h-10.4V216l1.1-0.2v-0.1c0,0-1.3-0.6-1.3-2.3c0-1.8,1.5-3.2,4-3.2
				c2.4,0,4,1.4,4,3.2C176.2,214.9,175.1,215.4,175.1,215.4L175.1,215.4z M174.7,213.7c0-1-1-1.8-2.5-1.8c-1.5,0-2.5,0.8-2.5,1.8
				s1,1.8,2.5,1.8C173.8,215.5,174.7,214.8,174.7,213.7z"/>
			<path id="XMLID_415_" class="st3" d="M175.3,202.9c0,0,0.9,0.8,0.9,2.6c0,2.3-1.7,3.6-4,3.6c-2.3,0-4-1.3-4-3.4
				c0-2,1.6-3.2,3.8-3.2h0.5v4.8c1.5-0.1,2.3-0.9,2.3-2.1c0-1.1-0.7-1.8-0.7-1.8L175.3,202.9z M171.3,207.3v-3
				c-1.1,0.1-1.7,0.6-1.7,1.5S170.2,207.1,171.3,207.3z"/>
			<path id="XMLID_418_" class="st3" d="M176,199.3v1.8h-7.6V200l1.1-0.2v-0.1c-0.8-0.6-1.3-1.2-1.3-2.3c0-1.8,1.4-2.9,3.4-2.9h4.3
				v1.8h-4.2c-1.2,0-2.1,0.5-2.1,1.5c0,1.1,1,1.6,1.8,1.6H176z"/>
			<path id="XMLID_420_" class="st3" d="M169.3,187.7h-4.2V186H176v1.2l-1.1,0.3v0.1c0,0,1.3,0.6,1.3,2.3c0,1.8-1.5,3.2-4,3.2
				c-2.4,0-4-1.4-4-3.2C168.3,188.3,169.3,187.8,169.3,187.7L169.3,187.7z M169.7,189.4c0,1.1,1,1.8,2.5,1.8c1.5,0,2.5-0.8,2.5-1.8
				c0-1-1-1.8-2.5-1.8C170.7,187.6,169.7,188.4,169.7,189.4z"/>
		</g>
	</g>
	<g id="XMLID_60_">
		<g id="XMLID_65_">
			<g id="XMLID_67_">
				<g id="XMLID_69_">
					<g id="XMLID_70_">
						<path id="XMLID_112_" class="st4" d="M480,427c-0.7,0-1.4-0.4-1.7-1l-25.1-43.5c-0.4-0.6-0.4-1.4,0-2c0.4-0.6,1-1,1.7-1h9.1
							V344c0-1.1,0.9-2,2-2h28c1.1,0,2,0.9,2,2v35.5h9.1c0.7,0,1.4,0.4,1.7,1c0.4,0.6,0.4,1.4,0,2L481.7,426
							C481.4,426.6,480.7,427,480,427z"/>
						<path id="XMLID_109_" class="st3" d="M494,344v37.5h11.1L480,425l-25.1-43.5H466V344H494 M494,340h-28c-2.2,0-4,1.8-4,4v33.5
							h-7.1c-1.4,0-2.7,0.8-3.5,2c-0.7,1.2-0.7,2.8,0,4l25.1,43.5c0.7,1.2,2,2,3.5,2s2.7-0.8,3.5-2l25.1-43.5c0.7-1.2,0.7-2.8,0-4
							c-0.7-1.2-2-2-3.5-2H498V344C498,341.8,496.2,340,494,340L494,340z"/>
					</g>
				</g>
			</g>
		</g>
		<g id="XMLID_64_">
			<path id="XMLID_389_" class="st3" d="M477.3,389.4h-4.2v-1.8H484v1.2l-1.1,0.3v0.1c0,0,1.3,0.6,1.3,2.3c0,1.8-1.5,3.2-4,3.2
				c-2.4,0-4-1.4-4-3.2C476.3,390,477.3,389.5,477.3,389.4L477.3,389.4z M477.7,391.1c0,1.1,1,1.8,2.5,1.8c1.5,0,2.5-0.8,2.5-1.8
				c0-1-1-1.8-2.5-1.8C478.7,389.3,477.7,390.1,477.7,391.1z"/>
			<path id="XMLID_392_" class="st3" d="M483.3,380c0,0,0.9,0.8,0.9,2.6c0,2.3-1.7,3.6-4,3.6c-2.3,0-4-1.3-4-3.4
				c0-2,1.6-3.2,3.8-3.2h0.5v4.8c1.5-0.1,2.3-0.9,2.3-2.1c0-1.1-0.7-1.8-0.7-1.8L483.3,380z M479.3,384.4v-3
				c-1.1,0.1-1.7,0.6-1.7,1.5S478.2,384.2,479.3,384.4z"/>
			<path id="XMLID_395_" class="st3" d="M483.1,376.4h3.7v1.8h-10.4V377l1.1-0.2v-0.1c0,0-1.3-0.6-1.3-2.3c0-1.8,1.5-3.2,4-3.2
				c2.4,0,4,1.4,4,3.2C484.2,375.9,483.1,376.4,483.1,376.4L483.1,376.4z M482.7,374.7c0-1-1-1.8-2.5-1.8c-1.5,0-2.5,0.8-2.5,1.8
				c0,1,1,1.8,2.5,1.8C481.8,376.5,482.7,375.8,482.7,374.7z"/>
			<path id="XMLID_398_" class="st3" d="M483.3,363.9c0,0,0.9,0.8,0.9,2.6c0,2.3-1.7,3.6-4,3.6c-2.3,0-4-1.3-4-3.4
				c0-2,1.6-3.2,3.8-3.2h0.5v4.8c1.5-0.1,2.3-0.9,2.3-2.1c0-1.1-0.7-1.8-0.7-1.8L483.3,363.9z M479.3,368.3v-3
				c-1.1,0.1-1.7,0.6-1.7,1.5C477.6,367.6,478.2,368.1,479.3,368.3z"/>
			<path id="XMLID_401_" class="st3" d="M484,360.3v1.8h-7.6V361l1.1-0.2v-0.1c-0.8-0.6-1.3-1.2-1.3-2.3c0-1.8,1.4-2.9,3.4-2.9h4.3
				v1.8h-4.2c-1.2,0-2.1,0.5-2.1,1.5c0,1.1,1,1.6,1.8,1.6H484z"/>
			<path id="XMLID_403_" class="st3" d="M477.3,348.7h-4.2V347H484v1.2l-1.1,0.3v0.1c0,0,1.3,0.6,1.3,2.3c0,1.8-1.5,3.2-4,3.2
				c-2.4,0-4-1.4-4-3.2C476.3,349.3,477.3,348.8,477.3,348.7L477.3,348.7z M477.7,350.4c0,1.1,1,1.8,2.5,1.8c1.5,0,2.5-0.8,2.5-1.8
				c0-1-1-1.8-2.5-1.8C478.7,348.6,477.7,349.4,477.7,350.4z"/>
		</g>
	</g>
	<g id="XMLID_3_">
		<path id="XMLID_8_" class="st5" d="M268.1,339.5H75.9c-6.6,0-11.9-5.3-11.9-11.9v-47.3c0-6.6,5.3-11.9,11.9-11.9h192.3
			c6.6,0,11.9,5.3,11.9,11.9v47.3C280,334.2,274.7,339.5,268.1,339.5z"/>
		<g id="XMLID_7_">
			<path id="XMLID_359_" d="M146.7,329.5h-2.4l-10.1-13.7v13.7H131v-19.8h2.4l10.1,13.8v-13.8h3.3V329.5z"/>
			<path id="XMLID_361_" d="M156.1,329.8c-3.6,0-6.6-2.8-6.6-7.2c0-4.4,2.9-7.3,6.6-7.3c3.6,0,6.6,2.9,6.6,7.3
				C162.7,327,159.7,329.8,156.1,329.8z M159.5,322.6c0-2.9-1.5-4.7-3.4-4.7c-1.9,0-3.4,1.8-3.4,4.7c0,2.9,1.5,4.7,3.4,4.7
				C158,327.3,159.5,325.5,159.5,322.6z"/>
			<path id="XMLID_364_" d="M166.1,315.6v-4.2h3.2v4.2h3.3v2.5h-3.3v7c0,1.2,0.5,1.8,1.5,1.8c0.8,0,1.6-0.5,1.6-0.5l1,2.3
				c-0.4,0.2-1.6,1-3.2,1c-2.9,0-4.1-1.8-4.1-4.6v-7.1h-2.2v-2.5H166.1z"/>
			<path id="XMLID_366_" d="M175.1,311.1c0-1.1,0.9-1.9,1.9-1.9c1.1,0,2,0.9,2,1.9c0,1.1-0.9,1.9-2,1.9
				C176,313.1,175.1,312.3,175.1,311.1z M175.4,315.6h3.2v13.9h-3.2V315.6z"/>
			<path id="XMLID_369_" d="M186.6,318.2v11.3h-3.2v-11.3h-2.8v-2.5h2.8v-1.2c0-3.2,1.6-5.1,4.7-5.1c1.8,0,3,0.7,3,0.7l-1,2.4
				c0,0-0.7-0.4-1.6-0.4c-1.1,0-1.8,0.9-1.8,2.2v1.4h4.1v2.5H186.6z"/>
			<path id="XMLID_371_" d="M191.8,311.1c0-1.1,0.9-1.9,1.9-1.9c1.1,0,2,0.9,2,1.9c0,1.1-0.9,1.9-2,1.9
				C192.7,313.1,191.8,312.3,191.8,311.1z M192.1,315.6h3.2v13.9h-3.2V315.6z"/>
			<path id="XMLID_374_" d="M198.1,322.6c0-4.3,2.6-7.3,6.5-7.3c2.8,0,4,1.2,4,1.2l-0.9,2.4c0,0-1.2-0.9-2.8-0.9
				c-2,0-3.5,1.7-3.5,4.6c0,2.9,1.5,4.6,3.5,4.6c1.7,0,2.8-0.9,2.8-0.9l0.8,2.3c0,0-1.1,1.3-3.9,1.3
				C200.7,329.8,198.1,326.8,198.1,322.6z"/>
			<path id="XMLID_376_" d="M221.9,329.5h-2.2l-0.4-1.8h-0.1c-0.7,1.3-2.1,2.1-4.2,2.1c-3,0-4.7-1.9-4.7-4.4c0-2.7,2-4.6,5.8-4.6
				c1.1,0,2,0.2,2.7,0.4v-0.4c0-2.1-1.2-2.9-3.1-2.9c-1.9,0-3.4,1-3.4,1l-1.1-2.4c0,0,1.8-1.3,5-1.3c3.9,0,5.7,2.2,5.7,5.6V329.5z
				 M218.8,324.5v-1.2c-0.4-0.2-1.1-0.5-2.3-0.5c-2,0-3.1,0.9-3.1,2.4c0,1.3,0.9,2.3,2.4,2.3C217.4,327.5,218.7,326.2,218.8,324.5z"
				/>
			<path id="XMLID_379_" d="M226.1,315.6v-4.2h3.2v4.2h3.3v2.5h-3.3v7c0,1.2,0.5,1.8,1.5,1.8c0.8,0,1.6-0.5,1.6-0.5l1,2.3
				c-0.4,0.2-1.6,1-3.2,1c-2.9,0-4.1-1.8-4.1-4.6v-7.1h-2.2v-2.5H226.1z"/>
			<path id="XMLID_381_" d="M235.1,311.1c0-1.1,0.9-1.9,1.9-1.9c1.1,0,2,0.9,2,1.9c0,1.1-0.9,1.9-2,1.9
				C236,313.1,235.1,312.3,235.1,311.1z M235.4,315.6h3.2v13.9h-3.2V315.6z"/>
			<path id="XMLID_384_" d="M248,329.8c-3.6,0-6.6-2.8-6.6-7.2c0-4.4,2.9-7.3,6.6-7.3c3.6,0,6.6,2.9,6.6,7.3
				C254.5,327,251.5,329.8,248,329.8z M251.3,322.6c0-2.9-1.5-4.7-3.4-4.7c-1.9,0-3.4,1.8-3.4,4.7c0,2.9,1.5,4.7,3.4,4.7
				C249.8,327.3,251.3,325.5,251.3,322.6z"/>
			<path id="XMLID_387_" d="M260.5,329.5h-3.2v-13.9h2.1l0.4,2h0.2c1-1.5,2.2-2.3,4.2-2.3c3.3,0,5.2,2.5,5.2,6.2v8h-3.2v-7.7
				c0-2.1-1-3.8-2.8-3.8c-1.9,0-2.9,1.9-2.9,3.4V329.5z"/>
		</g>
		<g id="XMLID_4_">
			<path id="XMLID_338_" class="st4" d="M73.4,293.5h-3.3v-19.8h3.3V293.5z"/>
			<path id="XMLID_340_" class="st4" d="M80.6,293.5h-3.2v-13.9h2.1l0.4,2H80c1-1.5,2.2-2.3,4.2-2.3c3.3,0,5.2,2.5,5.2,6.2v8h-3.2
				v-7.7c0-2.1-1-3.8-2.8-3.8c-1.9,0-2.9,1.9-2.9,3.4V293.5z"/>
			<path id="XMLID_342_" class="st4" d="M93.6,279.6v-4.2h3.2v4.2h3.3v2.5h-3.3v7c0,1.2,0.5,1.8,1.5,1.8c0.8,0,1.6-0.5,1.6-0.5
				l1,2.3c-0.4,0.2-1.6,1-3.2,1c-2.9,0-4.1-1.8-4.1-4.6v-7.1h-2.2v-2.5H93.6z"/>
			<path id="XMLID_344_" class="st4" d="M113.5,292.2c0,0-1.4,1.7-4.7,1.7c-4.2,0-6.7-3.1-6.7-7.3c0-4.2,2.4-7.3,6.2-7.3
				c3.7,0,5.8,2.9,5.8,6.9v0.9h-8.8c0.2,2.8,1.6,4.2,3.8,4.2c2.1,0,3.3-1.2,3.3-1.2L113.5,292.2z M105.4,284.9h5.5
				c-0.2-2-1.1-3.1-2.7-3.1S105.7,282.8,105.4,284.9z"/>
			<path id="XMLID_347_" class="st4" d="M123.7,282.3h-0.7c-1.6,0-2.9,1.4-3,3.4v7.8h-3.2v-13.9h2.1l0.4,2.2h0.1
				c0.7-1.5,2-2.2,3.6-2.2h0.7V282.3z"/>
			<path id="XMLID_349_" class="st4" d="M130.1,282.2v11.3h-3.2v-11.3h-2.8v-2.5h2.8v-1.2c0-3.2,1.6-5.1,4.7-5.1c1.8,0,3,0.7,3,0.7
				l-1,2.4c0,0-0.7-0.4-1.6-0.4c-1.1,0-1.8,0.9-1.8,2.2v1.4h4.1v2.5H130.1z"/>
			<path id="XMLID_351_" class="st4" d="M146.2,293.5H144l-0.4-1.8h-0.1c-0.7,1.3-2.1,2.1-4.2,2.1c-3,0-4.7-1.9-4.7-4.4
				c0-2.7,2-4.6,5.8-4.6c1.1,0,2,0.2,2.7,0.4v-0.4c0-2.1-1.2-2.9-3.1-2.9c-1.9,0-3.4,1-3.4,1l-1.1-2.4c0,0,1.8-1.3,5-1.3
				c3.9,0,5.7,2.2,5.7,5.6V293.5z M143.1,288.5v-1.2c-0.4-0.2-1.1-0.5-2.3-0.5c-2,0-3.1,0.9-3.1,2.4c0,1.3,0.9,2.3,2.4,2.3
				C141.7,291.5,143,290.2,143.1,288.5z"/>
			<path id="XMLID_354_" class="st4" d="M148.8,286.6c0-4.3,2.6-7.3,6.5-7.3c2.8,0,4,1.2,4,1.2l-0.9,2.4c0,0-1.2-0.9-2.8-0.9
				c-2,0-3.5,1.7-3.5,4.6c0,2.9,1.5,4.6,3.5,4.6c1.7,0,2.8-0.9,2.8-0.9l0.8,2.3c0,0-1.1,1.3-3.9,1.3
				C151.4,293.8,148.8,290.8,148.8,286.6z"/>
			<path id="XMLID_356_" class="st4" d="M172,292.2c0,0-1.4,1.7-4.7,1.7c-4.2,0-6.7-3.1-6.7-7.3c0-4.2,2.4-7.3,6.2-7.3
				c3.7,0,5.8,2.9,5.8,6.9v0.9h-8.8c0.2,2.8,1.6,4.2,3.8,4.2c2.1,0,3.3-1.2,3.3-1.2L172,292.2z M163.9,284.9h5.5
				c-0.2-2-1.1-3.1-2.7-3.1S164.3,282.8,163.9,284.9z"/>
		</g>
	</g>
	<g id="XMLID_11_">
		<path id="XMLID_31_" class="st5" d="M579.1,501H386.9c-6.6,0-11.9-5.3-11.9-11.9v-47.3c0-6.6,5.3-11.9,11.9-11.9h192.3
			c6.6,0,11.9,5.3,11.9,11.9v47.3C591,495.7,585.7,501,579.1,501z"/>
		<g id="XMLID_30_">
			<path id="XMLID_323_" d="M526.9,477.6l-5,7h-1.2l-5-7V491h-3.3l0-19.8h2.4l6.3,9.2l6.3-9.2h2.4l0,19.8h-3.2V477.6z"/>
			<path id="XMLID_325_" d="M544.4,491h-2.2l-0.4-1.8h-0.1c-0.7,1.3-2.1,2.1-4.2,2.1c-3,0-4.7-1.9-4.7-4.4c0-2.7,2-4.6,5.8-4.6
				c1.1,0,2,0.2,2.7,0.4v-0.4c0-2.1-1.2-2.9-3.1-2.9c-1.9,0-3.4,1-3.4,1l-1.1-2.4c0,0,1.8-1.3,5-1.3c3.9,0,5.7,2.2,5.7,5.6V491z
				 M541.3,486v-1.2c-0.4-0.2-1.1-0.5-2.3-0.5c-2,0-3.1,0.9-3.1,2.4c0,1.3,0.9,2.3,2.4,2.3C539.9,489,541.2,487.7,541.3,486z"/>
			<path id="XMLID_328_" d="M547.5,472.6c0-1.1,0.9-1.9,1.9-1.9s2,0.9,2,1.9c0,1.1-0.9,1.9-2,1.9S547.5,473.8,547.5,472.6z
				 M547.8,477.1h3.2V491h-3.2V477.1z"/>
			<path id="XMLID_331_" d="M554.6,471h3.2v20h-3.2V471z"/>
			<path id="XMLID_333_" d="M572,489.7c0,0-1.4,1.7-4.7,1.7c-4.2,0-6.7-3.1-6.7-7.3c0-4.2,2.4-7.3,6.2-7.3c3.7,0,5.8,2.9,5.8,6.9
				v0.9h-8.8c0.2,2.8,1.6,4.2,3.8,4.2c2.1,0,3.3-1.2,3.3-1.2L572,489.7z M563.9,482.4h5.5c-0.2-2-1.1-3.1-2.7-3.1
				S564.2,480.3,563.9,482.4z"/>
			<path id="XMLID_336_" d="M582.2,479.8h-0.7c-1.6,0-2.9,1.4-3,3.4v7.8h-3.2v-13.9h2.1l0.4,2.2h0.1c0.7-1.5,2-2.2,3.6-2.2h0.7
				V479.8z"/>
		</g>
		<g id="XMLID_12_">
			<path id="XMLID_302_" class="st4" d="M384.4,455h-3.3v-19.8h3.3V455z"/>
			<path id="XMLID_304_" class="st4" d="M391.6,455h-3.2v-13.9h2.1l0.4,2h0.2c1-1.5,2.2-2.3,4.2-2.3c3.3,0,5.2,2.5,5.2,6.2v8h-3.2
				v-7.7c0-2.1-1-3.8-2.8-3.8c-1.9,0-2.9,1.9-2.9,3.4V455z"/>
			<path id="XMLID_306_" class="st4" d="M404.6,441.1v-4.2h3.2v4.2h3.3v2.5h-3.3v7c0,1.2,0.5,1.8,1.5,1.8c0.8,0,1.6-0.5,1.6-0.5
				l1,2.3c-0.4,0.2-1.6,1-3.2,1c-2.9,0-4.1-1.8-4.1-4.6v-7.1h-2.2v-2.5H404.6z"/>
			<path id="XMLID_308_" class="st4" d="M424.5,453.7c0,0-1.4,1.7-4.7,1.7c-4.2,0-6.7-3.1-6.7-7.3c0-4.2,2.4-7.3,6.2-7.3
				c3.7,0,5.8,2.9,5.8,6.9v0.9h-8.8c0.2,2.8,1.6,4.2,3.8,4.2c2.1,0,3.3-1.2,3.3-1.2L424.5,453.7z M416.4,446.4h5.5
				c-0.2-2-1.1-3.1-2.7-3.1S416.7,444.3,416.4,446.4z"/>
			<path id="XMLID_311_" class="st4" d="M434.7,443.8h-0.7c-1.6,0-2.9,1.4-3,3.4v7.8h-3.2v-13.9h2.1l0.4,2.2h0.1
				c0.7-1.5,2-2.2,3.6-2.2h0.7V443.8z"/>
			<path id="XMLID_313_" class="st4" d="M441.1,443.7V455h-3.2v-11.3h-2.8v-2.5h2.8v-1.2c0-3.2,1.6-5.1,4.7-5.1c1.8,0,3,0.7,3,0.7
				l-1,2.4c0,0-0.7-0.4-1.6-0.4c-1.1,0-1.8,0.9-1.8,2.2v1.4h4.1v2.5H441.1z"/>
			<path id="XMLID_315_" class="st4" d="M457.2,455H455l-0.4-1.8h-0.1c-0.7,1.3-2.1,2.1-4.2,2.1c-3,0-4.7-1.9-4.7-4.4
				c0-2.7,2-4.6,5.8-4.6c1.1,0,2,0.2,2.7,0.4v-0.4c0-2.1-1.2-2.9-3.1-2.9c-1.9,0-3.4,1-3.4,1l-1.1-2.4c0,0,1.8-1.3,5-1.3
				c3.9,0,5.7,2.2,5.7,5.6V455z M454.1,450v-1.2c-0.4-0.2-1.1-0.5-2.3-0.5c-2,0-3.1,0.9-3.1,2.4c0,1.3,0.9,2.3,2.4,2.3
				C452.7,453,454,451.7,454.1,450z"/>
			<path id="XMLID_318_" class="st4" d="M459.8,448.1c0-4.3,2.6-7.3,6.5-7.3c2.8,0,4,1.2,4,1.2l-0.9,2.4c0,0-1.2-0.9-2.8-0.9
				c-2,0-3.5,1.7-3.5,4.6c0,2.9,1.5,4.6,3.5,4.6c1.7,0,2.8-0.9,2.8-0.9l0.8,2.3c0,0-1.1,1.3-3.9,1.3
				C462.4,455.3,459.8,452.3,459.8,448.1z"/>
			<path id="XMLID_320_" class="st4" d="M483,453.7c0,0-1.4,1.7-4.7,1.7c-4.2,0-6.7-3.1-6.7-7.3c0-4.2,2.4-7.3,6.2-7.3
				c3.7,0,5.8,2.9,5.8,6.9v0.9h-8.8c0.2,2.8,1.6,4.2,3.8,4.2c2.1,0,3.3-1.2,3.3-1.2L483,453.7z M474.9,446.4h5.5
				c-0.2-2-1.1-3.1-2.7-3.1S475.3,444.3,474.9,446.4z"/>
		</g>
	</g>
	<g id="XMLID_34_">
		<path id="XMLID_37_" class="st5" d="M268.1,178H75.9c-6.6,0-11.9-5.3-11.9-11.9v-47.3c0-6.6,5.3-11.9,11.9-11.9h192.3
			c6.6,0,11.9,5.3,11.9,11.9v47.3C280,172.7,274.7,178,268.1,178z"/>
		<g id="XMLID_36_">
			<path id="XMLID_273_" d="M105.1,168v-19.8h3.3v16.9h8.7v2.9H105.1z"/>
			<path id="XMLID_275_" d="M124.8,168.3c-3.6,0-6.6-2.8-6.6-7.2c0-4.4,2.9-7.3,6.6-7.3c3.6,0,6.6,2.9,6.6,7.3
				C131.4,165.5,128.4,168.3,124.8,168.3z M128.2,161.1c0-2.9-1.5-4.7-3.4-4.7c-1.9,0-3.4,1.8-3.4,4.7s1.5,4.7,3.4,4.7
				C126.7,165.8,128.2,164,128.2,161.1z"/>
			<path id="XMLID_278_" d="M134.4,164.5c0,0,1.9,1.4,4.2,1.4c1.6,0,2.1-0.7,2.1-1.6c0-2.6-7.4-1.2-7.4-6.4c0-2.3,1.6-4.1,5-4.1
				c3.5,0,5.4,1.2,5.4,1.2l-1.1,2.5c0,0-1.7-1.2-4-1.2c-1.4,0-2.1,0.5-2.1,1.5c0,2.5,7.5,0.9,7.5,6.3c0,2.3-1.5,4.2-5.3,4.2
				c-3.8,0-5.4-1.6-5.4-1.6L134.4,164.5z"/>
			<path id="XMLID_280_" d="M147.7,154.1v-4.2h3.2v4.2h3.3v2.5h-3.3v7c0,1.2,0.5,1.8,1.5,1.8c0.8,0,1.6-0.5,1.6-0.5l1,2.3
				c-0.4,0.2-1.6,1-3.2,1c-2.9,0-4.1-1.8-4.1-4.6v-7.1h-2.2v-2.5H147.7z"/>
			<path id="XMLID_282_" d="M171.9,154.8c0,4.3-2.8,6.8-7,6.8h-4.2v6.4h-3.3v-19.8h7.6C169.2,148.2,171.9,150.7,171.9,154.8z
				 M164.8,151.1h-4.1v7.6h4.1c2.2,0,3.8-1.2,3.8-3.9C168.5,152.3,167,151.1,164.8,151.1z"/>
			<path id="XMLID_285_" d="M184.5,168h-2.2l-0.4-1.8h-0.1c-0.7,1.3-2.1,2.1-4.2,2.1c-3,0-4.7-1.9-4.7-4.4c0-2.7,2-4.6,5.8-4.6
				c1.1,0,2,0.2,2.7,0.4v-0.4c0-2.1-1.2-2.9-3.1-2.9c-1.9,0-3.4,1-3.4,1l-1.1-2.4c0,0,1.8-1.3,5-1.3c3.9,0,5.7,2.2,5.7,5.6V168z
				 M181.4,163v-1.2c-0.4-0.2-1.1-0.5-2.3-0.5c-2,0-3.1,0.9-3.1,2.4c0,1.3,0.9,2.3,2.4,2.3C180.1,166,181.4,164.7,181.4,163z"/>
			<path id="XMLID_288_" d="M188.3,164.5c0,0,1.9,1.4,4.2,1.4c1.6,0,2.1-0.7,2.1-1.6c0-2.6-7.4-1.2-7.4-6.4c0-2.3,1.6-4.1,5-4.1
				c3.5,0,5.4,1.2,5.4,1.2l-1.1,2.5c0,0-1.7-1.2-4-1.2c-1.4,0-2.1,0.5-2.1,1.5c0,2.5,7.5,0.9,7.5,6.3c0,2.3-1.5,4.2-5.3,4.2
				c-3.8,0-5.4-1.6-5.4-1.6L188.3,164.5z"/>
			<path id="XMLID_290_" d="M200.9,164.5c0,0,1.9,1.4,4.2,1.4c1.6,0,2.1-0.7,2.1-1.6c0-2.6-7.4-1.2-7.4-6.4c0-2.3,1.6-4.1,5-4.1
				c3.5,0,5.4,1.2,5.4,1.2l-1.1,2.5c0,0-1.7-1.2-4-1.2c-1.4,0-2.1,0.5-2.1,1.5c0,2.5,7.5,0.9,7.5,6.3c0,2.3-1.5,4.2-5.3,4.2
				c-3.8,0-5.4-1.6-5.4-1.6L200.9,164.5z"/>
			<path id="XMLID_292_" d="M226.5,168h-2.7l-2.1-8.6c-0.1-0.4-0.2-1.2-0.2-1.3h-0.1c0,0.1-0.2,0.9-0.3,1.3l-2.1,8.6h-2.7l-4.6-13.9
				h3.4l2.3,9c0.1,0.3,0.2,0.7,0.2,1h0.2c0-0.3,0.2-0.8,0.2-1.1l2.1-8.9h2.7l2.1,8.9c0.1,0.4,0.2,0.8,0.2,1.1h0.2
				c0-0.3,0.1-0.7,0.2-1l2.3-9h3.3L226.5,168z"/>
			<path id="XMLID_294_" d="M238.9,168.3c-3.6,0-6.6-2.8-6.6-7.2c0-4.4,2.9-7.3,6.6-7.3c3.6,0,6.6,2.9,6.6,7.3
				C245.4,165.5,242.4,168.3,238.9,168.3z M242.2,161.1c0-2.9-1.5-4.7-3.4-4.7c-1.9,0-3.4,1.8-3.4,4.7s1.5,4.7,3.4,4.7
				C240.7,165.8,242.2,164,242.2,161.1z"/>
			<path id="XMLID_297_" d="M255.1,156.8h-0.7c-1.6,0-2.9,1.4-3,3.4v7.8h-3.2v-13.9h2.1l0.4,2.2h0.1c0.7-1.5,2-2.2,3.6-2.2h0.7
				V156.8z"/>
			<path id="XMLID_299_" d="M266,155.8V148h3.2v20h-2.2l-0.5-2h-0.1c0,0-1.1,2.4-4.3,2.4c-3.4,0-5.9-2.8-5.9-7.3
				c0-4.3,2.5-7.3,5.8-7.3c2.9,0,3.8,1.9,3.8,1.9H266z M262.9,156.5c-1.9,0-3.3,1.9-3.3,4.6c0,2.7,1.4,4.6,3.3,4.6
				c1.9,0,3.4-1.7,3.4-4.6C266.2,158.2,264.8,156.5,262.9,156.5z"/>
		</g>
		<g id="XMLID_35_">
			<path id="XMLID_262_" class="st2" d="M84.3,130c0,0-1.9,2.5-6.1,2.5c-5.6,0-9.2-4.6-9.2-10.3c0-5.8,3.6-10.4,9.2-10.4
				c4.2,0,6.1,2.5,6.1,2.5l-1.8,2.5c0,0-1.6-1.9-4.2-1.9c-3.4,0-5.8,3.2-5.8,7.3c0,4.1,2.4,7.2,5.8,7.2c2.6,0,4.2-1.9,4.2-1.9
				L84.3,130z"/>
			<path id="XMLID_264_" class="st2" d="M86.6,112h3.2v20h-3.2V112z"/>
			<path id="XMLID_266_" class="st2" d="M104.1,132h-2.2l-0.4-1.8h-0.1c-0.7,1.3-2.1,2.1-4.2,2.1c-3,0-4.7-1.9-4.7-4.4
				c0-2.7,2-4.6,5.8-4.6c1.1,0,2,0.2,2.7,0.4v-0.4c0-2.1-1.2-2.9-3.1-2.9c-1.9,0-3.4,1-3.4,1l-1.1-2.4c0,0,1.8-1.3,5-1.3
				c3.9,0,5.7,2.2,5.7,5.6V132z M101,127v-1.2c-0.4-0.2-1.1-0.5-2.3-0.5c-2,0-3.1,0.9-3.1,2.4c0,1.3,0.9,2.3,2.4,2.3
				C99.6,130,100.9,128.7,101,127z"/>
			<path id="XMLID_269_" class="st2" d="M107.8,128.5c0,0,1.9,1.4,4.2,1.4c1.6,0,2.1-0.7,2.1-1.6c0-2.6-7.4-1.2-7.4-6.4
				c0-2.3,1.6-4.1,5-4.1c3.5,0,5.4,1.2,5.4,1.2l-1.1,2.5c0,0-1.7-1.2-4-1.2c-1.4,0-2.1,0.5-2.1,1.5c0,2.5,7.5,0.9,7.5,6.3
				c0,2.3-1.5,4.2-5.3,4.2c-3.8,0-5.4-1.6-5.4-1.6L107.8,128.5z"/>
			<path id="XMLID_271_" class="st2" d="M120.4,128.5c0,0,1.9,1.4,4.2,1.4c1.6,0,2.1-0.7,2.1-1.6c0-2.6-7.4-1.2-7.4-6.4
				c0-2.3,1.6-4.1,5-4.1c3.5,0,5.4,1.2,5.4,1.2l-1.1,2.5c0,0-1.7-1.2-4-1.2c-1.4,0-2.1,0.5-2.1,1.5c0,2.5,7.5,0.9,7.5,6.3
				c0,2.3-1.5,4.2-5.3,4.2c-3.8,0-5.4-1.6-5.4-1.6L120.4,128.5z"/>
		</g>
	</g>
	<g id="XMLID_39_">
		<path id="XMLID_43_" class="st5" d="M890.1,501H697.9c-6.6,0-11.9-5.3-11.9-11.9v-47.3c0-6.6,5.3-11.9,11.9-11.9h192.3
			c6.6,0,11.9,5.3,11.9,11.9v47.3C902,495.7,896.7,501,890.1,501z"/>
		<g id="XMLID_42_">
			<path id="XMLID_224_" d="M776.4,486.5c0,0,2.1,1.9,5.1,1.9c2.3,0,3.2-1.1,3.2-2.7c0-1.5-0.7-2.3-3.9-3.4c-4.1-1.3-6-2.8-6-5.9
				c0-3.4,2.3-5.6,6.7-5.6c4.6,0,6.4,2,6.4,2l-1.8,2.7c0,0-1.7-1.7-4.6-1.7c-2,0-3.1,0.9-3.1,2.5c0,1.4,0.8,2,3.8,3
				c4.5,1.4,6.1,3.1,6.1,6.2c0,3.4-2.2,6-6.8,6c-4.7,0-7-2.5-7-2.5L776.4,486.5z"/>
			<path id="XMLID_243_" d="M803,482.4h-8.2v5.7h9.7v2.9h-13v-19.8h13v2.9h-9.7v5.5h8.2V482.4z"/>
			<path id="XMLID_245_" d="M808.4,486.5c0,0,2.1,1.9,5.1,1.9c2.3,0,3.2-1.1,3.2-2.7c0-1.5-0.7-2.3-3.9-3.4c-4.1-1.3-6-2.8-6-5.9
				c0-3.4,2.3-5.6,6.7-5.6c4.6,0,6.4,2,6.4,2l-1.8,2.7c0,0-1.7-1.7-4.6-1.7c-2,0-3.1,0.9-3.1,2.5c0,1.4,0.8,2,3.8,3
				c4.5,1.4,6.1,3.1,6.1,6.2c0,3.4-2.2,6-6.8,6c-4.7,0-7-2.5-7-2.5L808.4,486.5z"/>
			<path id="XMLID_247_" d="M837.9,477.6l-5,7h-1.2l-5-7V491h-3.3l0-19.8h2.4l6.3,9.2l6.3-9.2h2.4l0,19.8h-3.2V477.6z"/>
			<path id="XMLID_249_" d="M855.4,491h-2.2l-0.4-1.8h-0.1c-0.7,1.3-2.1,2.1-4.2,2.1c-3,0-4.7-1.9-4.7-4.4c0-2.7,2-4.6,5.8-4.6
				c1.1,0,2,0.2,2.7,0.4v-0.4c0-2.1-1.2-2.9-3.1-2.9c-1.9,0-3.4,1-3.4,1l-1.1-2.4c0,0,1.8-1.3,5-1.3c3.9,0,5.7,2.2,5.7,5.6V491z
				 M852.3,486v-1.2c-0.4-0.2-1.1-0.5-2.3-0.5c-2,0-3.1,0.9-3.1,2.4c0,1.3,0.9,2.3,2.4,2.3C850.9,489,852.2,487.7,852.3,486z"/>
			<path id="XMLID_252_" d="M858.5,472.6c0-1.1,0.9-1.9,1.9-1.9c1.1,0,2,0.9,2,1.9c0,1.1-0.9,1.9-2,1.9
				C859.3,474.6,858.5,473.8,858.5,472.6z M858.8,477.1h3.2V491h-3.2V477.1z"/>
			<path id="XMLID_255_" d="M865.6,471h3.2v20h-3.2V471z"/>
			<path id="XMLID_257_" d="M883,489.7c0,0-1.4,1.7-4.7,1.7c-4.2,0-6.7-3.1-6.7-7.3c0-4.2,2.4-7.3,6.2-7.3c3.7,0,5.8,2.9,5.8,6.9
				v0.9h-8.8c0.2,2.8,1.6,4.2,3.8,4.2c2.1,0,3.3-1.2,3.3-1.2L883,489.7z M874.9,482.4h5.5c-0.2-2-1.1-3.1-2.7-3.1
				C876.2,479.3,875.2,480.3,874.9,482.4z"/>
			<path id="XMLID_260_" d="M893.2,479.8h-0.7c-1.6,0-2.9,1.4-3,3.4v7.8h-3.2v-13.9h2.1l0.4,2.2h0.1c0.7-1.5,2-2.2,3.6-2.2h0.7
				V479.8z"/>
		</g>
		<g id="XMLID_40_">
			<path id="XMLID_213_" class="st2" d="M706.3,453c0,0-1.9,2.5-6.1,2.5c-5.6,0-9.2-4.6-9.2-10.3c0-5.8,3.6-10.4,9.2-10.4
				c4.2,0,6.1,2.5,6.1,2.5l-1.8,2.5c0,0-1.6-1.9-4.2-1.9c-3.4,0-5.8,3.2-5.8,7.3c0,4.1,2.4,7.2,5.8,7.2c2.6,0,4.2-1.9,4.2-1.9
				L706.3,453z"/>
			<path id="XMLID_215_" class="st2" d="M708.6,435h3.2v20h-3.2V435z"/>
			<path id="XMLID_217_" class="st2" d="M726.1,455h-2.2l-0.4-1.8h-0.1c-0.7,1.3-2.1,2.1-4.2,2.1c-3,0-4.7-1.9-4.7-4.4
				c0-2.7,2-4.6,5.8-4.6c1.1,0,2,0.2,2.7,0.4v-0.4c0-2.1-1.2-2.9-3.1-2.9c-1.9,0-3.4,1-3.4,1l-1.1-2.4c0,0,1.8-1.3,5-1.3
				c3.9,0,5.7,2.2,5.7,5.6V455z M723,450v-1.2c-0.4-0.2-1.1-0.5-2.3-0.5c-2,0-3.1,0.9-3.1,2.4c0,1.3,0.9,2.3,2.4,2.3
				C721.6,453,722.9,451.7,723,450z"/>
			<path id="XMLID_220_" class="st2" d="M729.8,451.5c0,0,1.9,1.4,4.2,1.4c1.6,0,2.1-0.7,2.1-1.6c0-2.6-7.4-1.2-7.4-6.4
				c0-2.3,1.6-4.1,5-4.1c3.5,0,5.4,1.2,5.4,1.2l-1.1,2.5c0,0-1.7-1.2-4-1.2c-1.4,0-2.1,0.5-2.1,1.5c0,2.5,7.5,0.9,7.5,6.3
				c0,2.3-1.5,4.2-5.3,4.2c-3.8,0-5.4-1.6-5.4-1.6L729.8,451.5z"/>
			<path id="XMLID_222_" class="st2" d="M742.4,451.5c0,0,1.9,1.4,4.2,1.4c1.6,0,2.1-0.7,2.1-1.6c0-2.6-7.4-1.2-7.4-6.4
				c0-2.3,1.6-4.1,5-4.1c3.5,0,5.4,1.2,5.4,1.2l-1.1,2.5c0,0-1.7-1.2-4-1.2c-1.4,0-2.1,0.5-2.1,1.5c0,2.5,7.5,0.9,7.5,6.3
				c0,2.3-1.5,4.2-5.3,4.2c-3.8,0-5.4-1.6-5.4-1.6L742.4,451.5z"/>
		</g>
	</g>
	<g id="XMLID_45_">
		<path id="XMLID_56_" class="st5" d="M579.1,339.5H386.9c-6.6,0-11.9-5.3-11.9-11.9v-47.3c0-6.6,5.3-11.9,11.9-11.9h192.3
			c6.6,0,11.9,5.3,11.9,11.9v47.3C591,334.2,585.7,339.5,579.1,339.5z"/>
		<g id="XMLID_55_">
			<path id="XMLID_169_" d="M407,316.1l-5,7h-1.2l-5-7v13.3h-3.3l0-19.8h2.4l6.3,9.2l6.3-9.2h2.4l0,19.8H407V316.1z"/>
			<path id="XMLID_171_" d="M424.5,329.5h-2.2l-0.4-1.8h-0.1c-0.7,1.3-2.1,2.1-4.2,2.1c-3,0-4.7-1.9-4.7-4.4c0-2.7,2-4.6,5.8-4.6
				c1.1,0,2,0.2,2.7,0.4v-0.4c0-2.1-1.2-2.9-3.1-2.9c-1.9,0-3.4,1-3.4,1l-1.1-2.4c0,0,1.8-1.3,5-1.3c3.9,0,5.7,2.2,5.7,5.6V329.5z
				 M421.4,324.5v-1.2c-0.4-0.2-1.1-0.5-2.3-0.5c-2,0-3.1,0.9-3.1,2.4c0,1.3,0.9,2.3,2.4,2.3C420,327.5,421.4,326.2,421.4,324.5z"/>
			<path id="XMLID_174_" d="M427.6,311.1c0-1.1,0.9-1.9,1.9-1.9c1.1,0,2,0.9,2,1.9c0,1.1-0.9,1.9-2,1.9
				C428.5,313.1,427.6,312.3,427.6,311.1z M427.9,315.6h3.2v13.9h-3.2V315.6z"/>
			<path id="XMLID_177_" d="M434.7,309.5h3.2v20h-3.2V309.5z"/>
			<path id="XMLID_179_" d="M457.7,329.5h-2.4l-10.1-13.7v13.7H442v-19.8h2.4l10.1,13.8v-13.8h3.3V329.5z"/>
			<path id="XMLID_181_" d="M467.1,329.8c-3.6,0-6.6-2.8-6.6-7.2c0-4.4,2.9-7.3,6.6-7.3c3.6,0,6.6,2.9,6.6,7.3
				C473.7,327,470.7,329.8,467.1,329.8z M470.5,322.6c0-2.9-1.5-4.7-3.4-4.7c-1.9,0-3.4,1.8-3.4,4.7c0,2.9,1.5,4.7,3.4,4.7
				C469,327.3,470.5,325.5,470.5,322.6z"/>
			<path id="XMLID_184_" d="M477.1,315.6v-4.2h3.2v4.2h3.3v2.5h-3.3v7c0,1.2,0.5,1.8,1.5,1.8c0.8,0,1.6-0.5,1.6-0.5l1,2.3
				c-0.4,0.2-1.6,1-3.2,1c-2.9,0-4.1-1.8-4.1-4.6v-7.1h-2.2v-2.5H477.1z"/>
			<path id="XMLID_186_" d="M486.1,311.1c0-1.1,0.9-1.9,1.9-1.9c1.1,0,2,0.9,2,1.9c0,1.1-0.9,1.9-2,1.9
				C487,313.1,486.1,312.3,486.1,311.1z M486.4,315.6h3.2v13.9h-3.2V315.6z"/>
			<path id="XMLID_189_" d="M497.6,318.2v11.3h-3.2v-11.3h-2.8v-2.5h2.8v-1.2c0-3.2,1.7-5.1,4.7-5.1c1.8,0,3,0.7,3,0.7l-1,2.4
				c0,0-0.7-0.4-1.6-0.4c-1.1,0-1.8,0.9-1.8,2.2v1.4h4.1v2.5H497.6z"/>
			<path id="XMLID_191_" d="M502.8,311.1c0-1.1,0.9-1.9,1.9-1.9c1.1,0,2,0.9,2,1.9c0,1.1-0.9,1.9-2,1.9
				C503.7,313.1,502.8,312.3,502.8,311.1z M503.1,315.6h3.2v13.9h-3.2V315.6z"/>
			<path id="XMLID_194_" d="M509.1,322.6c0-4.3,2.6-7.3,6.5-7.3c2.8,0,4,1.2,4,1.2l-0.9,2.4c0,0-1.2-0.9-2.8-0.9
				c-2,0-3.5,1.7-3.5,4.6c0,2.9,1.5,4.6,3.5,4.6c1.7,0,2.8-0.9,2.8-0.9l0.8,2.3c0,0-1.1,1.3-3.9,1.3
				C511.7,329.8,509.1,326.8,509.1,322.6z"/>
			<path id="XMLID_196_" d="M532.9,329.5h-2.2l-0.4-1.8h-0.1c-0.7,1.3-2.1,2.1-4.2,2.1c-3,0-4.7-1.9-4.7-4.4c0-2.7,2-4.6,5.8-4.6
				c1.1,0,2,0.2,2.7,0.4v-0.4c0-2.1-1.2-2.9-3.1-2.9c-1.9,0-3.4,1-3.4,1l-1.1-2.4c0,0,1.8-1.3,5-1.3c3.9,0,5.7,2.2,5.7,5.6V329.5z
				 M529.8,324.5v-1.2c-0.4-0.2-1.1-0.5-2.3-0.5c-2,0-3.1,0.9-3.1,2.4c0,1.3,0.9,2.3,2.4,2.3C528.4,327.5,529.7,326.2,529.8,324.5z"
				/>
			<path id="XMLID_199_" d="M537.1,315.6v-4.2h3.2v4.2h3.3v2.5h-3.3v7c0,1.2,0.5,1.8,1.5,1.8c0.8,0,1.6-0.5,1.6-0.5l1,2.3
				c-0.4,0.2-1.6,1-3.2,1c-2.9,0-4.1-1.8-4.1-4.6v-7.1h-2.2v-2.5H537.1z"/>
			<path id="XMLID_202_" d="M546.1,311.1c0-1.1,0.9-1.9,1.9-1.9c1.1,0,2,0.9,2,1.9c0,1.1-0.9,1.9-2,1.9
				C547,313.1,546.1,312.3,546.1,311.1z M546.4,315.6h3.2v13.9h-3.2V315.6z"/>
			<path id="XMLID_208_" d="M559,329.8c-3.6,0-6.6-2.8-6.6-7.2c0-4.4,2.9-7.3,6.6-7.3c3.6,0,6.6,2.9,6.6,7.3
				C565.5,327,562.5,329.8,559,329.8z M562.3,322.6c0-2.9-1.5-4.7-3.4-4.7c-1.9,0-3.4,1.8-3.4,4.7c0,2.9,1.5,4.7,3.4,4.7
				C560.8,327.3,562.3,325.5,562.3,322.6z"/>
			<path id="XMLID_211_" d="M571.5,329.5h-3.2v-13.9h2.1l0.4,2h0.2c1-1.5,2.2-2.3,4.2-2.3c3.3,0,5.2,2.5,5.2,6.2v8h-3.2v-7.7
				c0-2.1-1-3.8-2.8-3.8c-1.9,0-2.9,1.9-2.9,3.4V329.5z"/>
		</g>
		<g id="XMLID_54_">
			<path id="XMLID_158_" class="st2" d="M395.3,291.5c0,0-1.9,2.5-6.1,2.5c-5.6,0-9.2-4.6-9.2-10.3c0-5.8,3.6-10.4,9.2-10.4
				c4.2,0,6.1,2.5,6.1,2.5l-1.8,2.5c0,0-1.6-1.9-4.2-1.9c-3.4,0-5.8,3.2-5.8,7.3c0,4.1,2.4,7.2,5.8,7.2c2.6,0,4.2-1.9,4.2-1.9
				L395.3,291.5z"/>
			<path id="XMLID_160_" class="st2" d="M397.6,273.5h3.2v20h-3.2V273.5z"/>
			<path id="XMLID_162_" class="st2" d="M415.1,293.5h-2.2l-0.4-1.8h-0.1c-0.7,1.3-2.1,2.1-4.2,2.1c-3,0-4.7-1.9-4.7-4.4
				c0-2.7,2-4.6,5.8-4.6c1.1,0,2,0.2,2.7,0.4v-0.4c0-2.1-1.2-2.9-3.1-2.9c-1.9,0-3.4,1-3.4,1l-1.1-2.4c0,0,1.8-1.3,5-1.3
				c3.9,0,5.7,2.2,5.7,5.6V293.5z M412,288.5v-1.2c-0.4-0.2-1.1-0.5-2.3-0.5c-2,0-3.1,0.9-3.1,2.4c0,1.3,0.9,2.3,2.4,2.3
				C410.6,291.5,411.9,290.2,412,288.5z"/>
			<path id="XMLID_165_" class="st2" d="M418.8,290c0,0,1.9,1.4,4.2,1.4c1.6,0,2.1-0.7,2.1-1.6c0-2.6-7.4-1.2-7.4-6.4
				c0-2.3,1.6-4.1,5-4.1c3.5,0,5.4,1.2,5.4,1.2L427,283c0,0-1.7-1.2-4-1.2c-1.4,0-2.1,0.5-2.1,1.5c0,2.5,7.5,0.9,7.5,6.3
				c0,2.3-1.5,4.2-5.3,4.2c-3.8,0-5.4-1.6-5.4-1.6L418.8,290z"/>
			<path id="XMLID_167_" class="st2" d="M431.4,290c0,0,1.9,1.4,4.2,1.4c1.6,0,2.1-0.7,2.1-1.6c0-2.6-7.4-1.2-7.4-6.4
				c0-2.3,1.6-4.1,5-4.1c3.5,0,5.4,1.2,5.4,1.2l-1.1,2.5c0,0-1.7-1.2-4-1.2c-1.4,0-2.1,0.5-2.1,1.5c0,2.5,7.5,0.9,7.5,6.3
				c0,2.3-1.5,4.2-5.3,4.2c-3.8,0-5.4-1.6-5.4-1.6L431.4,290z"/>
		</g>
	</g>
</g>
<g id="Layer_4">
	<path id="XMLID_91_" class="st6" d="M281,355.2H62c-6.6,0-12-5.4-12-12V105c0-6.6,5.4-12,12-12h219c6.6,0,12,5.4,12,12v238.2
		C293,349.8,287.6,355.2,281,355.2z"/>
	<path id="XMLID_93_" class="st6" d="M592.5,515.6h-219c-6.6,0-12-5.4-12-12V265.4c0-6.6,5.4-12,12-12h219c6.6,0,12,5.4,12,12v238.2
		C604.5,510.2,599.1,515.6,592.5,515.6z"/>
	<path id="XMLID_94_" class="st6" d="M903.5,515.6h-219c-6.6,0-12-5.4-12-12v-75.3c0-6.6,5.4-12,12-12h219c6.6,0,12,5.4,12,12v75.3
		C915.5,510.2,910.1,515.6,903.5,515.6z"/>
	<g id="XMLID_13_">
	</g>
	<g id="XMLID_423_">
	</g>
	<g id="XMLID_424_">
	</g>
	<g id="XMLID_425_">
	</g>
	<g id="XMLID_426_">
	</g>
	<g id="XMLID_427_">
	</g>
	<g id="XMLID_428_">
	</g>
	<g id="XMLID_429_">
	</g>
	<g id="XMLID_430_">
	</g>
	<g id="XMLID_431_">
	</g>
	<g id="XMLID_432_">
	</g>
	<g id="XMLID_433_">
	</g>
	<g id="XMLID_434_">
	</g>
	<g id="XMLID_435_">
	</g>
	<g id="XMLID_436_">
	</g>
</g>
</svg>
