<?xml version="1.0" encoding="utf-8"?>
<!-- Generator: Adobe Illustrator 19.0.0, SVG Export Plug-In . SVG Version: 6.00 Build 0)  -->
<svg version="1.1" id="Layer_1" xmlns="http://www.w3.org/2000/svg" xmlns:xlink="http://www.w3.org/1999/xlink" x="0px" y="0px"
	 viewBox="-324 101 310 360" style="enable-background:new -324 101 310 360;" xml:space="preserve">
<style type="text/css">
	.st0{fill:#55A7E8;stroke:#4182AD;stroke-width:4;stroke-miterlimit:10;}
	.st1{enable-background:new    ;}
	.st2{fill:#FFFFFF;}
	.st3{fill:none;stroke:#333333;stroke-width:4;stroke-linecap:round;stroke-linejoin:round;}
	.st4{fill:#333333;}
</style>
<g id="XMLID_6_">
	<path id="XMLID_1_" class="st0" d="M-106,186h-126c-6.6,0-12-5.4-12-12v-51c0-6.6,5.4-12,12-12h126c6.6,0,12,5.4,12,12v51
		C-94,180.6-99.4,186-106,186z"/>
	<g id="XMLID_2_" class="st1">
		<path class="st2" d="M-204.3,152.4c0,0,2.1,1.5,4.2,1.5c1.1,0,1.6-0.5,1.6-1.2c0-0.8-0.5-1.2-2.6-1.8c-3.1-0.9-4.9-2.1-4.9-4.6
			c0-2.7,1.8-4.6,5.8-4.6c4.1,0,5.6,1.6,5.6,1.6l-1.9,2.9c0,0-1.6-1.2-3.7-1.2c-1.2,0-1.6,0.5-1.6,1.1c0,0.7,0.6,1,2.4,1.5
			c3.3,0.9,5.2,2.2,5.2,4.7c0,2.7-1.8,5-5.8,5c-4.1,0-6.3-2-6.3-2L-204.3,152.4z"/>
		<path class="st2" d="M-185.6,146.3h3.6v10.5h-2.4l-0.6-1.4h-0.1c-0.6,0.9-1.5,1.6-3,1.6c-2.7,0-4.3-1.8-4.3-4.6v-6.2h3.6v5.9
			c0,1,0.6,1.8,1.6,1.8c1.1,0,1.8-0.8,1.8-1.7V146.3z"/>
		<path class="st2" d="M-179.6,141.7h3.6v5.6h0.1c0,0,0.6-1.2,2.6-1.2c2.7,0,4.7,2.2,4.7,5.5c0,3.4-2.1,5.5-4.8,5.5
			c-2.4,0-3.2-1.6-3.2-1.6h-0.1l-0.5,1.4h-2.4V141.7z M-174.1,154.1c1.2,0,2-1.1,2-2.6c0-1.5-0.8-2.5-2-2.5c-1.2,0-2,1-2,2.5
			S-175.4,154.1-174.1,154.1z"/>
		<path class="st2" d="M-168,157.8h0.6c0.5,0,0.8-0.3,0.8-0.8v-10.6h3.6v10.8c0,2.1-1.3,3.5-3.4,3.5h-1.6V157.8z M-166.8,143
			c0-1.1,0.9-2,2-2c1.1,0,2.1,0.8,2.1,2c0,1.2-0.9,2-2.1,2C-165.9,145-166.8,144.2-166.8,143z"/>
		<path class="st2" d="M-151.3,155.9c0,0-1.3,1.3-4,1.3c-3.6,0-5.8-2.5-5.8-5.6c0-3.1,2.2-5.5,5.3-5.5c3.1,0,5,2,5,5.2
			c0,0.4,0,1,0,1h-6.8c0.2,1.4,1,2,2.5,2c1.5,0,2.6-0.8,2.6-0.8L-151.3,155.9z M-157.6,150.4h3.4c0-1-0.6-1.7-1.6-1.7
			C-156.7,148.7-157.4,149.2-157.6,150.4z"/>
		<path class="st2" d="M-149.6,151.6c0-3.1,2.2-5.5,5.7-5.5c2.2,0,3.3,0.9,3.3,0.9l-0.9,2.6c0,0-1-0.6-2.1-0.6c-1.4,0-2.4,1-2.4,2.5
			s1,2.5,2.4,2.5c1.1,0,2.1-0.6,2.1-0.6l0.9,2.5c0,0-1.1,1-3.3,1C-147.4,157.1-149.6,154.7-149.6,151.6z"/>
		<path class="st2" d="M-138,146.3v-3.2h3.6v3.2h2.3v2.8h-2.3v4c0,0.6,0.3,0.9,0.9,0.9c0.5,0,0.9-0.3,0.9-0.3l1,2.4
			c-0.6,0.5-1.8,0.9-2.9,0.9c-2.6,0-3.5-1.6-3.5-3.8v-4.1h-1.7v-2.8H-138z"/>
	</g>
</g>
<g id="XMLID_10_">
	<path id="XMLID_12_" class="st0" d="M-106,451h-126c-6.6,0-12-5.4-12-12v-51c0-6.6,5.4-12,12-12h126c6.6,0,12,5.4,12,12v51
		C-94,445.6-99.4,451-106,451z"/>
	<g id="XMLID_11_" class="st1">
		<path class="st2" d="M-213.8,414.3c0-4.3,3.1-7.8,7.7-7.8c4.6,0,7.7,3.5,7.7,7.8s-3.1,7.8-7.7,7.8
			C-210.6,422.2-213.8,418.6-213.8,414.3z M-202.1,414.3c0-2.6-1.7-4.3-4-4.3c-2.2,0-3.9,1.7-3.9,4.3s1.7,4.3,3.9,4.3
			C-203.9,418.7-202.1,416.9-202.1,414.3z"/>
		<path class="st2" d="M-196.5,406.7h3.6v5.6h0.1c0,0,0.6-1.2,2.6-1.2c2.7,0,4.7,2.2,4.7,5.5c0,3.4-2.1,5.5-4.8,5.5
			c-2.4,0-3.2-1.7-3.2-1.7h-0.1l-0.5,1.4h-2.4V406.7z M-191,419.1c1.2,0,2-1.1,2-2.6c0-1.5-0.8-2.5-2-2.5c-1.2,0-2,1-2,2.5
			C-193.1,418.1-192.3,419.1-191,419.1z"/>
		<path class="st2" d="M-183,418.5c0,0,1.7,1,3.3,1c0.9,0,1.2-0.3,1.2-0.6c0-1.4-5.4-0.4-5.4-4.5c0-1.9,1.5-3.3,4.3-3.3
			c3.2,0,4.8,0.9,4.8,0.9l-1,2.6c0,0-1.5-0.9-3.3-0.9c-0.7,0-1.1,0.2-1.1,0.6c0,1.3,5.6,0.3,5.6,4.5c0,1.9-1.4,3.3-4.8,3.3
			c-3.2,0-4.6-1.1-4.6-1.1L-183,418.5z"/>
		<path class="st2" d="M-163.5,420.9c0,0-1.3,1.3-4,1.3c-3.6,0-5.8-2.5-5.8-5.6c0-3.1,2.2-5.5,5.3-5.5c3.1,0,5,2,5,5.2
			c0,0.4,0,1,0,1h-6.8c0.2,1.4,1,2,2.5,2c1.5,0,2.6-0.8,2.6-0.8L-163.5,420.9z M-169.8,415.4h3.4c0-1-0.6-1.7-1.6-1.7
			C-168.9,413.7-169.6,414.2-169.8,415.4z"/>
		<path class="st2" d="M-154.9,414.4h-0.5c-1.3,0-2.2,0.9-2.2,2.4v5.1h-3.6v-10.5h2.2l0.6,1.4h0.2c0.6-1,1.5-1.4,2.9-1.4h0.5V414.4z
			"/>
		<path class="st2" d="M-147.5,421.8h-2.6l-4.6-10.5h3.9l1.7,5.3c0.1,0.3,0.2,0.6,0.2,0.9h0.2c0-0.3,0.1-0.6,0.2-0.9l1.7-5.3h3.9
			L-147.5,421.8z"/>
		<path class="st2" d="M-132.8,420.9c0,0-1.3,1.3-4,1.3c-3.6,0-5.8-2.5-5.8-5.6c0-3.1,2.2-5.5,5.3-5.5c3.1,0,5,2,5,5.2
			c0,0.4,0,1,0,1h-6.8c0.2,1.4,1,2,2.5,2c1.5,0,2.6-0.8,2.6-0.8L-132.8,420.9z M-139.1,415.4h3.4c0-1-0.6-1.7-1.6-1.7
			C-138.3,413.7-138.9,414.2-139.1,415.4z"/>
		<path class="st2" d="M-124.2,414.4h-0.5c-1.3,0-2.2,0.9-2.2,2.4v5.1h-3.6v-10.5h2.2l0.6,1.4h0.2c0.6-1,1.5-1.4,2.9-1.4h0.5V414.4z
			"/>
	</g>
</g>
<g id="XMLID_17_">
	<g id="XMLID_27_">
		<polyline id="XMLID_30_" class="st3" points="-254,411 -284,411 -284,151 -268.4,151 		"/>
		<g id="XMLID_28_">
			<polygon id="XMLID_29_" class="st4" points="-271.3,161 -254,151 -271.3,141 			"/>
		</g>
	</g>
</g>
<g id="XMLID_16_">
	<g id="XMLID_33_">
		<polyline id="XMLID_36_" class="st3" points="-84,151 -54,151 -54,411 -69.6,411 		"/>
		<g id="XMLID_34_">
			<polygon id="XMLID_35_" class="st4" points="-66.7,401 -84,411 -66.7,421 			"/>
		</g>
	</g>
</g>
<g id="XMLID_20_" class="st1">
	<path d="M-297.4,327.2c0,0,1.5-1.8,1.5-4.2c0-2-0.8-2.9-2.1-2.9c-1.1,0-1.7,0.7-2.5,3.4c-1,3.3-2.1,5-4.5,5c-2.6,0-4.3-1.9-4.3-5.5
		c0-3.7,1.5-5.2,1.5-5.2l2,1.3c0,0-1.2,1.4-1.2,3.9c0,1.7,0.7,2.8,1.9,2.8c1,0,1.5-0.8,2.3-3.3c1-3.6,2.3-5.1,4.7-5.1
		c2.5,0,4.5,1.8,4.5,5.6c0,3.8-1.9,5.7-1.9,5.7L-297.4,327.2z"/>
	<path d="M-304.5,307.8v-2.4h10.5v1.6l-1.4,0.4v0.1c0.5,0.4,1.7,1.3,1.7,3.4c0,2.7-1.9,4.3-4.7,4.3h-6v-2.5h5.8
		c1.7,0,2.9-0.8,2.9-2.4c0-1.8-1.5-2.6-2.5-2.6H-304.5z"/>
	<path d="M-309.1,302.3v-2.4h6v-0.1c0,0-1.6-0.7-1.6-3.3c0-2.7,2.2-4.8,5.5-4.8c3.3,0,5.5,2.1,5.5,4.9c0,2.8-1.9,3.6-1.9,3.6v0.1
		l1.6,0.3v1.7H-309.1z M-295.8,297.1c0-1.7-1.5-2.9-3.5-2.9c-2,0-3.5,1.2-3.5,2.9c0,1.7,1.3,2.9,3.5,2.9
		C-297.1,300-295.8,298.7-295.8,297.1z"/>
	<path d="M-296.6,289.1c0,0,1-1.5,1-3.5c0-1.4-0.5-1.9-1.2-1.9c-2,0-0.9,6.2-4.8,6.2c-1.7,0-3.1-1.3-3.1-4.1c0-2.8,0.9-4.4,0.9-4.4
		l1.9,0.8c0,0-0.9,1.3-0.9,3.3c0,1.2,0.4,1.9,1.1,1.9c1.9,0,0.7-6.3,4.8-6.3c1.7,0,3.2,1.2,3.2,4.3c0,3.1-1.2,4.4-1.2,4.4
		L-296.6,289.1z"/>
	<path d="M-299.2,279.5c-3.2,0-5.5-2.2-5.5-5.4c0-2.3,0.9-3.2,0.9-3.2l1.8,0.7c0,0-0.7,1-0.7,2.4c0,1.7,1.3,3.1,3.5,3.1
		c2.2,0,3.4-1.3,3.4-3.1c0-1.4-0.7-2.4-0.7-2.4l1.8-0.6c0,0,1,0.9,1,3.2C-293.8,277.3-296,279.5-299.2,279.5z"/>
	<path d="M-302.5,263v0.6c0,1.4,1,2.5,2.6,2.6h5.9v2.4h-10.5V267l1.7-0.3v-0.1c-1.1-0.6-1.7-1.6-1.7-3V263H-302.5z"/>
	<path d="M-307.9,261.5c-0.8,0-1.5-0.7-1.5-1.5c0-0.8,0.6-1.5,1.5-1.5c0.8,0,1.5,0.7,1.5,1.5C-306.4,260.8-307,261.5-307.9,261.5z
		 M-304.5,261.2v-2.4h10.5v2.4H-304.5z"/>
	<path d="M-309.1,255.7v-2.4h6v-0.1c0,0-1.6-0.7-1.6-3.3c0-2.7,2.2-4.8,5.5-4.8c3.3,0,5.5,2.1,5.5,4.9c0,2.8-1.9,3.6-1.9,3.6v0.1
		l1.6,0.3v1.7H-309.1z M-295.8,250.4c0-1.7-1.5-2.9-3.5-2.9c-2,0-3.5,1.2-3.5,2.9c0,1.7,1.3,2.9,3.5,2.9
		C-297.1,253.4-295.8,252.1-295.8,250.4z"/>
	<path d="M-295,234c0,0,1.2,1.2,1.2,3.8c0,3.4-2.3,5.5-5.5,5.5c-3.2,0-5.5-2-5.5-5.1c0-3,2.2-4.8,5.2-4.8c0.2,0,0.6,0,0.6,0v7.4
		c2.1-0.1,3.2-1.4,3.2-3.2c0-1.8-0.9-2.8-0.9-2.8L-295,234z M-300.5,240.8v-4.9c-1.5,0.2-2.3,1-2.3,2.4
		C-302.8,239.6-302.1,240.6-300.5,240.8z"/>
</g>
<g id="XMLID_22_" class="st1">
	<path d="M-37.5,320v7h6.5v2.5h-15v-10.7h2.2v8.2h4.2v-7H-37.5z"/>
	<path d="M-44.9,316.9c-0.8,0-1.5-0.7-1.5-1.5c0-0.8,0.6-1.5,1.5-1.5c0.8,0,1.5,0.7,1.5,1.5C-43.4,316.2-44,316.9-44.9,316.9z
		 M-41.5,316.6v-2.4H-31v2.4H-41.5z"/>
	<path d="M-39.5,305.5v0.6c0,1.4,1,2.5,2.6,2.6h5.9v2.4h-10.5v-1.6l1.7-0.3v-0.1c-1.1-0.6-1.7-1.6-1.7-3v-0.6H-39.5z"/>
	<path d="M-32,295.2c0,0,1.2,1.2,1.2,3.8c0,3.4-2.3,5.5-5.5,5.5c-3.2,0-5.5-2-5.5-5.1c0-3,2.2-4.8,5.2-4.8c0.2,0,0.6,0,0.6,0v7.4
		c2.1-0.2,3.2-1.4,3.2-3.2c0-1.8-0.9-2.8-0.9-2.8L-32,295.2z M-37.5,302.1v-4.9c-1.5,0.2-2.3,1-2.3,2.4
		C-39.8,300.9-39.1,301.8-37.5,302.1z"/>
	<path d="M-37.5,277.3v7h4.3v-8.2h2.2v10.7h-15v-10.7h2.2v8.2h4.1v-7H-37.5z"/>
	<path d="M-31,268.7v1.7l-10.5,4.7v-2.7l6.8-2.6c0.2-0.1,0.5-0.2,0.8-0.2v-0.1c-0.2,0-0.5-0.1-0.8-0.2l-6.8-2.6V264L-31,268.7z"/>
	<path d="M-32,254c0,0,1.2,1.2,1.2,3.8c0,3.4-2.3,5.5-5.5,5.5c-3.2,0-5.5-2-5.5-5.1c0-3,2.2-4.8,5.2-4.8c0.2,0,0.6,0,0.6,0v7.4
		c2.1-0.1,3.2-1.4,3.2-3.2c0-1.8-0.9-2.8-0.9-2.8L-32,254z M-37.5,260.8v-4.9c-1.5,0.2-2.3,1-2.3,2.4
		C-39.8,259.6-39.1,260.6-37.5,260.8z"/>
	<path d="M-41.5,251.2v-1.6l1.5-0.3v-0.1c-1.1-0.7-1.7-1.7-1.7-3.5c0-2.7,1.9-4.4,4.7-4.4h6v2.4h-5.8c-1.6,0-2.8,0.9-2.8,2.5
		c0,1.6,1.3,2.5,2.4,2.5h6.3v2.4H-41.5z"/>
	<path d="M-41.5,237.7h-3.2v-2.4h3.2v-2.8h1.9v2.8h5.3c0.9,0,1.4-0.4,1.4-1.3c0-0.7-0.4-1.3-0.4-1.3l1.7-0.7
		c0.2,0.2,0.8,1.2,0.8,2.5c0,2.3-1.4,3.3-3.4,3.3h-5.4v1.9h-1.9V237.7z"/>
</g>
</svg>
