<?xml version="1.0" encoding="utf-8"?>
<!-- Generator: Adobe Illustrator 19.0.0, SVG Export Plug-In . SVG Version: 6.00 Build 0)  -->
<svg version="1.1" id="Layer_1" xmlns="http://www.w3.org/2000/svg" xmlns:xlink="http://www.w3.org/1999/xlink" x="0px" y="0px"
	 viewBox="-324 101 310 360" style="enable-background:new -324 101 310 360;" xml:space="preserve">
<style type="text/css">
	.st0{fill:#55A7E8;stroke:#4182AD;stroke-width:4;stroke-miterlimit:10;}
	.st1{enable-background:new    ;}
	.st2{fill:#FFFFFF;}
	.st3{fill:#E37E32;stroke:#333333;stroke-width:4;stroke-miterlimit:10;}
	.st4{fill:none;stroke:#333333;stroke-width:4;stroke-linecap:round;stroke-linejoin:round;}
	.st5{fill:#333333;}
</style>
<g id="XMLID_3_">
	<path id="XMLID_5_" class="st0" d="M-106,451h-126c-6.6,0-12-5.4-12-12v-51c0-6.6,5.4-12,12-12h126c6.6,0,12,5.4,12,12v51
		C-94,445.6-99.4,451-106,451z"/>
	<g id="XMLID_4_" class="st1">
		<path class="st2" d="M-219.6,417.4c0,0,2.1,1.4,4.2,1.4c1.1,0,1.6-0.5,1.6-1.2c0-0.8-0.5-1.2-2.6-1.8c-3.1-0.9-4.9-2.2-4.9-4.6
			c0-2.7,1.8-4.6,5.8-4.6c4.1,0,5.6,1.6,5.6,1.6l-1.9,2.9c0,0-1.6-1.2-3.7-1.2c-1.2,0-1.6,0.5-1.6,1.1c0,0.7,0.6,1,2.4,1.5
			c3.3,0.9,5.2,2.2,5.2,4.7c0,2.7-1.8,5-5.8,5c-4.1,0-6.3-2-6.3-2L-219.6,417.4z"/>
		<path class="st2" d="M-200.9,411.3h3.6v10.5h-2.4l-0.6-1.4h-0.1c-0.6,0.9-1.5,1.7-3,1.7c-2.7,0-4.3-1.8-4.3-4.6v-6.2h3.6v5.9
			c0,1,0.6,1.8,1.6,1.8c1.1,0,1.8-0.8,1.8-1.7V411.3z"/>
		<path class="st2" d="M-194.9,406.7h3.6v5.6h0.1c0,0,0.6-1.2,2.6-1.2c2.7,0,4.7,2.2,4.7,5.5c0,3.4-2.1,5.5-4.8,5.5
			c-2.4,0-3.2-1.7-3.2-1.7h-0.1l-0.5,1.4h-2.4V406.7z M-189.5,419.1c1.2,0,2-1.1,2-2.6c0-1.5-0.8-2.5-2-2.5c-1.2,0-2,1-2,2.5
			C-191.5,418.1-190.7,419.1-189.5,419.1z"/>
		<path class="st2" d="M-181.5,418.5c0,0,1.7,1,3.3,1c0.9,0,1.2-0.3,1.2-0.6c0-1.4-5.4-0.4-5.4-4.5c0-1.9,1.5-3.3,4.3-3.3
			c3.2,0,4.8,0.9,4.8,0.9l-1,2.6c0,0-1.5-0.9-3.3-0.9c-0.7,0-1.1,0.2-1.1,0.6c0,1.3,5.6,0.3,5.6,4.5c0,1.9-1.4,3.3-4.8,3.3
			c-3.2,0-4.6-1.1-4.6-1.1L-181.5,418.5z"/>
		<path class="st2" d="M-171.8,416.6c0-3.1,2.2-5.5,5.7-5.5c2.2,0,3.3,0.9,3.3,0.9l-0.9,2.6c0,0-1-0.6-2.1-0.6c-1.4,0-2.4,1-2.4,2.5
			c0,1.6,1,2.6,2.4,2.6c1.1,0,2.1-0.6,2.1-0.6l0.9,2.5c0,0-1.1,1-3.3,1C-169.5,422.1-171.8,419.7-171.8,416.6z"/>
		<path class="st2" d="M-154.7,414.4h-0.5c-1.3,0-2.2,0.9-2.2,2.4v5.1h-3.6v-10.5h2.2l0.6,1.4h0.2c0.6-1,1.5-1.4,2.9-1.4h0.5V414.4z
			"/>
		<path class="st2" d="M-153.3,408c0-1.2,0.9-2,2-2c1.1,0,2.1,0.8,2.1,2s-0.9,1.9-2.1,1.9C-152.4,410-153.3,409.2-153.3,408z
			 M-153.1,411.3h3.6v10.5h-3.6V411.3z"/>
		<path class="st2" d="M-147.1,406.7h3.6v5.6h0.2c0,0,0.6-1.2,2.6-1.2c2.7,0,4.7,2.2,4.7,5.5c0,3.4-2.1,5.5-4.8,5.5
			c-2.4,0-3.2-1.7-3.2-1.7h-0.2l-0.5,1.4h-2.4V406.7z M-141.6,419.1c1.2,0,2-1.1,2-2.6c0-1.5-0.8-2.5-2-2.5c-1.2,0-2,1-2,2.5
			C-143.7,418.1-142.9,419.1-141.6,419.1z"/>
		<path class="st2" d="M-124.9,420.9c0,0-1.3,1.3-4,1.3c-3.6,0-5.8-2.5-5.8-5.6c0-3.1,2.2-5.5,5.3-5.5c3.1,0,5,2,5,5.2
			c0,0.4,0,1,0,1h-6.8c0.2,1.4,1,2,2.5,2c1.5,0,2.6-0.8,2.6-0.8L-124.9,420.9z M-131.2,415.4h3.4c0-1-0.6-1.7-1.6-1.7
			C-130.3,413.7-131,414.2-131.2,415.4z"/>
		<path class="st2" d="M-116.2,414.4h-0.5c-1.3,0-2.2,0.9-2.2,2.4v5.1h-3.6v-10.5h2.2l0.6,1.4h0.1c0.6-1,1.5-1.4,2.9-1.4h0.5V414.4z
			"/>
	</g>
</g>
<g id="XMLID_7_">
	<path id="XMLID_9_" class="st0" d="M-106,186h-126c-6.6,0-12-5.4-12-12v-51c0-6.6,5.4-12,12-12h126c6.6,0,12,5.4,12,12v51
		C-94,180.6-99.4,186-106,186z"/>
	<g id="XMLID_8_" class="st1">
		<path class="st2" d="M-202.9,146.9c0,3.1-2.3,5-5.8,5h-3v4.9h-3.6v-15h6.6C-205.2,141.8-202.9,144-202.9,146.9z M-208.9,145h-2.7
			v3.9h2.8c1.3,0,2.2-0.7,2.2-1.9C-206.6,145.6-207.6,145-208.9,145z"/>
		<path class="st2" d="M-194.4,146.3h3.6v10.5h-2.4l-0.6-1.4h-0.1c-0.6,0.9-1.5,1.6-3,1.6c-2.7,0-4.3-1.8-4.3-4.6v-6.2h3.6v5.9
			c0,1,0.6,1.8,1.6,1.8c1.1,0,1.8-0.8,1.8-1.7V146.3z"/>
		<path class="st2" d="M-188.4,141.7h3.6v5.6h0.1c0,0,0.6-1.2,2.6-1.2c2.7,0,4.7,2.2,4.7,5.5c0,3.4-2.1,5.5-4.8,5.5
			c-2.4,0-3.2-1.6-3.2-1.6h-0.1l-0.5,1.4h-2.4V141.7z M-182.9,154.1c1.2,0,2-1.1,2-2.6c0-1.5-0.8-2.5-2-2.5c-1.2,0-2,1-2,2.5
			S-184.2,154.1-182.9,154.1z"/>
		<path class="st2" d="M-175.4,141.7h3.6v15.1h-3.6V141.7z"/>
		<path class="st2" d="M-169.6,143c0-1.1,0.9-2,2-2c1.1,0,2.1,0.8,2.1,2c0,1.2-0.9,2-2.1,2C-168.7,145-169.6,144.2-169.6,143z
			 M-169.4,146.3h3.6v10.5h-3.6V146.3z"/>
		<path class="st2" d="M-162.8,153.5c0,0,1.7,1,3.3,1c0.9,0,1.2-0.3,1.2-0.6c0-1.4-5.4-0.5-5.4-4.5c0-1.9,1.5-3.3,4.3-3.3
			c3.2,0,4.8,0.9,4.8,0.9l-1,2.6c0,0-1.5-0.9-3.3-0.9c-0.7,0-1.1,0.2-1.1,0.6c0,1.3,5.6,0.3,5.6,4.5c0,1.9-1.4,3.3-4.8,3.3
			c-3.2,0-4.6-1.1-4.6-1.1L-162.8,153.5z"/>
		<path class="st2" d="M-152.5,141.7h3.6v5.6h0.1c0.5-0.6,1.3-1.2,2.7-1.2c2.5,0,4.1,1.8,4.1,4.6v6.2h-3.6v-5.9c0-1-0.8-1.7-1.7-1.7
			c-0.9,0-1.6,0.7-1.7,1.6v6h-3.6V141.7z"/>
		<path class="st2" d="M-130.4,155.9c0,0-1.3,1.3-4,1.3c-3.6,0-5.8-2.5-5.8-5.6c0-3.1,2.2-5.5,5.3-5.5c3.1,0,5,2,5,5.2
			c0,0.4,0,1,0,1h-6.8c0.2,1.4,1,2,2.5,2c1.5,0,2.6-0.8,2.6-0.8L-130.4,155.9z M-136.7,150.4h3.4c0-1-0.6-1.7-1.6-1.7
			C-135.8,148.7-136.5,149.2-136.7,150.4z"/>
		<path class="st2" d="M-121.7,149.4h-0.5c-1.3,0-2.2,0.9-2.2,2.4v5.1h-3.6v-10.5h2.2l0.6,1.4h0.2c0.6-1,1.5-1.4,2.9-1.4h0.5V149.4z
			"/>
	</g>
</g>
<g id="XMLID_13_">
	<path id="XMLID_15_" class="st3" d="M-106,318.5h-126c-6.6,0-12-5.4-12-12v-51c0-6.6,5.4-12,12-12h126c6.6,0,12,5.4,12,12v51
		C-94,313.1-99.4,318.5-106,318.5z"/>
	<g id="XMLID_14_" class="st1">
		<path class="st2" d="M-196.4,287.8c0,0-1.6,1.8-5.1,1.8c-4.8,0-7.7-3.5-7.7-7.8c0-4.3,2.9-7.8,7.7-7.8c3.5,0,5.1,1.8,5.1,1.8
			l-2.1,2.8c0,0-1-1.1-3-1.1c-2.3,0-4,1.7-4,4.3c0,2.6,1.7,4.3,4,4.3c2,0,3-1.1,3-1.1L-196.4,287.8z"/>
		<path class="st2" d="M-194.9,274.2h3.6v5.6h0.1c0.5-0.6,1.3-1.2,2.7-1.2c2.5,0,4.1,1.8,4.1,4.6v6.2h-3.6v-5.9c0-1-0.8-1.7-1.7-1.7
			c-0.9,0-1.6,0.7-1.7,1.6v6h-3.6V274.2z"/>
		<path class="st2" d="M-172.6,289.3h-2.4l-0.5-1.3h-0.1c-0.5,0.9-1.5,1.5-3.3,1.5c-2.3,0-3.7-1.4-3.7-3.3c0-2.2,1.6-3.5,4.8-3.5
			c0.8,0,1.4,0.1,1.9,0.2v-0.3c0-1-0.8-1.3-2.3-1.3c-1.4,0-2.6,0.7-2.6,0.7l-1.1-2.6c0,0,1.5-0.9,4.5-0.9c3.1,0,4.9,1.7,4.9,4.3
			V289.3z M-176,284.9c-0.2-0.1-0.6-0.2-1.4-0.2c-1.2,0-1.9,0.5-1.9,1.3c0,0.8,0.6,1.2,1.4,1.2c1,0,1.8-0.6,1.8-1.6V284.9z"/>
		<path class="st2" d="M-170.3,278.8h2.2l0.6,1.4h0.2c0.8-1.2,1.7-1.7,3.3-1.7c2.7,0,4.4,1.8,4.4,4.6v6.2h-3.6v-5.9
			c0-1-0.7-1.7-1.7-1.7c-1,0-1.6,0.7-1.7,1.6v6h-3.6V278.8z"/>
		<path class="st2" d="M-157.3,278.8h2.2l0.6,1.4h0.2c0.9-1.2,1.7-1.7,3.3-1.7c2.7,0,4.4,1.8,4.4,4.6v6.2h-3.6v-5.9
			c0-1-0.6-1.7-1.7-1.7c-1,0-1.6,0.7-1.7,1.6v6h-3.6V278.8z"/>
		<path class="st2" d="M-135.2,288.4c0,0-1.3,1.3-4,1.3c-3.6,0-5.8-2.5-5.8-5.6c0-3.1,2.2-5.5,5.3-5.5c3.1,0,5,2,5,5.2
			c0,0.4,0,1,0,1h-6.8c0.2,1.4,1,2,2.5,2c1.5,0,2.6-0.8,2.6-0.8L-135.2,288.4z M-141.5,282.9h3.4c0-1-0.6-1.7-1.6-1.7
			C-140.6,281.2-141.3,281.7-141.5,282.9z"/>
		<path class="st2" d="M-132.9,274.2h3.6v15.1h-3.6V274.2z"/>
	</g>
</g>
<g id="XMLID_18_">
	<g id="XMLID_56_">
		<polyline id="XMLID_59_" class="st4" points="-254,411 -284,411 -284,281 -268.4,281 		"/>
		<g id="XMLID_57_">
			<polygon id="XMLID_58_" class="st5" points="-271.3,291 -254,281 -271.3,271 			"/>
		</g>
	</g>
</g>
<g id="XMLID_19_">
	<g id="XMLID_51_">
		<polyline id="XMLID_54_" class="st4" points="-84,281 -54,281 -54,411 -69.6,411 		"/>
		<g id="XMLID_52_">
			<polygon id="XMLID_53_" class="st5" points="-66.7,401 -84,411 -66.7,421 			"/>
		</g>
	</g>
</g>
<g id="XMLID_21_">
	<g id="XMLID_46_">
		<line id="XMLID_49_" class="st4" x1="-169" y1="194.8" x2="-169" y2="220.4"/>
		<g id="XMLID_47_">
			<polygon id="XMLID_48_" class="st5" points="-179,217.5 -169,234.8 -159,217.5 			"/>
		</g>
	</g>
</g>
<g id="XMLID_23_" class="st1">
	<path d="M-37.5,383v7h6.5v2.5h-15v-10.7h2.2v8.2h4.2v-7H-37.5z"/>
	<path d="M-44.9,379.9c-0.8,0-1.5-0.7-1.5-1.5c0-0.8,0.6-1.5,1.5-1.5c0.8,0,1.5,0.7,1.5,1.5C-43.4,379.2-44,379.9-44.9,379.9z
		 M-41.5,379.6v-2.4H-31v2.4H-41.5z"/>
	<path d="M-39.5,368.5v0.6c0,1.4,1,2.5,2.6,2.6h5.9v2.4h-10.5v-1.6l1.7-0.3v-0.1c-1.1-0.6-1.7-1.6-1.7-3v-0.6H-39.5z"/>
	<path d="M-32,358.2c0,0,1.2,1.2,1.2,3.8c0,3.4-2.3,5.5-5.5,5.5c-3.2,0-5.5-2-5.5-5.1c0-3,2.2-4.8,5.2-4.8c0.2,0,0.6,0,0.6,0v7.4
		c2.1-0.2,3.2-1.4,3.2-3.2c0-1.8-0.9-2.8-0.9-2.8L-32,358.2z M-37.5,365.1v-4.9c-1.5,0.2-2.3,1-2.3,2.4
		C-39.8,363.9-39.1,364.8-37.5,365.1z"/>
	<path d="M-37.5,340.3v7h4.3v-8.2h2.2v10.7h-15v-10.7h2.2v8.2h4.1v-7H-37.5z"/>
	<path d="M-31,331.7v1.7l-10.5,4.7v-2.7l6.8-2.6c0.2-0.1,0.5-0.2,0.8-0.2v-0.1c-0.2,0-0.5-0.1-0.8-0.2l-6.8-2.7V327L-31,331.7z"/>
	<path d="M-32,317c0,0,1.2,1.2,1.2,3.8c0,3.4-2.3,5.5-5.5,5.5c-3.2,0-5.5-2-5.5-5.1c0-3,2.2-4.8,5.2-4.8c0.2,0,0.6,0,0.6,0v7.4
		c2.1-0.2,3.2-1.4,3.2-3.2c0-1.8-0.9-2.8-0.9-2.8L-32,317z M-37.5,323.8v-4.9c-1.5,0.2-2.3,1-2.3,2.4
		C-39.8,322.6-39.1,323.6-37.5,323.8z"/>
	<path d="M-41.5,314.2v-1.6l1.5-0.3v-0.1c-1.1-0.8-1.7-1.8-1.7-3.5c0-2.7,1.9-4.4,4.7-4.4h6v2.4h-5.8c-1.6,0-2.8,0.9-2.8,2.5
		c0,1.6,1.3,2.5,2.4,2.5h6.3v2.4H-41.5z"/>
	<path d="M-41.5,300.8h-3.2v-2.4h3.2v-2.8h1.9v2.8h5.3c0.9,0,1.4-0.4,1.4-1.3c0-0.7-0.4-1.3-0.4-1.3l1.7-0.7
		c0.2,0.2,0.8,1.2,0.8,2.5c0,2.3-1.4,3.3-3.4,3.3h-5.4v1.9h-1.9V300.8z"/>
</g>
<g id="XMLID_24_" class="st1">
	<path d="M-297.4,390.2c0,0,1.5-1.8,1.5-4.2c0-2-0.8-2.9-2.1-2.9c-1.1,0-1.7,0.7-2.5,3.4c-1,3.3-2.1,5-4.5,5c-2.6,0-4.3-1.9-4.3-5.5
		c0-3.7,1.5-5.2,1.5-5.2l2,1.3c0,0-1.2,1.4-1.2,3.9c0,1.7,0.7,2.8,1.9,2.8c1,0,1.5-0.8,2.3-3.3c1-3.6,2.3-5.1,4.7-5.1
		c2.5,0,4.5,1.8,4.5,5.6c0,3.8-1.9,5.7-1.9,5.7L-297.4,390.2z"/>
	<path d="M-304.5,370.8v-2.4h10.5v1.6l-1.4,0.4v0.1c0.5,0.4,1.7,1.3,1.7,3.4c0,2.7-1.9,4.3-4.7,4.3h-6v-2.5h5.8
		c1.7,0,2.9-0.8,2.9-2.4c0-1.8-1.5-2.6-2.5-2.6H-304.5z"/>
	<path d="M-309.1,365.3v-2.4h6v-0.1c0,0-1.6-0.7-1.6-3.3c0-2.7,2.2-4.8,5.5-4.8c3.3,0,5.5,2.1,5.5,4.9c0,2.8-1.9,3.6-1.9,3.6v0.1
		l1.6,0.3v1.7H-309.1z M-295.8,360.1c0-1.7-1.5-2.9-3.5-2.9c-2,0-3.5,1.2-3.5,2.9c0,1.7,1.3,2.9,3.5,2.9
		C-297.1,363-295.8,361.7-295.8,360.1z"/>
	<path d="M-296.6,352.1c0,0,1-1.5,1-3.5c0-1.4-0.5-1.9-1.2-1.9c-2,0-0.9,6.2-4.8,6.2c-1.7,0-3.1-1.3-3.1-4.1c0-2.8,0.9-4.4,0.9-4.4
		l1.9,0.8c0,0-0.9,1.3-0.9,3.3c0,1.2,0.4,1.9,1.1,1.9c1.9,0,0.7-6.3,4.8-6.3c1.7,0,3.2,1.2,3.2,4.3c0,3.1-1.2,4.4-1.2,4.4
		L-296.6,352.1z"/>
	<path d="M-299.2,342.5c-3.2,0-5.5-2.2-5.5-5.4c0-2.3,0.9-3.2,0.9-3.2l1.8,0.7c0,0-0.7,1-0.7,2.4c0,1.7,1.3,3.1,3.5,3.1
		c2.2,0,3.4-1.3,3.4-3.1c0-1.4-0.7-2.4-0.7-2.4l1.8-0.6c0,0,1,1,1,3.2C-293.8,340.3-296,342.5-299.2,342.5z"/>
	<path d="M-302.5,326v0.6c0,1.4,1,2.5,2.6,2.6h5.9v2.5h-10.5V330l1.7-0.3v-0.1c-1.1-0.6-1.7-1.6-1.7-3V326H-302.5z"/>
	<path d="M-307.9,324.5c-0.8,0-1.5-0.7-1.5-1.5c0-0.8,0.6-1.5,1.5-1.5c0.8,0,1.5,0.7,1.5,1.5C-306.4,323.8-307,324.5-307.9,324.5z
		 M-304.5,324.2v-2.4h10.5v2.4H-304.5z"/>
	<path d="M-309.1,318.7v-2.4h6v-0.1c0,0-1.6-0.7-1.6-3.3c0-2.7,2.2-4.8,5.5-4.8c3.3,0,5.5,2.1,5.5,4.9c0,2.8-1.9,3.6-1.9,3.6v0.1
		l1.6,0.3v1.7H-309.1z M-295.8,313.4c0-1.7-1.5-2.9-3.5-2.9c-2,0-3.5,1.2-3.5,2.9c0,1.7,1.3,2.9,3.5,2.9
		C-297.1,316.4-295.8,315.1-295.8,313.4z"/>
	<path d="M-295,297c0,0,1.2,1.2,1.2,3.8c0,3.4-2.3,5.5-5.5,5.5c-3.2,0-5.5-2-5.5-5.1c0-3,2.2-4.8,5.2-4.8c0.2,0,0.6,0,0.6,0v7.4
		c2.1-0.2,3.2-1.4,3.2-3.2c0-1.8-0.9-2.8-0.9-2.8L-295,297z M-300.5,303.8v-4.9c-1.5,0.2-2.3,1-2.3,2.4
		C-302.8,302.6-302.1,303.6-300.5,303.8z"/>
</g>
<g id="XMLID_25_" class="st1">
	<path d="M-154.9,204h6.2c3.5,0,5.7,1.9,5.7,5c0,3.3-2.3,5.1-5.8,5.1h-3.6v4.8h-2.5V204z M-148.8,206.2h-3.6v5.8h3.6
		c2,0,3.3-0.9,3.3-2.9C-145.5,207.1-146.8,206.2-148.8,206.2z"/>
	<path d="M-133.6,208.5h2.4V219h-1.6l-0.4-1.4h-0.1c-0.4,0.5-1.3,1.7-3.4,1.7c-2.7,0-4.3-1.9-4.3-4.7v-6h2.4v5.8
		c0,1.7,0.8,2.9,2.4,2.9c1.8,0,2.6-1.5,2.6-2.5V208.5z"/>
	<path d="M-128.1,203.9h2.4v6h0.1c0,0,0.7-1.6,3.3-1.6c2.7,0,4.8,2.2,4.8,5.5c0,3.3-2.1,5.5-4.9,5.5c-2.8,0-3.6-1.9-3.6-1.9h-0.1
		l-0.3,1.6h-1.7V203.9z M-122.8,217.2c1.7,0,2.9-1.5,2.9-3.5c0-2-1.2-3.5-2.9-3.5s-2.9,1.3-2.9,3.5
		C-125.8,215.9-124.5,217.2-122.8,217.2z"/>
	<path d="M-115,203.9h2.4V219h-2.4V203.9z"/>
	<path d="M-109.8,205.1c0-0.8,0.7-1.5,1.5-1.5c0.8,0,1.5,0.6,1.5,1.5c0,0.8-0.7,1.5-1.5,1.5C-109.1,206.6-109.8,206-109.8,205.1z
		 M-109.5,208.5h2.5V219h-2.5V208.5z"/>
	<path d="M-103.8,216.4c0,0,1.5,1,3.5,1c1.4,0,2-0.5,2-1.2c0-2-6.2-0.9-6.2-4.8c0-1.7,1.3-3.1,4.1-3.1c2.8,0,4.4,0.9,4.4,0.9
		l-0.8,1.9c0,0-1.3-0.9-3.3-0.9c-1.2,0-1.9,0.4-1.9,1.1c0,1.9,6.3,0.7,6.3,4.8c0,1.7-1.2,3.2-4.3,3.2c-3.1,0-4.4-1.2-4.4-1.2
		L-103.8,216.4z"/>
	<path d="M-93.5,203.9h2.5v5.6h0.1c0.7-0.8,1.6-1.2,3.1-1.2c2.6,0,4.2,1.9,4.2,4.7v6h-2.4v-5.8c0-1.6-0.9-2.9-2.5-2.9
		c-1.7,0-2.5,1.4-2.5,2.6v6.1h-2.5V203.9z"/>
	<path d="M-65.6,212.5h-7v4.3h8.2v2.2H-75v-15h10.7v2.2h-8.2v4.1h7V212.5z"/>
	<path d="M-57,219h-1.7l-4.7-10.5h2.7l2.6,6.8c0.1,0.2,0.2,0.5,0.2,0.8h0.1c0-0.2,0.1-0.5,0.2-0.8l2.6-6.8h2.7L-57,219z"/>
	<path d="M-42.3,218c0,0-1.2,1.2-3.8,1.2c-3.4,0-5.5-2.3-5.5-5.5c0-3.2,2-5.5,5.1-5.5c3,0,4.8,2.2,4.8,5.2c0,0.2,0,0.6,0,0.6h-7.4
		c0.2,2.1,1.4,3.2,3.2,3.2c1.8,0,2.8-0.9,2.8-0.9L-42.3,218z M-49.1,212.5h4.9c-0.2-1.5-1-2.3-2.4-2.3
		C-47.9,210.2-48.9,210.9-49.1,212.5z"/>
	<path d="M-39.5,208.5h1.6l0.3,1.5h0.2c0.8-1.1,1.8-1.7,3.5-1.7c2.7,0,4.4,1.9,4.4,4.7v6H-32v-5.8c0-1.6-0.9-2.8-2.5-2.8
		c-1.6,0-2.5,1.3-2.5,2.4v6.3h-2.5V208.5z"/>
	<path d="M-26,208.5v-3.2h2.4v3.2h2.8v1.9h-2.8v5.3c0,0.9,0.4,1.4,1.3,1.4c0.7,0,1.3-0.4,1.3-0.4l0.7,1.7c-0.2,0.2-1.2,0.8-2.5,0.8
		c-2.3,0-3.3-1.4-3.3-3.4v-5.4h-1.9v-1.9H-26z"/>
</g>
</svg>
