<?xml version="1.0" encoding="utf-8"?>
<!-- Generator: Adobe Illustrator 19.0.0, SVG Export Plug-In . SVG Version: 6.00 Build 0)  -->
<svg version="1.1" id="Layer_1" xmlns="http://www.w3.org/2000/svg" xmlns:xlink="http://www.w3.org/1999/xlink" x="0px" y="0px"
	 viewBox="-35 215 889 132" style="enable-background:new -35 215 889 132;" xml:space="preserve">
<style type="text/css">
	.st0{fill:#CEDDDD;stroke:#96A3A3;stroke-width:4;stroke-linecap:round;stroke-linejoin:round;stroke-miterlimit:10;}
	.st1{fill:#55A7E8;stroke:#4182AD;stroke-width:4;stroke-miterlimit:10;}
	.st2{enable-background:new    ;}
	.st3{fill:#FFFFFF;}
	.st4{fill:#E37E32;stroke:#333333;stroke-width:4;stroke-miterlimit:10;}
	.st5{fill:#96A3A3;}
</style>
<polygon id="XMLID_10_" class="st0" points="48.5,339.1 -25,281 48.5,222.8 772.7,222.8 846.2,281 772.7,339.1 "/>
<g id="XMLID_7_">
	<path id="XMLID_1_" class="st1" d="M215.5,318.5h-126c-6.6,0-12-5.4-12-12v-51c0-6.6,5.4-12,12-12h126c6.6,0,12,5.4,12,12v51
		C227.5,313.1,222.1,318.5,215.5,318.5z"/>
	<g class="st2">
		<path class="st3" d="M97.9,264.3c0,3.1-2.3,5-5.8,5h-3v4.9h-3.6v-15h6.6C95.5,259.3,97.9,261.4,97.9,264.3z M91.9,262.4h-2.7v3.9
			h2.8c1.3,0,2.2-0.7,2.2-1.9C94.1,263,93.2,262.4,91.9,262.4z"/>
		<path class="st3" d="M105.8,266.8h-0.5c-1.3,0-2.2,0.9-2.2,2.4v5.1h-3.6v-10.5h2.2l0.6,1.4h0.2c0.6-1,1.5-1.4,2.9-1.4h0.5V266.8z"
			/>
		<path class="st3" d="M112.2,274.5c-3.1,0-5.6-2.1-5.6-5.4c0-3.3,2.5-5.5,5.6-5.5c3,0,5.6,2.2,5.6,5.5
			C117.8,272.4,115.2,274.5,112.2,274.5z M114.2,269c0-1.6-0.8-2.7-2-2.7c-1.3,0-2.1,1.1-2.1,2.7c0,1.6,0.8,2.7,2.1,2.7
			C113.4,271.7,114.2,270.7,114.2,269z"/>
		<path class="st3" d="M128.6,266.4L128.6,266.4c0,0,0.2,0.3,0.2,1c0,1.8-1.5,3.3-4.6,3.3c-0.5,0-1,0-1.5-0.1
			c-0.4,0.2-0.4,0.4-0.4,0.6c0,0.3,0.2,0.6,2.1,0.6c4.2,0.2,5.6,1,5.6,3.2c0,1.9-1.8,3.6-5.7,3.6c-3.9,0-5.4-1.1-5.4-2.6
			c0-0.8,0.4-1.6,1.5-2.3c-0.8-0.5-1.2-1.2-1.2-2.1c0-0.7,0.5-1.4,1.5-2c-0.8-0.6-1.2-1.4-1.2-2.4c0-2.2,1.8-3.7,4.7-3.7
			c0.6,0,1.2,0.1,1.7,0.2h4v2.6H128.6z M122.9,274.6c-0.3,0.2-0.6,0.6-0.6,1.1c0,0.6,0.5,0.9,1.9,0.9c1.5,0,2.1-0.4,2.1-0.9
			c0-0.5-0.2-1-2-1C123.8,274.6,123.3,274.6,122.9,274.6z M122.7,267.2c0,0.8,0.5,1.4,1.4,1.4c0.9,0,1.4-0.6,1.4-1.4
			s-0.5-1.4-1.4-1.4C123.2,265.8,122.7,266.4,122.7,267.2z"/>
		<path class="st3" d="M137.9,266.8h-0.5c-1.3,0-2.2,0.9-2.2,2.4v5.1h-3.6v-10.5h2.2l0.6,1.4h0.2c0.6-1,1.5-1.4,2.9-1.4h0.5V266.8z"
			/>
		<path class="st3" d="M148.7,274.3h-2.4l-0.5-1.3h-0.1c-0.5,0.9-1.5,1.5-3.3,1.5c-2.3,0-3.7-1.4-3.7-3.3c0-2.2,1.6-3.5,4.8-3.5
			c0.8,0,1.4,0.1,1.9,0.2v-0.3c0-1-0.8-1.3-2.3-1.3c-1.4,0-2.6,0.7-2.6,0.7l-1.1-2.5c0,0,1.5-0.9,4.5-0.9c3.1,0,4.9,1.7,4.9,4.3
			V274.3z M145.3,269.8c-0.2-0.1-0.6-0.2-1.4-0.2c-1.2,0-1.9,0.5-1.9,1.3c0,0.8,0.6,1.2,1.4,1.2c1,0,1.8-0.6,1.8-1.6V269.8z"/>
		<path class="st3" d="M154.7,274.3h-3.6v-10.5h2.2l0.6,1.4h0.2c0.7-1,1.7-1.7,3.3-1.7c1.6,0,2.9,0.6,3.6,1.7h0.1
			c0.7-1.1,1.6-1.8,3.2-1.8c2.7,0,4.3,1.8,4.3,4.6v6.2H165v-5.9c0-1-0.6-1.7-1.6-1.7c-1,0-1.7,0.6-1.7,1.5v6.1h-3.6v-5.9
			c0-1-0.6-1.7-1.7-1.7c-1.1,0-1.7,0.7-1.7,1.7V274.3z"/>
		<path class="st3" d="M174.6,274.3H171v-10.5h2.2l0.6,1.4h0.2c0.7-1,1.7-1.7,3.3-1.7c1.6,0,2.9,0.6,3.6,1.7h0.1
			c0.7-1.1,1.6-1.8,3.2-1.8c2.7,0,4.3,1.8,4.3,4.6v6.2h-3.6v-5.9c0-1-0.6-1.7-1.6-1.7c-1,0-1.7,0.6-1.7,1.5v6.1H178v-5.9
			c0-1-0.6-1.7-1.7-1.7c-1.1,0-1.7,0.7-1.7,1.7V274.3z"/>
		<path class="st3" d="M190.7,260.5c0-1.1,0.9-2,2-2s2.1,0.8,2.1,2c0,1.2-0.9,2-2.1,2S190.7,261.6,190.7,260.5z M190.9,263.8h3.6
			v10.5h-3.6V263.8z"/>
		<path class="st3" d="M196.9,263.8h2.2l0.6,1.4h0.2c0.8-1.2,1.7-1.7,3.3-1.7c2.7,0,4.4,1.8,4.4,4.6v6.2h-3.6v-5.9
			c0-1-0.6-1.7-1.7-1.7c-1,0-1.6,0.7-1.7,1.6v6h-3.6V263.8z"/>
		<path class="st3" d="M218.8,266.4L218.8,266.4c0,0,0.2,0.3,0.2,1c0,1.8-1.5,3.3-4.6,3.3c-0.5,0-1,0-1.5-0.1
			c-0.4,0.2-0.4,0.4-0.4,0.6c0,0.3,0.2,0.6,2.1,0.6c4.2,0.2,5.6,1,5.6,3.2c0,1.9-1.8,3.6-5.7,3.6c-3.9,0-5.4-1.1-5.4-2.6
			c0-0.8,0.4-1.6,1.5-2.3c-0.8-0.5-1.2-1.2-1.2-2.1c0-0.7,0.5-1.4,1.5-2c-0.8-0.6-1.2-1.4-1.2-2.4c0-2.2,1.8-3.7,4.7-3.7
			c0.6,0,1.2,0.1,1.7,0.2h4v2.6H218.8z M213.1,274.6c-0.3,0.2-0.6,0.6-0.6,1.1c0,0.6,0.5,0.9,1.9,0.9c1.5,0,2.1-0.4,2.1-0.9
			c0-0.5-0.2-1-2-1C214,274.6,213.5,274.6,213.1,274.6z M213,267.2c0,0.8,0.5,1.4,1.4,1.4c0.9,0,1.4-0.6,1.4-1.4s-0.5-1.4-1.4-1.4
			C213.5,265.8,213,266.4,213,267.2z"/>
	</g>
	<g class="st2">
		<path class="st3" d="M118.1,294.3c0,3.1-2.3,5-5.8,5h-3v4.9h-3.6v-15h6.6C115.7,289.3,118.1,291.4,118.1,294.3z M112.1,292.4h-2.7
			v3.9h2.8c1.3,0,2.2-0.7,2.2-1.9C114.3,293,113.4,292.4,112.1,292.4z"/>
		<path class="st3" d="M128.8,304.3h-2.4l-0.5-1.3h-0.1c-0.5,0.9-1.5,1.5-3.3,1.5c-2.3,0-3.7-1.4-3.7-3.3c0-2.2,1.6-3.5,4.8-3.5
			c0.8,0,1.4,0.1,1.9,0.2v-0.3c0-1-0.8-1.3-2.3-1.3c-1.4,0-2.6,0.7-2.6,0.7l-1.1-2.5c0,0,1.5-0.9,4.5-0.9c3.1,0,4.9,1.7,4.9,4.3
			V304.3z M125.3,299.8c-0.2-0.1-0.6-0.2-1.4-0.2c-1.2,0-1.9,0.5-1.9,1.3c0,0.8,0.6,1.2,1.4,1.2c1,0,1.8-0.6,1.8-1.6V299.8z"/>
		<path class="st3" d="M137.4,296.8h-0.5c-1.3,0-2.2,0.9-2.2,2.4v5.1h-3.6v-10.5h2.2l0.6,1.4h0.1c0.6-1,1.5-1.4,2.9-1.4h0.5V296.8z"
			/>
		<path class="st3" d="M148.3,304.3h-2.4l-0.5-1.3h-0.1c-0.5,0.9-1.5,1.5-3.3,1.5c-2.3,0-3.7-1.4-3.7-3.3c0-2.2,1.6-3.5,4.8-3.5
			c0.8,0,1.4,0.1,1.9,0.2v-0.3c0-1-0.8-1.3-2.3-1.3c-1.4,0-2.6,0.7-2.6,0.7l-1.1-2.5c0,0,1.5-0.9,4.5-0.9c3.1,0,4.9,1.7,4.9,4.3
			V304.3z M144.8,299.8c-0.2-0.1-0.6-0.2-1.4-0.2c-1.2,0-1.9,0.5-1.9,1.3c0,0.8,0.6,1.2,1.4,1.2c1,0,1.8-0.6,1.8-1.6V299.8z"/>
		<path class="st3" d="M157.5,294.7v-5.6h3.6v15.1h-2.3l-0.6-1.3H158c0,0-0.8,1.6-3.1,1.6c-2.8,0-4.9-2.1-4.9-5.5
			c0-3.3,2-5.5,4.7-5.5c2,0,2.6,1.2,2.6,1.2H157.5z M155.7,296.5c-1.2,0-2,1-2,2.5c0,1.5,0.8,2.6,2,2.6c1.3,0,2-1,2-2.6
			S156.9,296.5,155.7,296.5z"/>
		<path class="st3" d="M163.4,290.5c0-1.1,0.9-2,2-2c1.1,0,2.1,0.8,2.1,2c0,1.2-0.9,2-2.1,2C164.2,292.4,163.4,291.6,163.4,290.5z
			 M163.6,293.8h3.6v10.5h-3.6V293.8z"/>
		<path class="st3" d="M178.6,296.4L178.6,296.4c0,0,0.2,0.3,0.2,1c0,1.8-1.5,3.3-4.6,3.3c-0.5,0-1,0-1.4-0.1
			c-0.4,0.2-0.4,0.4-0.4,0.6c0,0.3,0.2,0.6,2.1,0.6c4.2,0.2,5.6,1,5.6,3.2c0,1.9-1.8,3.6-5.7,3.6c-3.9,0-5.4-1.1-5.4-2.6
			c0-0.8,0.4-1.6,1.5-2.3c-0.8-0.5-1.2-1.2-1.2-2.1c0-0.7,0.5-1.4,1.5-2c-0.8-0.6-1.2-1.4-1.2-2.4c0-2.2,1.8-3.7,4.7-3.7
			c0.6,0,1.2,0.1,1.7,0.2h4v2.6H178.6z M172.9,304.6c-0.3,0.2-0.6,0.6-0.6,1.1c0,0.6,0.5,0.9,1.9,0.9c1.5,0,2.1-0.4,2.1-0.9
			c0-0.5-0.2-1-2-1C173.8,304.6,173.3,304.6,172.9,304.6z M172.7,297.2c0,0.8,0.5,1.4,1.4,1.4c0.9,0,1.4-0.6,1.4-1.4
			s-0.5-1.4-1.4-1.4C173.2,295.8,172.7,296.4,172.7,297.2z"/>
		<path class="st3" d="M185.2,304.3h-3.6v-10.5h2.2l0.6,1.4h0.2c0.7-1,1.7-1.7,3.3-1.7c1.6,0,2.9,0.6,3.6,1.7h0.1
			c0.7-1.1,1.6-1.8,3.2-1.8c2.7,0,4.3,1.8,4.3,4.6v6.2h-3.6v-5.9c0-1-0.6-1.7-1.6-1.7c-1,0-1.7,0.6-1.7,1.5v6.1h-3.6v-5.9
			c0-1-0.6-1.7-1.7-1.7c-1.1,0-1.7,0.7-1.7,1.7V304.3z"/>
	</g>
</g>
<g id="XMLID_8_">
	<path id="XMLID_3_" class="st4" d="M474.9,318.5h-126c-6.6,0-12-5.4-12-12v-51c0-6.6,5.4-12,12-12h126c6.6,0,12,5.4,12,12v51
		C486.9,313.1,481.5,318.5,474.9,318.5z"/>
	<g class="st2">
		<path class="st3" d="M384.7,274.3h-5.8v-15h5.8c4.8,0,7.9,3.2,7.9,7.5S389.5,274.3,384.7,274.3z M382.5,262.4v8.7h1.9
			c2.4,0,4.4-1.6,4.4-4.4c0-2.9-2-4.4-4.4-4.4H382.5z"/>
		<path class="st3" d="M403.7,273.3c0,0-1.3,1.3-4,1.3c-3.6,0-5.8-2.5-5.8-5.6c0-3.1,2.2-5.5,5.3-5.5c3.1,0,5,2,5,5.2c0,0.4,0,1,0,1
			h-6.8c0.2,1.4,1,2,2.5,2c1.5,0,2.6-0.8,2.6-0.8L403.7,273.3z M397.4,267.8h3.4c0-1-0.6-1.7-1.6-1.7
			C398.3,266.1,397.6,266.7,397.4,267.8z"/>
		<path class="st3" d="M406.5,271c0,0,1.7,1,3.3,1c0.9,0,1.2-0.3,1.2-0.6c0-1.4-5.4-0.5-5.4-4.5c0-1.9,1.5-3.3,4.3-3.3
			c3.2,0,4.8,0.9,4.8,0.9l-1,2.6c0,0-1.5-0.9-3.3-0.9c-0.7,0-1.1,0.2-1.1,0.6c0,1.3,5.6,0.3,5.6,4.5c0,1.9-1.4,3.3-4.8,3.3
			c-3.2,0-4.6-1.1-4.6-1.1L406.5,271z"/>
		<path class="st3" d="M416.6,260.5c0-1.1,0.9-2,2-2c1.2,0,2.1,0.8,2.1,2c0,1.2-0.9,2-2.1,2C417.5,262.4,416.6,261.6,416.6,260.5z
			 M416.8,263.8h3.6v10.5h-3.6V263.8z"/>
		<path class="st3" d="M431.8,266.4L431.8,266.4c0,0,0.2,0.3,0.2,1c0,1.8-1.5,3.3-4.6,3.3c-0.5,0-1,0-1.5-0.1
			c-0.4,0.2-0.4,0.4-0.4,0.6c0,0.3,0.2,0.6,2.1,0.6c4.2,0.2,5.6,1,5.6,3.2c0,1.9-1.8,3.6-5.7,3.6c-3.9,0-5.4-1.1-5.4-2.6
			c0-0.8,0.4-1.6,1.5-2.3c-0.8-0.5-1.2-1.2-1.2-2.1c0-0.7,0.5-1.4,1.5-2c-0.8-0.6-1.2-1.4-1.2-2.4c0-2.2,1.8-3.7,4.7-3.7
			c0.6,0,1.2,0.1,1.7,0.2h4v2.6H431.8z M426.1,274.6c-0.3,0.2-0.6,0.6-0.6,1.1c0,0.6,0.5,0.9,1.9,0.9c1.5,0,2.1-0.4,2.1-0.9
			c0-0.5-0.2-1-2-1C427,274.6,426.5,274.6,426.1,274.6z M426,267.2c0,0.8,0.5,1.4,1.4,1.4c0.9,0,1.4-0.6,1.4-1.4s-0.5-1.4-1.4-1.4
			C426.5,265.8,426,266.4,426,267.2z"/>
		<path class="st3" d="M434.8,263.8h2.2l0.6,1.4h0.2c0.9-1.2,1.7-1.7,3.3-1.7c2.7,0,4.4,1.8,4.4,4.6v6.2h-3.6v-5.9
			c0-1-0.6-1.7-1.7-1.7c-1,0-1.6,0.7-1.7,1.6v6h-3.6V263.8z"/>
	</g>
	<g class="st2">
		<path class="st3" d="M387.8,294.3c0,3.1-2.3,5-5.8,5h-3v4.9h-3.6v-15h6.6C385.4,289.3,387.8,291.4,387.8,294.3z M381.8,292.4H379
			v3.9h2.8c1.3,0,2.2-0.7,2.2-1.9C384,293,383.1,292.4,381.8,292.4z"/>
		<path class="st3" d="M398.5,304.3H396l-0.5-1.3h-0.1c-0.5,0.9-1.5,1.5-3.3,1.5c-2.3,0-3.7-1.4-3.7-3.3c0-2.2,1.6-3.5,4.8-3.5
			c0.8,0,1.4,0.1,1.9,0.2v-0.3c0-1-0.8-1.3-2.3-1.3c-1.4,0-2.6,0.7-2.6,0.7l-1.1-2.5c0,0,1.5-0.9,4.5-0.9c3.1,0,4.9,1.7,4.9,4.3
			V304.3z M395,299.8c-0.2-0.1-0.6-0.2-1.4-0.2c-1.2,0-1.9,0.5-1.9,1.3c0,0.8,0.6,1.2,1.4,1.2c1,0,1.8-0.6,1.8-1.6V299.8z"/>
		<path class="st3" d="M401.5,293.8v-3.2h3.6v3.2h2.3v2.8h-2.3v4c0,0.6,0.3,0.9,0.9,0.9c0.5,0,0.9-0.3,0.9-0.3l1,2.4
			c-0.6,0.5-1.8,0.9-2.9,0.9c-2.6,0-3.5-1.6-3.5-3.8v-4.1h-1.7v-2.8H401.5z"/>
		<path class="st3" d="M410.3,293.8v-3.2h3.6v3.2h2.3v2.8h-2.3v4c0,0.6,0.3,0.9,1,0.9c0.5,0,0.9-0.3,0.9-0.3l1,2.4
			c-0.7,0.5-1.8,0.9-2.9,0.9c-2.6,0-3.5-1.6-3.5-3.8v-4.1h-1.7v-2.8H410.3z"/>
		<path class="st3" d="M427.4,303.3c0,0-1.3,1.3-4,1.3c-3.6,0-5.8-2.5-5.8-5.6c0-3.1,2.2-5.5,5.3-5.5c3.1,0,5,2,5,5.2c0,0.4,0,1,0,1
			H421c0.2,1.4,1,2,2.5,2c1.5,0,2.6-0.8,2.6-0.8L427.4,303.3z M421.1,297.8h3.4c0-1-0.6-1.7-1.6-1.7
			C422,296.1,421.3,296.7,421.1,297.8z"/>
		<path class="st3" d="M436,296.8h-0.5c-1.3,0-2.2,0.9-2.2,2.4v5.1h-3.6v-10.5h2.2l0.6,1.4h0.2c0.6-1,1.5-1.4,2.9-1.4h0.5V296.8z"/>
		<path class="st3" d="M437.6,293.8h2.2l0.6,1.4h0.2c0.8-1.2,1.7-1.7,3.3-1.7c2.7,0,4.4,1.8,4.4,4.6v6.2h-3.6v-5.9
			c0-1-0.7-1.7-1.7-1.7c-1,0-1.6,0.7-1.7,1.6v6h-3.6V293.8z"/>
	</g>
</g>
<g id="XMLID_9_">
	<path id="XMLID_2_" class="st1" d="M734.4,318.5h-126c-6.6,0-12-5.4-12-12v-51c0-6.6,5.4-12,12-12h126c6.6,0,12,5.4,12,12v51
		C746.4,313.1,741,318.5,734.4,318.5z"/>
	<g id="XMLID_6_" class="st2">
		<path class="st3" d="M636.2,288.3h-3.9l-0.9-2.7h-5.7l-0.9,2.7h-3.9l5.7-15h3.9L636.2,288.3z M626.6,282.7h3.8l-1.9-5.5
			L626.6,282.7z"/>
		<path class="st3" d="M637.2,273.2h3.6v15.1h-3.6V273.2z"/>
		<path class="st3" d="M652.2,280.4L652.2,280.4c0,0,0.2,0.3,0.2,1c0,1.8-1.5,3.3-4.6,3.3c-0.5,0-1,0-1.5-0.1
			c-0.4,0.2-0.4,0.4-0.4,0.6c0,0.3,0.2,0.6,2.1,0.6c4.2,0.2,5.6,1,5.6,3.2c0,1.9-1.8,3.6-5.7,3.6c-3.9,0-5.4-1.1-5.4-2.6
			c0-0.8,0.4-1.6,1.5-2.3c-0.8-0.5-1.2-1.2-1.2-2.1c0-0.7,0.5-1.4,1.5-2c-0.8-0.6-1.2-1.4-1.2-2.4c0-2.2,1.8-3.7,4.7-3.7
			c0.6,0,1.2,0.1,1.7,0.2h4v2.6H652.2z M646.5,288.6c-0.3,0.2-0.6,0.6-0.6,1.1c0,0.6,0.5,0.9,1.9,0.9c1.5,0,2.1-0.4,2.1-0.9
			c0-0.5-0.2-1-2-1C647.4,288.6,646.9,288.6,646.5,288.6z M646.4,281.2c0,0.8,0.5,1.4,1.4,1.4c0.9,0,1.4-0.6,1.4-1.4
			s-0.5-1.4-1.4-1.4C646.9,279.8,646.4,280.4,646.4,281.2z"/>
		<path class="st3" d="M660,288.5c-3.1,0-5.6-2.1-5.6-5.4c0-3.3,2.5-5.5,5.6-5.5c3,0,5.6,2.2,5.6,5.5
			C665.6,286.4,663.1,288.5,660,288.5z M662.1,283c0-1.6-0.8-2.7-2-2.7c-1.3,0-2.1,1.1-2.1,2.7c0,1.6,0.8,2.7,2.1,2.7
			C661.3,285.7,662.1,284.7,662.1,283z"/>
		<path class="st3" d="M673.8,280.8h-0.5c-1.3,0-2.2,0.9-2.2,2.4v5.1h-3.6v-10.5h2.2l0.6,1.4h0.1c0.6-1,1.5-1.4,2.9-1.4h0.5V280.8z"
			/>
		<path class="st3" d="M675.1,274.5c0-1.1,0.9-2,2-2s2.1,0.8,2.1,2c0,1.2-0.9,2-2.1,2S675.1,275.6,675.1,274.5z M675.3,277.8h3.6
			v10.5h-3.6V277.8z"/>
		<path class="st3" d="M682.2,277.8v-3.2h3.6v3.2h2.3v2.8h-2.3v4c0,0.6,0.3,0.9,0.9,0.9c0.5,0,0.9-0.3,0.9-0.3l1,2.4
			c-0.6,0.5-1.8,0.9-2.9,0.9c-2.6,0-3.5-1.6-3.5-3.8v-4.1h-1.7v-2.8H682.2z"/>
		<path class="st3" d="M690.2,273.2h3.6v5.6h0.1c0.5-0.6,1.3-1.2,2.7-1.2c2.5,0,4.1,1.8,4.1,4.6v6.2h-3.6v-5.9c0-1-0.8-1.7-1.7-1.7
			c-0.9,0-1.6,0.7-1.7,1.6v6h-3.6V273.2z"/>
		<path class="st3" d="M706.7,288.3h-3.6v-10.5h2.2l0.6,1.4h0.2c0.7-1,1.7-1.7,3.3-1.7c1.6,0,2.9,0.6,3.6,1.7h0.1
			c0.7-1.1,1.6-1.8,3.2-1.8c2.7,0,4.3,1.8,4.3,4.6v6.2h-3.6v-5.9c0-1-0.6-1.7-1.6-1.7c-1,0-1.7,0.6-1.7,1.5v6.1h-3.6v-5.9
			c0-1-0.6-1.7-1.7-1.7c-1.1,0-1.7,0.7-1.7,1.7V288.3z"/>
	</g>
</g>
<g id="XMLID_11_" class="st2">
	<path class="st5" d="M59.9,311.7v2.4l-1.3,0.5v0.1c0.9,0.5,1.5,1.5,1.5,3.3c0,2.3-1.4,3.7-3.3,3.7c-2.2,0-3.5-1.6-3.5-4.8
		c0-0.8,0.1-1.4,0.2-1.9h-0.3c-1,0-1.3,0.8-1.3,2.3c0,1.4,0.7,2.6,0.7,2.6l-2.5,1.1c0,0-0.9-1.5-0.9-4.5c0-3.1,1.7-4.9,4.3-4.9H59.9
		z M55.4,315.2c-0.1,0.2-0.2,0.6-0.2,1.4c0,1.2,0.5,1.9,1.3,1.9c0.8,0,1.2-0.6,1.2-1.5c0-1-0.6-1.8-1.6-1.8H55.4z"/>
	<path class="st5" d="M44.8,309.4v-3.6h5.6v-0.1c0,0-1.2-0.6-1.2-2.6c0-2.7,2.2-4.7,5.5-4.7c3.4,0,5.5,2.1,5.5,4.8
		c0,2.4-1.6,3.2-1.6,3.2v0.2l1.4,0.5v2.4H44.8z M57.2,304c0-1.2-1.1-2-2.6-2c-1.5,0-2.5,0.8-2.5,2c0,1.2,1,2,2.5,2
		S57.2,305.2,57.2,304z"/>
	<path class="st5" d="M56.6,296c0,0,1-1.7,1-3.3c0-0.9-0.3-1.2-0.6-1.2c-1.4,0-0.5,5.4-4.5,5.4c-1.9,0-3.3-1.5-3.3-4.3
		c0-3.2,0.9-4.8,0.9-4.8l2.6,1c0,0-0.9,1.5-0.9,3.3c0,0.7,0.2,1.1,0.6,1.1c1.3,0,0.3-5.6,4.5-5.6c1.9,0,3.3,1.4,3.3,4.8
		c0,3.2-1.1,4.6-1.1,4.6L56.6,296z"/>
	<path class="st5" d="M49.4,284.8h-3.2v-3.6h3.2v-2.3h2.8v2.3h4c0.6,0,0.9-0.3,0.9-0.9c0-0.5-0.3-0.9-0.3-0.9l2.4-1
		c0.5,0.6,0.9,1.8,0.9,2.9c0,2.6-1.6,3.5-3.8,3.5h-4.1v1.7h-2.8V284.8z"/>
	<path class="st5" d="M52.4,270.5v0.5c0,1.3,0.9,2.2,2.4,2.2h5.1v3.6H49.4v-2.2l1.4-0.6V274c-1-0.6-1.4-1.5-1.4-2.9v-0.5H52.4z"/>
	<path class="st5" d="M59.9,259.7v2.4l-1.3,0.5v0.1c0.9,0.5,1.5,1.5,1.5,3.3c0,2.3-1.4,3.7-3.3,3.7c-2.2,0-3.5-1.6-3.5-4.8
		c0-0.8,0.1-1.4,0.2-1.9h-0.3c-1,0-1.3,0.8-1.3,2.3c0,1.4,0.7,2.6,0.7,2.6l-2.5,1.1c0,0-0.9-1.5-0.9-4.5c0-3.1,1.7-4.9,4.3-4.9H59.9
		z M55.4,263.2c-0.1,0.2-0.2,0.6-0.2,1.4c0,1.2,0.5,1.9,1.3,1.9c0.8,0,1.2-0.6,1.2-1.4c0-1-0.6-1.8-1.6-1.8H55.4z"/>
	<path class="st5" d="M54.6,258c-3.1,0-5.5-2.2-5.5-5.7c0-2.2,0.9-3.3,0.9-3.3l2.6,0.9c0,0-0.6,0.9-0.6,2.1c0,1.4,1,2.4,2.5,2.4
		s2.5-1,2.5-2.4c0-1.1-0.6-2.1-0.6-2.1l2.5-0.9c0,0,1,1.1,1,3.3C60.1,255.8,57.7,258,54.6,258z"/>
	<path class="st5" d="M49.4,246.4h-3.2v-3.6h3.2v-2.3h2.8v2.3h4c0.6,0,0.9-0.3,0.9-0.9c0-0.5-0.3-0.9-0.3-0.9l2.4-1
		c0.5,0.6,0.9,1.8,0.9,2.9c0,2.6-1.6,3.5-3.8,3.5h-4.1v1.7h-2.8V246.4z"/>
</g>
<g id="XMLID_12_" class="st2">
	<path class="st5" d="M767,238.9c3.1,0,5.5,2.2,5.5,5.7c0,2.2-0.9,3.3-0.9,3.3L769,247c0,0,0.6-1,0.6-2.1c0-1.4-1-2.4-2.5-2.4
		s-2.5,1-2.5,2.4c0,1.1,0.6,2.1,0.6,2.1l-2.5,0.9c0,0-1-1.1-1-3.3C761.5,241.1,763.9,238.9,767,238.9z"/>
	<path class="st5" d="M761.5,254.3c0-3.1,2.1-5.6,5.4-5.6c3.3,0,5.5,2.5,5.5,5.6c0,3-2.2,5.6-5.5,5.6
		C763.7,259.9,761.5,257.4,761.5,254.3z M767,256.4c1.6,0,2.7-0.8,2.7-2c0-1.3-1.1-2.1-2.7-2.1c-1.6,0-2.7,0.8-2.7,2.1
		C764.3,255.6,765.4,256.4,767,256.4z"/>
	<path class="st5" d="M772.3,261.7v2.2l-1.4,0.6v0.2c1.2,0.8,1.7,1.7,1.7,3.3c0,2.7-1.8,4.4-4.6,4.4h-6.2v-3.6h5.9
		c1,0,1.7-0.6,1.7-1.7c0-1-0.7-1.6-1.6-1.7h-6v-3.6H772.3z"/>
	<path class="st5" d="M767,274.1c3.1,0,5.5,2.2,5.5,5.7c0,2.2-0.9,3.3-0.9,3.3l-2.6-0.9c0,0,0.6-1,0.6-2.1c0-1.4-1-2.4-2.5-2.4
		s-2.5,1-2.5,2.4c0,1.1,0.6,2.1,0.6,2.1l-2.5,0.9c0,0-1-1.1-1-3.3C761.5,276.3,763.9,274.1,767,274.1z"/>
	<path class="st5" d="M769.2,291.2v-0.5c0-1.3-0.9-2.2-2.4-2.2h-5.1v-3.6h10.5v2.2l-1.4,0.6v0.2c1,0.6,1.4,1.5,1.4,2.9v0.5H769.2z"
		/>
	<path class="st5" d="M762.7,301.8c0,0-1.3-1.3-1.3-4c0-3.6,2.5-5.8,5.6-5.8c3.1,0,5.5,2.2,5.5,5.3c0,3.1-2,5-5.2,5c-0.4,0-1,0-1,0
		v-6.8c-1.4,0.2-2,1-2,2.5c0,1.5,0.8,2.6,0.8,2.6L762.7,301.8z M768.2,295.5v3.4c1,0,1.7-0.6,1.7-1.6
		C769.9,296.4,769.4,295.7,768.2,295.5z"/>
	<path class="st5" d="M772.3,305h3.2v3.6h-3.2v2.3h-2.8v-2.3h-4c-0.6,0-0.9,0.3-0.9,1c0,0.5,0.3,0.9,0.3,0.9l-2.4,1
		c-0.5-0.7-0.9-1.8-0.9-2.9c0-2.6,1.6-3.5,3.8-3.5h4.1v-1.7h2.8V305z"/>
	<path class="st5" d="M762.7,322c0,0-1.3-1.3-1.3-4c0-3.6,2.5-5.8,5.6-5.8c3.1,0,5.5,2.2,5.5,5.3c0,3.1-2,5-5.2,5c-0.4,0-1,0-1,0
		v-6.8c-1.4,0.2-2,1-2,2.5c0,1.5,0.8,2.6,0.8,2.6L762.7,322z M768.2,315.7v3.4c1,0,1.7-0.6,1.7-1.6
		C769.9,316.6,769.4,315.9,768.2,315.7z"/>
</g>
</svg>
